<svg version="1.1" xmlns="http://www.w3.org/2000/svg" viewBox="0 0 1159.6261160714303 727.1021205357147" width="2319.2522321428605" height="1454.2042410714294">
  <!-- svg-source:excalidraw -->

  <defs>
    <style>
      @font-face {
        font-family: "Virgil";
        src: url("https://excalidraw.com/Virgil.woff2");
      }
      @font-face {
        font-family: "Cascadia";
        src: url("https://excalidraw.com/Cascadia.woff2");
      }
    </style>
  </defs>
  <rect x="0" y="0" width="1159.6261160714303" height="727.1021205357147" fill="#ffffff"></rect><g stroke-opacity="0.8" fill-opacity="0.8" transform="translate(10 211.46205357142844) rotate(0 148.3203125 182.95758928571377)"><path d="M0 0 C86.38884137451528 0, 172.77768274903056 0, 296.64062499999983 0 M0 0 C75.68758439624796 0, 151.3751687924959 0, 296.64062499999983 0 M296.64062499999983 0 C296.64062499999983 107.69175744418398, 296.64062499999983 215.38351488836796, 296.64062499999983 365.91517857142776 M296.64062499999983 0 C296.64062499999983 117.17814416728523, 296.64062499999983 234.35628833457045, 296.64062499999983 365.91517857142776 M296.64062499999983 365.91517857142776 C219.15828559853242 365.91517857142776, 141.67594619706497 365.91517857142776, 0 365.91517857142776 M296.64062499999983 365.91517857142776 C196.2978029346267 365.91517857142776, 95.95498086925357 365.91517857142776, 0 365.91517857142776 M0 365.91517857142776 C0 281.83649142842313, 0 197.75780428541847, 0 0 M0 365.91517857142776 C0 226.8116931465832, 0 87.70820772173863, 0 0" stroke="#000000" stroke-width="1" fill="none"></path></g><g stroke-opacity="0.8" fill-opacity="0.8" transform="translate(125.81473214285711 232.80691964285688) rotate(0 31.499999999999886 21.5)"><text x="0" y="35" font-family="Cascadia, Segoe UI Emoji" font-size="36px" fill="#000000" text-anchor="start" style="white-space: pre;" direction="ltr">App</text></g><g stroke-opacity="0.8" fill-opacity="0.8" transform="translate(31.783482142857338 312.56138392857156) rotate(0 122 28.5)"><text x="0" y="15" font-family="Cascadia, Segoe UI Emoji" font-size="16px" fill="#000000" text-anchor="start" style="white-space: pre;" direction="ltr">- Gestione carrello</text><text x="0" y="34" font-family="Cascadia, Segoe UI Emoji" font-size="16px" fill="#000000" text-anchor="start" style="white-space: pre;" direction="ltr">- Gestione rotte &lt;Switch&gt;</text><text x="0" y="53" font-family="Cascadia, Segoe UI Emoji" font-size="16px" fill="#000000" text-anchor="start" style="white-space: pre;" direction="ltr">- Gestione Modale Carrello</text></g><g stroke-opacity="0.8" fill-opacity="0.8" transform="translate(425.64732142857156 10) rotate(0 153.76116071428578 141.1690848214289)"><path d="M0 0 C112.40972301772236 0, 224.8194460354447 0, 307.52232142857156 0 M0 0 C63.042612061212196 0, 126.08522412242439 0, 307.52232142857156 0 M307.52232142857156 0 C307.52232142857156 66.836134848553, 307.52232142857156 133.672269697106, 307.52232142857156 282.3381696428578 M307.52232142857156 0 C307.52232142857156 106.31167192796862, 307.52232142857156 212.62334385593724, 307.52232142857156 282.3381696428578 M307.52232142857156 282.3381696428578 C195.58225815281713 282.3381696428578, 83.64219487706268 282.3381696428578, 0 282.3381696428578 M307.52232142857156 282.3381696428578 C211.13625788817558 282.3381696428578, 114.75019434777957 282.3381696428578, 0 282.3381696428578 M0 282.3381696428578 C0 225.6207281517714, 0 168.903286660685, 0 0 M0 282.3381696428578 C0 219.95544914502375, 0 157.57272864718973, 0 0" stroke="#000000" stroke-width="1" fill="none"></path></g><g stroke-opacity="0.8" fill-opacity="0.8" transform="translate(529.5435267857142 28.181919642855974) rotate(0 42 21.5)"><text x="0" y="35" font-family="Cascadia, Segoe UI Emoji" font-size="36px" fill="#000000" text-anchor="start" style="white-space: pre;" direction="ltr">Home</text></g><g stroke-opacity="0.8" fill-opacity="0.8" transform="translate(453.13950892857156 101.67299107142935) rotate(0 131.5 38)"><text x="0" y="15" font-family="Cascadia, Segoe UI Emoji" font-size="16px" fill="#000000" text-anchor="start" style="white-space: pre;" direction="ltr">- fetch lista prodotti</text><text x="0" y="34" font-family="Cascadia, Segoe UI Emoji" font-size="16px" fill="#000000" text-anchor="start" style="white-space: pre;" direction="ltr">- fetch categorie</text><text x="0" y="53" font-family="Cascadia, Segoe UI Emoji" font-size="16px" fill="#000000" text-anchor="start" style="white-space: pre;" direction="ltr">- filtri</text><text x="0" y="72" font-family="Cascadia, Segoe UI Emoji" font-size="16px" fill="#000000" text-anchor="start" style="white-space: pre;" direction="ltr">- &lt;Link&gt; pagina del prodotto</text></g><g><g stroke-opacity="0.8" fill-opacity="0.8" transform="translate(314.744136962363 300.98008582596503) rotate(0 54.82519739857116 -62.21739416739047)"><path d="M0 0 C18.27506579952372 -20.739131389130154, 91.37532899761861 -103.69565694565078, 109.65039479714233 -124.43478833478093 M0 0 C18.27506579952372 -20.739131389130154, 91.37532899761861 -103.69565694565078, 109.65039479714233 -124.43478833478093" stroke="#000000" stroke-width="1" fill="none"></path></g><g stroke-opacity="0.8" fill-opacity="0.8" transform="translate(314.744136962363 300.98008582596503) rotate(0 54.82519739857116 -62.21739416739047)"><path d="M98.71086631678978 -96.50045969370643 C102.18969639004014 -105.38372945502773, 105.6685264632905 -114.26699921634903, 109.65039479714233 -124.43478833478093 M98.71086631678978 -96.50045969370643 C101.12534596541158 -102.66588703574612, 103.53982561403339 -108.83131437778582, 109.65039479714233 -124.43478833478093" stroke="#000000" stroke-width="1" fill="none"></path></g><g stroke-opacity="0.8" fill-opacity="0.8" transform="translate(314.744136962363 300.98008582596503) rotate(0 54.82519739857116 -62.21739416739047)"><path d="M83.31438945903194 -110.06764447001012 C91.68938364128101 -114.63647504010692, 100.06437782353008 -119.2053056102037, 109.65039479714233 -124.43478833478093 M83.31438945903194 -110.06764447001012 C89.12704848076827 -113.23863822285904, 94.93970750250459 -116.40963197570795, 109.65039479714233 -124.43478833478093" stroke="#000000" stroke-width="1" fill="none"></path></g></g><g stroke-opacity="0.8" fill-opacity="0.8" transform="translate(430.56361607142935 408.7639508928569) rotate(0 153.76116071428578 141.1690848214289)"><path d="M0 0 C95.38535104993835 0, 190.7707020998767 0, 307.52232142857156 0 M0 0 C78.57831434404115 0, 157.1566286880823 0, 307.52232142857156 0 M307.52232142857156 0 C307.52232142857156 96.25228005591345, 307.52232142857156 192.5045601118269, 307.52232142857156 282.3381696428578 M307.52232142857156 0 C307.52232142857156 72.90252848248738, 307.52232142857156 145.80505696497477, 307.52232142857156 282.3381696428578 M307.52232142857156 282.3381696428578 C228.762626102635 282.3381696428578, 150.00293077669843 282.3381696428578, 0 282.3381696428578 M307.52232142857156 282.3381696428578 C200.78192382009007 282.3381696428578, 94.04152621160861 282.3381696428578, 0 282.3381696428578 M0 282.3381696428578 C0 176.93083258814542, 0 71.52349553343305, 0 0 M0 282.3381696428578 C0 186.79265044842697, 0 91.24713125399617, 0 0" stroke="#000000" stroke-width="1" fill="none"></path></g><g stroke-opacity="0.8" fill-opacity="0.8" transform="translate(511.45982142857156 426.94587053571195) rotate(0 74 43)"><text x="74" y="35" font-family="Cascadia, Segoe UI Emoji" font-size="36px" fill="#000000" text-anchor="middle" style="white-space: pre;" direction="ltr">Product</text><text x="74" y="78" font-family="Cascadia, Segoe UI Emoji" font-size="36px" fill="#000000" text-anchor="middle" style="white-space: pre;" direction="ltr">page</text></g><g stroke-opacity="0.8" fill-opacity="0.8" transform="translate(458.05580357142935 546.4369419642862) rotate(0 122 28.5)"><text x="0" y="15" font-family="Cascadia, Segoe UI Emoji" font-size="16px" fill="#000000" text-anchor="start" style="white-space: pre;" direction="ltr">- fetch dettaglio prodotto</text><text x="0" y="34" font-family="Cascadia, Segoe UI Emoji" font-size="16px" fill="#000000" text-anchor="start" style="white-space: pre;" direction="ltr">- aggiungere o togliere il</text><text x="0" y="53" font-family="Cascadia, Segoe UI Emoji" font-size="16px" fill="#000000" text-anchor="start" style="white-space: pre;" direction="ltr">  prodotto dal carrello</text></g><g><g stroke-opacity="0.8" fill-opacity="0.8" transform="translate(312.1031789277263 315.9895494363227) rotate(0 57.881955592561326 127.61874562838284)"><path d="M0 0 C19.293985197520442 42.53958187612761, 96.46992598760221 212.69790938063807, 115.76391118512265 255.23749125676568 M0 0 C19.293985197520442 42.53958187612761, 96.46992598760221 212.69790938063807, 115.76391118512265 255.23749125676568" stroke="#000000" stroke-width="1" fill="none"></path></g><g stroke-opacity="0.8" fill-opacity="0.8" transform="translate(312.1031789277263 315.9895494363227) rotate(0 57.881955592561326 127.61874562838284)"><path d="M94.77519151753356 233.8021548536355 C99.29835678878068 238.42156807805705, 103.8215220600278 243.0409813024786, 115.76391118512265 255.23749125676568 M94.77519151753356 233.8021548536355 C103.03241729359775 242.23508525957408, 111.28964306966192 250.66801566551268, 115.76391118512265 255.23749125676568" stroke="#000000" stroke-width="1" fill="none"></path></g><g stroke-opacity="0.8" fill-opacity="0.8" transform="translate(312.1031789277263 315.9895494363227) rotate(0 57.881955592561326 127.61874562838284)"><path d="M113.46398776497892 225.3257819732514 C113.95963180164621 231.77189239721196, 114.45527583831351 238.21800282117252, 115.76391118512265 255.23749125676568 M113.46398776497892 225.3257819732514 C114.36880650802549 237.0934238691681, 115.27362525107203 248.86106576508482, 115.76391118512265 255.23749125676568" stroke="#000000" stroke-width="1" fill="none"></path></g></g><g stroke-opacity="0.8" fill-opacity="0.8" transform="translate(15.239955357143344 397.90178571428623) rotate(0 142.51395089285722 85.34598214285688)"><path d="M0 0 L285.0279017857143 0 L285.0279017857143 170.69196428571357 L0 170.69196428571357" stroke="none" stroke-width="0" fill="#ced4da"></path><path d="M0 0 C82.20237432667845 0, 164.4047486533569 0, 285.0279017857143 0 M0 0 C75.24090188510723 0, 150.48180377021447 0, 285.0279017857143 0 M285.0279017857143 0 C285.0279017857143 39.24963386254535, 285.0279017857143 78.4992677250907, 285.0279017857143 170.69196428571357 M285.0279017857143 0 C285.0279017857143 46.62595252781655, 285.0279017857143 93.2519050556331, 285.0279017857143 170.69196428571357 M285.0279017857143 170.69196428571357 C189.25777599566624 170.69196428571357, 93.48765020561817 170.69196428571357, 0 170.69196428571357 M285.0279017857143 170.69196428571357 C224.51282943630315 170.69196428571357, 163.99775708689202 170.69196428571357, 0 170.69196428571357 M0 170.69196428571357 C0 116.03025214848824, 0 61.36854001126292, 0 0 M0 170.69196428571357 C0 117.082778719561, 0 63.473593153408444, 0 0" stroke="#000000" stroke-width="1" fill="none"></path></g><g stroke-opacity="0.8" fill-opacity="0.8" transform="translate(128.10379464285757 415.35825892857156) rotate(0 35.000000000000114 12)"><text x="35" y="19" font-family="Cascadia, Segoe UI Emoji" font-size="20px" fill="#000000" text-anchor="middle" style="white-space: pre;" direction="ltr">Header</text></g><g stroke-opacity="0.8" fill-opacity="0.8" transform="translate(34.87053571428669 462.11383928571195) rotate(0 122 38)"><text x="0" y="15" font-family="Cascadia, Segoe UI Emoji" font-size="16px" fill="#000000" text-anchor="start" style="white-space: pre;" direction="ltr">- &lt;Link&gt; alla Homepage</text><text x="0" y="34" font-family="Cascadia, Segoe UI Emoji" font-size="16px" fill="#000000" text-anchor="start" style="white-space: pre;" direction="ltr">- Apertura Modale Carrello</text><text x="0" y="53" font-family="Cascadia, Segoe UI Emoji" font-size="16px" fill="#000000" text-anchor="start" style="white-space: pre;" direction="ltr">- totale Carrello</text><text x="0" y="72" font-family="Cascadia, Segoe UI Emoji" font-size="16px" fill="#000000" text-anchor="start" style="white-space: pre;" direction="ltr">- Numero prodotti</text></g><g stroke-opacity="0.8" fill-opacity="0.8" transform="translate(868.6886160714294 376.2633928571413) rotate(0 131.5 38)"><text x="0" y="15" font-family="Cascadia, Segoe UI Emoji" font-size="16px" fill="#000000" text-anchor="start" style="white-space: pre;" direction="ltr">- Elenco prodotti a carrello</text><text x="0" y="34" font-family="Cascadia, Segoe UI Emoji" font-size="16px" fill="#000000" text-anchor="start" style="white-space: pre;" direction="ltr">- Totale spesa</text><text x="0" y="53" font-family="Cascadia, Segoe UI Emoji" font-size="16px" fill="#000000" text-anchor="start" style="white-space: pre;" direction="ltr">- Rimozione prodotto</text><text x="0" y="72" font-family="Cascadia, Segoe UI Emoji" font-size="16px" fill="#000000" text-anchor="start" style="white-space: pre;" direction="ltr">- Modifica quantità prodotto</text></g><g stroke-opacity="0.8" fill-opacity="0.8" transform="translate(855.6975446428587 229.8911830357083) rotate(0 146.96428571428578 137.5585937499991)"><path d="M0 0 C84.74416260936832 0, 169.48832521873663 0, 293.9285714285715 0 M0 0 C100.44089525262827 0, 200.88179050525653 0, 293.9285714285715 0 M293.9285714285715 0 C293.9285714285715 65.88777564031935, 293.9285714285715 131.7755512806387, 293.9285714285715 275.1171874999977 M293.9285714285715 0 C293.9285714285715 69.20696240102131, 293.9285714285715 138.41392480204263, 293.9285714285715 275.1171874999977 M293.9285714285715 275.1171874999977 C210.40766116886937 275.1171874999977, 126.88675090916723 275.1171874999977, 0 275.1171874999977 M293.9285714285715 275.1171874999977 C178.45145499317113 275.1171874999977, 62.97433855777075 275.1171874999977, 0 275.1171874999977 M0 275.1171874999977 C0 178.49820096782275, 0 81.87921443564778, 0 0 M0 275.1171874999977 C0 218.20561752354297, 0 161.29404754708824, 0 0" stroke="#000000" stroke-width="1" fill="none"></path></g><g stroke-opacity="0.8" fill-opacity="0.8" transform="translate(956.5022321428596 241.85658482142208) rotate(0 42 43)"><text x="42" y="35" font-family="Cascadia, Segoe UI Emoji" font-size="36px" fill="#000000" text-anchor="middle" style="white-space: pre;" direction="ltr">Cart</text><text x="42" y="78" font-family="Cascadia, Segoe UI Emoji" font-size="36px" fill="#000000" text-anchor="middle" style="white-space: pre;" direction="ltr">Page</text></g><g><g stroke-opacity="0.8" fill-opacity="0.8" transform="translate(315.4631696428587 314.3917410714221) rotate(0 267.4693080357142 20.80078125)"><path d="M0 0 C89.15643601190474 6.93359375, 445.7821800595237 34.66796875, 534.9386160714284 41.6015625 M0 0 C89.15643601190474 6.93359375, 445.7821800595237 34.66796875, 534.9386160714284 41.6015625" stroke="#000000" stroke-width="1" fill="none"></path></g><g stroke-opacity="0.8" fill-opacity="0.8" transform="translate(315.4631696428587 314.3917410714221) rotate(0 267.4693080357142 20.80078125)"><path d="M506.03714823355773 49.64551406726618 C517.1241655751423 46.55973894257558, 528.211182916727 43.47396381788498, 534.9386160714284 41.6015625 M506.03714823355773 49.64551406726618 C513.2093477017833 47.64932392644638, 520.3815471700087 45.653133785626586, 534.9386160714284 41.6015625" stroke="#000000" stroke-width="1" fill="none"></path></g><g stroke-opacity="0.8" fill-opacity="0.8" transform="translate(315.4631696428587 314.3917410714221) rotate(0 267.4693080357142 20.80078125)"><path d="M507.6282548358884 29.18608147088513 C518.1049008776031 33.94883795945151, 528.5815469193178 38.71159444801789, 534.9386160714284 41.6015625 M507.6282548358884 29.18608147088513 C514.4056046725608 32.26711205847696, 521.1829545092332 35.34814264606879, 534.9386160714284 41.6015625" stroke="#000000" stroke-width="1" fill="none"></path></g></g><g transform="translate(981.6261160714303 707.1021205357147) rotate(0 84 10)"><text x="168" y="14" font-family="Virgil, Segoe UI Emoji" font-size="16px" fill="#adb5bd" text-anchor="end" style="white-space: pre;" direction="ltr">Made with Excalidraw</text></g></svg>