<svg version="1.1" xmlns="http://www.w3.org/2000/svg" viewBox="0 0 748.0859375000009 825.330357142856" width="1496.1718750000018" height="1650.660714285712">
  <!-- svg-source:excalidraw -->

  <defs>
    <style>
      @font-face {
        font-family: "Virgil";
        src: url("https://excalidraw.com/Virgil.woff2");
      }
      @font-face {
        font-family: "Cascadia";
        src: url("https://excalidraw.com/Cascadia.woff2");
      }
    </style>
  </defs>
  <rect x="0" y="0" width="748.0859375000009" height="825.330357142856" fill="#ffffff"></rect><g stroke-opacity="0.8" fill-opacity="0.8" transform="translate(10 211.1328125) rotate(0 148.3203125 289.098772321428)"><path d="M0 0 C86.38884137451528 0, 172.77768274903056 0, 296.64062499999983 0 M0 0 C75.68758439624796 0, 151.3751687924959 0, 296.64062499999983 0 M296.64062499999983 0 C296.64062499999983 170.16815201708417, 296.64062499999983 340.33630403416834, 296.64062499999983 578.1975446428563 M296.64062499999983 0 C296.64062499999983 185.1579798024299, 296.64062499999983 370.3159596048598, 296.64062499999983 578.1975446428563 M296.64062499999983 578.1975446428563 C219.15828559853242 578.1975446428563, 141.67594619706497 578.1975446428563, 0 578.1975446428563 M296.64062499999983 578.1975446428563 C196.2978029346267 578.1975446428563, 95.95498086925357 578.1975446428563, 0 578.1975446428563 M0 578.1975446428563 C0 445.34137110921165, 0 312.485197575567, 0 0 M0 578.1975446428563 C0 358.39443607022724, 0 138.59132749759823, 0 0" stroke="#000000" stroke-width="1" fill="none"></path></g><g stroke-opacity="0.8" fill-opacity="0.8" transform="translate(125.81473214285711 232.80691964285688) rotate(0 31.499999999999886 21.5)"><text x="0" y="35" font-family="Cascadia, Segoe UI Emoji" font-size="36px" fill="#000000" text-anchor="start" style="white-space: pre;" direction="ltr">App</text></g><g stroke-opacity="0.8" fill-opacity="0.8" transform="translate(31.783482142857338 312.56138392857156) rotate(0 122 28.5)"><text x="0" y="15" font-family="Cascadia, Segoe UI Emoji" font-size="16px" fill="#000000" text-anchor="start" style="white-space: pre;" direction="ltr">- Gestione carrello</text><text x="0" y="34" font-family="Cascadia, Segoe UI Emoji" font-size="16px" fill="#000000" text-anchor="start" style="white-space: pre;" direction="ltr">- Gestione rotte &lt;Switch&gt;</text><text x="0" y="53" font-family="Cascadia, Segoe UI Emoji" font-size="16px" fill="#000000" text-anchor="start" style="white-space: pre;" direction="ltr">- Gestione Modale Carrello</text></g><g stroke-opacity="0.8" fill-opacity="0.8" transform="translate(425.64732142857156 10) rotate(0 153.76116071428578 141.1690848214289)"><path d="M0 0 C112.40972301772236 0, 224.8194460354447 0, 307.52232142857156 0 M0 0 C63.042612061212196 0, 126.08522412242439 0, 307.52232142857156 0 M307.52232142857156 0 C307.52232142857156 66.836134848553, 307.52232142857156 133.672269697106, 307.52232142857156 282.3381696428578 M307.52232142857156 0 C307.52232142857156 106.31167192796862, 307.52232142857156 212.62334385593724, 307.52232142857156 282.3381696428578 M307.52232142857156 282.3381696428578 C195.58225815281713 282.3381696428578, 83.64219487706268 282.3381696428578, 0 282.3381696428578 M307.52232142857156 282.3381696428578 C211.13625788817558 282.3381696428578, 114.75019434777957 282.3381696428578, 0 282.3381696428578 M0 282.3381696428578 C0 225.6207281517714, 0 168.903286660685, 0 0 M0 282.3381696428578 C0 219.95544914502375, 0 157.57272864718973, 0 0" stroke="#000000" stroke-width="1" fill="none"></path></g><g stroke-opacity="0.8" fill-opacity="0.8" transform="translate(529.5435267857142 28.181919642855974) rotate(0 42 21.5)"><text x="0" y="35" font-family="Cascadia, Segoe UI Emoji" font-size="36px" fill="#000000" text-anchor="start" style="white-space: pre;" direction="ltr">Home</text></g><g stroke-opacity="0.8" fill-opacity="0.8" transform="translate(453.13950892857156 101.67299107142935) rotate(0 131.5 38)"><text x="0" y="15" font-family="Cascadia, Segoe UI Emoji" font-size="16px" fill="#000000" text-anchor="start" style="white-space: pre;" direction="ltr">- fetch lista prodotti</text><text x="0" y="34" font-family="Cascadia, Segoe UI Emoji" font-size="16px" fill="#000000" text-anchor="start" style="white-space: pre;" direction="ltr">- fetch categorie</text><text x="0" y="53" font-family="Cascadia, Segoe UI Emoji" font-size="16px" fill="#000000" text-anchor="start" style="white-space: pre;" direction="ltr">- filtri</text><text x="0" y="72" font-family="Cascadia, Segoe UI Emoji" font-size="16px" fill="#000000" text-anchor="start" style="white-space: pre;" direction="ltr">- &lt;Link&gt; pagina del prodotto</text></g><g><g stroke-opacity="0.8" fill-opacity="0.8" transform="translate(313.67828874807674 282.19120633275907) rotate(0 55.35812150571428 -42.04010323458215)"><path d="M0 0 C18.452707168571425 -14.013367744860716, 92.26353584285714 -70.06683872430358, 110.71624301142856 -84.0802064691643 M0 0 C18.452707168571425 -14.013367744860716, 92.26353584285714 -70.06683872430358, 110.71624301142856 -84.0802064691643" stroke="#000000" stroke-width="1" fill="none"></path></g><g stroke-opacity="0.8" fill-opacity="0.8" transform="translate(313.67828874807674 282.19120633275907) rotate(0 55.35812150571428 -42.04010323458215)"><path d="M94.47106589918587 -58.859298067763156 C99.63712134525453 -66.87968530648806, 104.80317679132318 -74.90007254521294, 110.71624301142856 -84.0802064691643 M94.47106589918587 -58.859298067763156 C98.05656317141407 -64.42584238128691, 101.64206044364226 -69.99238669481068, 110.71624301142856 -84.0802064691643" stroke="#000000" stroke-width="1" fill="none"></path></g><g stroke-opacity="0.8" fill-opacity="0.8" transform="translate(313.67828874807674 282.19120633275907) rotate(0 55.35812150571428 -42.04010323458215)"><path d="M82.06002793165166 -75.20206830277115 C91.17286154089747 -78.02536494697213, 100.2856951501433 -80.8486615911731, 110.71624301142856 -84.0802064691643 M82.06002793165166 -75.20206830277115 C88.38478390636446 -77.16157542036841, 94.70953988107725 -79.12108253796568, 110.71624301142856 -84.0802064691643" stroke="#000000" stroke-width="1" fill="none"></path></g></g><g stroke-opacity="0.8" fill-opacity="0.8" transform="translate(430.56361607142935 408.7639508928569) rotate(0 153.76116071428578 141.1690848214289)"><path d="M0 0 C95.38535104993835 0, 190.7707020998767 0, 307.52232142857156 0 M0 0 C78.57831434404115 0, 157.1566286880823 0, 307.52232142857156 0 M307.52232142857156 0 C307.52232142857156 96.25228005591345, 307.52232142857156 192.5045601118269, 307.52232142857156 282.3381696428578 M307.52232142857156 0 C307.52232142857156 72.90252848248738, 307.52232142857156 145.80505696497477, 307.52232142857156 282.3381696428578 M307.52232142857156 282.3381696428578 C228.762626102635 282.3381696428578, 150.00293077669843 282.3381696428578, 0 282.3381696428578 M307.52232142857156 282.3381696428578 C200.78192382009007 282.3381696428578, 94.04152621160861 282.3381696428578, 0 282.3381696428578 M0 282.3381696428578 C0 176.93083258814542, 0 71.52349553343305, 0 0 M0 282.3381696428578 C0 186.79265044842697, 0 91.24713125399617, 0 0" stroke="#000000" stroke-width="1" fill="none"></path></g><g stroke-opacity="0.8" fill-opacity="0.8" transform="translate(511.45982142857156 426.94587053571195) rotate(0 74 43)"><text x="74" y="35" font-family="Cascadia, Segoe UI Emoji" font-size="36px" fill="#000000" text-anchor="middle" style="white-space: pre;" direction="ltr">Product</text><text x="74" y="78" font-family="Cascadia, Segoe UI Emoji" font-size="36px" fill="#000000" text-anchor="middle" style="white-space: pre;" direction="ltr">page</text></g><g stroke-opacity="0.8" fill-opacity="0.8" transform="translate(458.05580357142935 546.4369419642862) rotate(0 122 28.5)"><text x="0" y="15" font-family="Cascadia, Segoe UI Emoji" font-size="16px" fill="#000000" text-anchor="start" style="white-space: pre;" direction="ltr">- fetch dettaglio prodotto</text><text x="0" y="34" font-family="Cascadia, Segoe UI Emoji" font-size="16px" fill="#000000" text-anchor="start" style="white-space: pre;" direction="ltr">- aggiungere o togliere il</text><text x="0" y="53" font-family="Cascadia, Segoe UI Emoji" font-size="16px" fill="#000000" text-anchor="start" style="white-space: pre;" direction="ltr">  prodotto dal carrello</text></g><g><g stroke-opacity="0.8" fill-opacity="0.8" transform="translate(311.0038485705836 284.84893514682244) rotate(0 58.43162077113266 144.21586716066622)"><path d="M0 0 C19.477206923710884 48.07195572022207, 97.38603461855443 240.35977860111038, 116.86324154226531 288.43173432133244 M0 0 C19.477206923710884 48.07195572022207, 97.38603461855443 240.35977860111038, 116.86324154226531 288.43173432133244" stroke="#000000" stroke-width="1" fill="none"></path></g><g stroke-opacity="0.8" fill-opacity="0.8" transform="translate(311.0038485705836 284.84893514682244) rotate(0 58.43162077113266 144.21586716066622)"><path d="M96.76746318027807 266.15709196672026 C101.09819550817623 270.9573794698886, 105.42892783607441 275.757666973057, 116.86324154226531 288.43173432133244 M96.76746318027807 266.15709196672026 C104.67339463816077 274.9202158692771, 112.57932609604347 283.6833397718339, 116.86324154226531 288.43173432133244" stroke="#000000" stroke-width="1" fill="none"></path></g><g stroke-opacity="0.8" fill-opacity="0.8" transform="translate(311.0038485705836 284.84893514682244) rotate(0 58.43162077113266 144.21586716066622)"><path d="M115.7868463136581 258.4510509850269 C116.01881441811045 264.9120256334444, 116.25078252256279 271.3730002818619, 116.86324154226531 288.43173432133244 M115.7868463136581 258.4510509850269 C116.21031370793717 270.24582813910166, 116.63378110221626 282.0406052931765, 116.86324154226531 288.43173432133244" stroke="#000000" stroke-width="1" fill="none"></path></g></g><g stroke-opacity="0.8" fill-opacity="0.8" transform="translate(15.239955357143344 397.90178571428623) rotate(0 142.51395089285722 85.34598214285688)"><path d="M0 0 L285.0279017857143 0 L285.0279017857143 170.69196428571357 L0 170.69196428571357" stroke="none" stroke-width="0" fill="#ced4da"></path><path d="M0 0 C82.20237432667845 0, 164.4047486533569 0, 285.0279017857143 0 M0 0 C75.24090188510723 0, 150.48180377021447 0, 285.0279017857143 0 M285.0279017857143 0 C285.0279017857143 39.24963386254535, 285.0279017857143 78.4992677250907, 285.0279017857143 170.69196428571357 M285.0279017857143 0 C285.0279017857143 46.62595252781655, 285.0279017857143 93.2519050556331, 285.0279017857143 170.69196428571357 M285.0279017857143 170.69196428571357 C189.25777599566624 170.69196428571357, 93.48765020561817 170.69196428571357, 0 170.69196428571357 M285.0279017857143 170.69196428571357 C224.51282943630315 170.69196428571357, 163.99775708689202 170.69196428571357, 0 170.69196428571357 M0 170.69196428571357 C0 116.03025214848824, 0 61.36854001126292, 0 0 M0 170.69196428571357 C0 117.082778719561, 0 63.473593153408444, 0 0" stroke="#000000" stroke-width="1" fill="none"></path></g><g stroke-opacity="0.8" fill-opacity="0.8" transform="translate(128.10379464285757 415.35825892857156) rotate(0 35.000000000000114 12)"><text x="35" y="19" font-family="Cascadia, Segoe UI Emoji" font-size="20px" fill="#000000" text-anchor="middle" style="white-space: pre;" direction="ltr">Header</text></g><g stroke-opacity="0.8" fill-opacity="0.8" transform="translate(13.90066964285711 580.7952008928569) rotate(0 143.11941964285722 101.12444196428532)"><path d="M0 0 L286.2388392857147 0 L286.2388392857147 202.24888392857048 L0 202.24888392857048" stroke="none" stroke-width="0" fill="#ced4da"></path><path d="M0 0 C63.85329396113446 0, 127.70658792226892 0, 286.2388392857147 0 M0 0 C95.19928943204093 0, 190.39857886408186 0, 286.2388392857147 0 M286.2388392857147 0 C286.2388392857147 43.26956958197511, 286.2388392857147 86.53913916395022, 286.2388392857147 202.24888392857048 M286.2388392857147 0 C286.2388392857147 78.73601541644649, 286.2388392857147 157.47203083289298, 286.2388392857147 202.24888392857048 M286.2388392857147 202.24888392857048 C225.93749547887407 202.24888392857048, 165.63615167203346 202.24888392857048, 0 202.24888392857048 M286.2388392857147 202.24888392857048 C208.28409440897383 202.24888392857048, 130.32934953223298 202.24888392857048, 0 202.24888392857048 M0 202.24888392857048 C0 159.59495216774073, 0 116.94102040691097, 0 0 M0 202.24888392857048 C0 149.3407877511691, 0 96.43269157376776, 0 0" stroke="#000000" stroke-width="1" fill="none"></path></g><g stroke-opacity="0.8" fill-opacity="0.8" transform="translate(79.42075892857156 604.3286830357129) rotate(0 88 12)"><text x="0" y="19" font-family="Cascadia, Segoe UI Emoji" font-size="20px" fill="#000000" text-anchor="start" style="white-space: pre;" direction="ltr">Modale Carrello</text></g><g stroke-opacity="0.8" fill-opacity="0.8" transform="translate(34.87053571428669 462.11383928571195) rotate(0 122 38)"><text x="0" y="15" font-family="Cascadia, Segoe UI Emoji" font-size="16px" fill="#000000" text-anchor="start" style="white-space: pre;" direction="ltr">- &lt;Link&gt; alla Homepage</text><text x="0" y="34" font-family="Cascadia, Segoe UI Emoji" font-size="16px" fill="#000000" text-anchor="start" style="white-space: pre;" direction="ltr">- Apertura Modale Carrello</text><text x="0" y="53" font-family="Cascadia, Segoe UI Emoji" font-size="16px" fill="#000000" text-anchor="start" style="white-space: pre;" direction="ltr">- totale Carrello</text><text x="0" y="72" font-family="Cascadia, Segoe UI Emoji" font-size="16px" fill="#000000" text-anchor="start" style="white-space: pre;" direction="ltr">- Numero prodotti</text></g><g stroke-opacity="0.8" fill-opacity="0.8" transform="translate(27.351562500000455 657.502232142856) rotate(0 131.5 38)"><text x="0" y="15" font-family="Cascadia, Segoe UI Emoji" font-size="16px" fill="#000000" text-anchor="start" style="white-space: pre;" direction="ltr">- Elenco prodotti a carrello</text><text x="0" y="34" font-family="Cascadia, Segoe UI Emoji" font-size="16px" fill="#000000" text-anchor="start" style="white-space: pre;" direction="ltr">- Totale spesa</text><text x="0" y="53" font-family="Cascadia, Segoe UI Emoji" font-size="16px" fill="#000000" text-anchor="start" style="white-space: pre;" direction="ltr">- Rimozione prodotto</text><text x="0" y="72" font-family="Cascadia, Segoe UI Emoji" font-size="16px" fill="#000000" text-anchor="start" style="white-space: pre;" direction="ltr">- Modifica quantità prodotto</text></g><g transform="translate(570.0859375000009 805.330357142856) rotate(0 84 10)"><text x="168" y="14" font-family="Virgil, Segoe UI Emoji" font-size="16px" fill="#adb5bd" text-anchor="end" style="white-space: pre;" direction="ltr">Made with Excalidraw</text></g></svg>