<svg version="1.1" xmlns="http://www.w3.org/2000/svg" viewBox="0 0 1365.3470051677077 1085.5048466435187" width="2730.6940103354154" height="2171.0096932870374">
  <!-- svg-source:excalidraw -->

  <defs>
    <style>
      @font-face {
        font-family: "Virgil";
        src: url("https://excalidraw.com/Virgil.woff2");
      }
      @font-face {
        font-family: "Cascadia";
        src: url("https://excalidraw.com/Cascadia.woff2");
      }
    </style>
  </defs>
  <rect x="0" y="0" width="1365.3470051677077" height="1085.5048466435187" fill="#ffffff"></rect><g transform="translate(10 10) rotate(0 672.2408057684561 519.7524233217594)"><path d="M0.285925304889679 0.3003923296928406 C368.25577185264757 2.469390765190342, 737.3459431074367 1.7376101408006932, 1345.209784232549 -0.7758089184761048 M0.1700304925441742 0.3419055998325348 C492.1544293633135 0.26503573817172776, 983.8711463493172 0.2394312993899895, 1344.3424537588878 0.31489697098731995 M1344.8453768839163 -0.6829347729682923 C1343.9022291093454 414.2563153200074, 1342.872565641938 827.4125453934518, 1345.1184958566946 1040.1478468528503 M1344.8464591910167 0.3611112654209137 C1344.0892559859788 294.2469498287649, 1344.326393017534 587.9521304331245, 1344.417440598182 1039.5094631961101 M1343.8473502268118 1039.077146779608 C1059.5546611787565 1043.1860466821981, 775.8112030877326 1042.725872503121, -0.48456763029098515 1039.3407648673765 M1344.225596420936 1039.7991833499186 C1006.8457607803864 1039.1005995428882, 669.277540130071 1039.3546215689503, 0.21915940642356874 1039.3485541156047 M0.009423458576202394 1039.9846155753844 C2.6022011884790204 831.3842781617121, 1.6513219007592936 621.9095144785085, 0.3938949704170227 -0.6958829998970032 M0.12052811980247498 1039.1177176287883 C-0.7809145161490761 801.5674994650985, -1.2392242619376503 563.6885764674244, 0.26766919493675234 -0.14029120802879333" stroke="#000000" stroke-width="1" fill="none"></path></g><g transform="translate(34.538235170400185 31.505650326119905) rotate(0 647.845595741388 48.27674860607232)"><path d="M-0.2893073916435242 -0.35710202455520634 C438.08749208697003 -3.203147725689038, 875.2463350226147 -2.002140264141186, 1295.6500640990669 0.3400609850883484 M-0.18729334473609927 -0.03704375624656677 C499.3192181722206 0.4631151997448534, 999.3084384294117 0.04865578049436506, 1295.3122513713772 0.1818826735019684 M1294.2559679331714 0.3240370452404022 C1297.8332431263757 22.331082099738342, 1295.8987939305139 41.25753023040816, 1293.920393783086 98.37773548266578 M1296.2887668939763 -0.43732593953609467 C1295.5353338510652 37.69422943489475, 1294.809786537375 74.48253834936466, 1296.2298007341558 95.76067057451893 M1295.474422085517 96.8779221346109 C975.7701346910826 101.47240615957809, 656.4267970036792 101.98720756643844, -0.012705600261688233 96.04146698019196 M1295.6131308498318 96.48868436715294 C811.8606239912604 92.26608934461237, 327.1951227479233 92.22266264020563, 0.1529366433620453 96.55820894143272 M-1.0619229972362518 96.46849762103248 C0.3497653136092117 60.05731952058776, -2.055692183033855 27.462028871314914, 0.876977950334549 0.6026405990123749 M-0.9074494987726212 97.05874195894886 C0.4390619947835287 76.58138508955854, -0.22236788726603185 57.07816457270727, -0.1178133636713028 -0.9688777774572372" stroke="#000000" stroke-width="1" fill="none"></path></g><g transform="translate(63.368759555614815 57.20018322883976) rotate(0 38.140623195340595 20.90673580128157)"><path d="M-0.8927550613880157 1.8204317390918732 C15.587491945538794 1.5950997051782423, 36.11702484113748 0.17304064603517583, 77.13139885340162 1.709527999162674 M-0.09260939061641693 -0.34789444506168365 C26.059400835256316 1.3363905667315457, 50.29541069491811 -0.5901760340680149, 76.73595307443567 -0.8536684662103653 M76.60528343592115 1.5922107994556427 C78.21010959359262 14.582944646955667, 76.41297614785287 28.079568387033817, 78.10548466120191 43.61902792966773 M75.84392045114465 -0.16042734682559967 C76.48452284438744 11.677856435203358, 75.59014370544091 25.666271442818253, 75.48841975305506 41.27884677267482 M77.09230869684644 40.6020525268357 C59.66252459767131 40.62823821430507, 44.74101076216804 41.575014604380755, -1.280075579881668 43.28515513456275 M76.11921427820154 42.361370118622084 C54.395325049980016 40.67307019575166, 32.791568268047556 42.04694915159273, 0.01177932322025299 42.41318276739528 M-0.08499959111213684 42.79820902860572 C-2.0847196960066308 25.098898893829258, 0.07645984653487331 12.102744276630922, 0.6026405990123749 -1.9356450736522675 M0.5052447468042374 42.48264458990504 C-0.4258217316545847 28.28065422667833, -0.3076581459917429 14.61453727653755, -0.9688777774572372 -0.6991956382989883" stroke="#000000" stroke-width="1" fill="none"></path></g><g><g transform="translate(78.3641943735065 132.77987444173175) rotate(0 23.86825481678261 -53.67458938906117)"><path d="M-0.5356530368328094 -42.130597535942805 C1.429499797075544 -44.09848894816857, 7.976698834173768 -55.24246176428929, 12.352934903201783 -55.46416614021782 C16.7291709722298 -55.68587051614635, 24.228377700352194 -44.018816339785516, 25.72176337733528 -43.460823791514 C27.215149054318363 -42.90283124324249, 20.104568371353224 -48.505182207762246, 21.3132489651003 -52.11621085058873 C22.521929558847376 -55.72723949341521, 28.666903081971764 -66.60185077065846, 32.97384693981774 -65.12699564847289 C37.28079079766371 -63.65214052628731, 44.767333466760704 -47.08636973625852, 47.154912112176156 -43.26708011747531 M1.3839903894905001 -42.60276548346796 C3.6501204478084337 -44.86905742084642, 10.46945349242018 -57.24235355169348, 14.453939916274646 -57.171180100037276 C18.438426340129112 -57.10000664838107, 24.061907912480727 -42.681946683276735, 25.290908932617292 -42.1757247735307 C26.519909952753856 -41.66950286378467, 20.75975770708129 -50.370757278376246, 21.827946037094026 -54.133848641561094 C22.89613436710676 -57.89694000474594, 27.292669473809738 -66.38235036003647, 31.70003891269371 -64.75427295263981 C36.10740835157768 -63.12619554524316, 45.60165460063693 -47.98091639727226, 48.27216267039787 -44.365384197181164" stroke="#000000" stroke-width="1" fill="none"></path></g></g><g transform="translate(515.4459187224338 68.4725323471639) rotate(0 69.44019015569211 9.527181646151831)"><path d="M0 0 C0 0, 0 0, 0 0 M0 0 C0 0, 0 0, 0 0 M-0.4529124863119671 6.24151152228295 C1.970553039604975 4.069462208386905, 2.411580500451474 1.8659410006950845, 5.600046974005646 0.006836665779095308 M-0.5976079411478588 6.447211138953559 C1.629265793783448 4.938999594645018, 2.6298703473227616 3.021402202611651, 4.604409861149734 0.4077619980869108 M0.5023786791693079 11.301400775134146 C2.6679621548843047 5.90890856322746, 8.547993890563449 4.245221503719236, 11.057882560742033 0.34770047618893396 M0.2097769388090478 11.922791845023214 C4.025085760062521 7.387295121791906, 8.580785419317554 3.461994837195308, 10.819684125435483 -0.12897020624133337 M0.6608316124835749 19.163083075453216 C5.389680046058862 12.946309443149438, 9.03112318839965 10.831835767700356, 15.942795969083388 1.7421889609587362 M-0.7224381296476583 19.34936065869468 C3.5573645832347447 14.174590614749238, 7.961756332315845 9.03159453348304, 16.47865035338648 -0.030826344441158504 M1.4913717079718314 22.443680771310262 C9.76377490567981 15.738780877549313, 15.118152803404783 8.425066469221068, 21.981037756705547 0.47077572850282223 M2.3773733395893775 20.628440581877165 C6.8805069877241385 15.408905162726578, 11.877230390778909 10.053955643780743, 20.964920228624607 -0.5384222665638205 M8.839618919728485 21.824193915952122 C12.029235129083325 15.557761054848692, 17.218321202570593 8.613375411539867, 27.751617732134076 0.2761240782228054 M7.378848834274498 20.991398966539776 C14.593328704399493 15.398739882544463, 18.693342664779653 7.928009741561038, 27.06699691959879 0.9448821874347271 M12.427634877272519 21.70173698232433 C18.272178284446866 14.57224138210548, 24.453280326393553 8.55967412258844, 33.319583640849984 -1.6822398378268595 M13.398092952676686 20.68349481687805 C18.85290000558045 14.3741409816237, 24.02510936310542 8.527558135663323, 31.91584614054004 0.5048827008589392 M16.946231210122924 23.00467444337244 C23.893534007867302 13.019254834551583, 30.261270953333657 4.793608572788852, 38.09449711237227 0.30529845329937544 M19.316835293064933 20.434362137087536 C24.69178753131278 13.411102171200366, 31.53416256503988 4.548472929180473, 36.28382248971735 1.2305882779043635 M23.67920566376071 21.1737824511509 C29.680391264463935 13.504800015632682, 34.36222389075147 7.935442172045651, 41.07890589218192 -0.5392348963440412 M24.906666569670247 21.939171610472684 C28.5797365478833 15.744825031183504, 32.60578398772235 9.94478676113189, 42.333141681361724 0.6765446018754488 M28.254869867704862 21.199925478605255 C33.197441317740314 14.07293576769018, 38.41554670955035 10.255809669620904, 46.619871609797954 -0.44372541381155983 M30.080566380761617 21.396307241229042 C33.84936537830954 16.99541626411868, 36.89970015013173 11.852741577253784, 46.86740831374216 0.40051067696774467 M32.23846253844589 21.34108925801274 C39.43835393662447 15.451083449403347, 50.15928331766442 3.8109940789099177, 52.65744201070136 -2.123646947048723 M33.98531641157955 21.72439929288384 C39.825493983576685 17.32075310969019, 44.35325075706497 10.74578448687554, 53.08008810108966 -0.5742178135142915 M40.1639723924743 20.386509521650577 C43.904983827128284 16.899685623318728, 47.1698549042246 9.314140848411633, 56.47617872441114 0.255614976890012 M39.53332334736455 20.326453028964306 C47.117988830557444 12.720181171443695, 53.76766633819874 5.0473941350884335, 57.80603564167322 -0.2211318653751171 M44.565961059309075 20.92080074246431 C50.958657337433124 14.234610622463494, 56.83736065541495 4.6806062441627745, 62.9536294964083 0.04108651005909536 M43.934441786385605 20.853977453665976 C52.08685943423573 13.388099067318743, 58.885272577090035 4.8330947441030006, 63.26996664972384 -0.048185795310281776 M49.57197628443124 21.040989072508392 C57.87907247074229 15.606165332306173, 64.37102745693888 5.6802467111953945, 70.31185595621183 1.1298821254040732 M49.788387442873734 21.42401825029331 C56.60841013028 15.34477110021193, 61.34570357241273 7.1900492012776756, 68.33798572351053 0.4398794008757605 M56.65407969735976 21.39418898472838 C59.242952703340194 15.924424993121338, 64.12775852398991 9.961914735233135, 74.36590584930273 0.9315279749794172 M56.336264915097914 22.156834423041865 C61.914011614092274 13.462728712371746, 69.24863073003208 4.109906031975665, 74.26605857726427 -0.7961405935125185 M60.87731904357568 20.139926631178714 C64.0860843117856 16.536542878844102, 70.40681204902067 11.454103154915828, 78.27534080520002 1.405638531730645 M61.209039917289175 20.638221655216075 C67.17448331848013 14.312500386185762, 73.82103702381893 7.64506761230647, 79.95153980925409 -0.7922367742796013 M64.65125595259795 19.987816484804945 C74.94152650523334 14.37686801983286, 81.28093097649449 5.805860436213958, 84.79270856938467 0.024239947712231924 M65.67906704771647 21.457188951011496 C70.362467318248 16.079703910227202, 75.96633405809688 11.479511879742754, 85.68164513371096 -0.1188634581210124 M69.9784381699076 23.15988469766153 C76.08700282913404 17.790056924418067, 81.41452634715071 13.056965450664494, 90.01507077137569 0.8094466958697097 M72.40856202061084 21.66828199373258 C75.32804241533236 16.578437614277213, 81.23176939764717 10.269608458460404, 90.38497914890388 0.6567383591587799 M76.20592732502364 22.42824574269401 C82.14704417038902 16.859616025436644, 84.43964197771595 9.114132476379694, 95.63247515665412 1.2957849282575467 M76.70112943424128 22.329259787574877 C81.76345269548204 16.59995697579091, 86.16660032929454 10.840925146550713, 95.3800075690639 0.43286436086424374 M84.27377116342706 20.07742577195685 C89.37493346265298 13.844472590823422, 96.57499017459901 5.213065922181869, 98.67948335473889 -0.4321308821787184 M82.25023500283879 21.963418015842844 C88.66671157479601 14.969124909088567, 93.59041333731237 8.86785377737622, 101.62658499245995 -0.8889764488090819 M86.46653131463682 22.94203925839558 C91.13277909433421 17.420067254676553, 95.42861809743505 13.134399634788164, 107.78364311111105 1.2227254166153685 M86.39073332467234 22.097265682732015 C93.04949761625674 13.867492988153039, 101.29816586915526 6.50071146668396, 105.47442713332308 -0.941738386556743 M94.66175552413398 21.36911235406466 C99.26191678857352 14.821295347695898, 103.99933868660092 6.214827833387913, 112.91701605528958 -1.5925317024146537 M93.84734011397296 20.722848471546847 C97.91027074045343 15.618500306963673, 102.22453483086544 9.532425523083223, 111.91463858992226 0.6448375518167992 M98.08150542143753 20.255759531909654 C100.64857742906325 17.789422107960288, 105.46441389756163 11.549673025164154, 116.98859090376499 1.5363334930084633 M97.98615996900966 21.835425386482903 C106.1202786633209 12.129974492333572, 113.23806679137827 5.390440047073671, 115.67212604749801 0.46125662983879323 M103.54082875202843 22.011506943984983 C108.93913079092577 11.190868047447458, 119.15887745352471 5.496094177080295, 120.87610637302777 -1.4451932648380819 M102.56315860401341 20.89579211084461 C108.97747681429554 14.368940665110056, 114.5492966291662 8.139933878135276, 121.73742119129082 -0.9176008889635625 M109.1992871454257 21.59596906323622 C114.96063958953363 16.294210438334602, 119.95401410770366 9.261383960111502, 128.4578740925969 2.203752496991278 M108.9756906172532 22.367957648827534 C113.93236976968329 15.867145560301307, 119.08681573813476 7.8806605687999465, 127.89850361956968 0.8316489996052994 M112.80942834711036 21.481172041717805 C117.74275802775871 16.92625448334328, 123.10736625301035 12.144253128496544, 134.20519180795344 1.736446930550997 M114.01097172296008 21.181467683736123 C118.90924248793631 16.73761180871148, 123.29491482771049 11.222821997713476, 131.83321404656562 -0.0020730211501671647 M117.4683139866014 22.689230352375283 C124.50111136920708 15.553992077511168, 130.7949433241424 7.692064115435235, 136.93387114861636 1.9562545087865857 M119.09760651940303 22.269081219765916 C122.93643670234961 16.946849194881512, 125.86716936199123 12.936752092145653, 138.36078207054763 0.3733670529655484 M123.8659918093798 19.75467014726312 C131.44250606686208 14.923133854507602, 137.79546671178645 7.531096491015358, 142.0845327730951 0.44308012442087374 M124.05406072081303 22.02909394022138 C128.95330845378766 16.53343971884072, 133.39827127693906 10.101795763181347, 141.22212131877515 2.979768645925276 M128.21287569899766 19.926260330550733 C134.5083994084375 16.142169393716678, 139.11006347798738 11.91791499211616, 142.63944720443885 6.9176358243154965 M130.28572463144272 21.81707838552481 C132.47886174038098 18.271979797681563, 135.75770272475643 14.554612468587717, 141.61094797518652 7.831340584688135 M134.61527171965824 21.143830095929488 C138.378679184679 18.587634800952273, 140.3668579387352 16.988872432678654, 141.0096228410312 13.64592806009703 M135.1538093135892 21.29202673728524 C137.05135104739668 19.31101314367954, 137.56963139610434 18.57578675586974, 141.0005587112912 14.411321380568078" stroke="#c8c8c8" stroke-width="0.5" fill="none"></path><path d="M-1.9395222961902618 1.3192405998706818 C37.70472037880113 -1.3669297205523503, 74.13360050496439 0.4454167378827083, 139.50642789281807 -0.057196587324142456 M0.7872424274682999 0.9792163223028183 C34.912365236072084 -0.46419315011289775, 70.77724939721493 -0.3705113378265208, 139.44984787084064 0.7685625404119492 M140.41187525958756 -0.3260567368849332 C138.7305851794947 2.6618743073461735, 140.64923684619637 10.418077193467372, 138.88939842201236 19.928098378651207 M138.89137599516295 -0.8440841524621583 C137.95595507014502 7.368093703066826, 138.04171029903637 13.200554984605766, 138.04659610958433 19.98874056228012 M138.47017587102852 18.075822901573748 C101.85619233615998 18.181387581881957, 61.7983306274633 19.684835114535765, -0.3642268478870392 17.460188937035173 M138.4896489915987 18.0628259448677 C99.42724073482293 20.197628443531823, 60.98447664308624 20.414997999958825, 0.6576376110315323 19.879485395398707 M-1.6574509361219503 17.70081747420918 C0.4096421364958108 15.18528045675285, 0.5822447108574037 7.8010477527842035, 0.45411285726146877 0.34220140223292184 M-0.3341449555620969 19.061740289366174 C-0.31783953067640447 14.954898614911729, -1.0193386274468554 10.413783415500783, -0.8313955375016454 0.005975508025085063" stroke="#495057" stroke-width="1" fill="none"></path></g><g transform="translate(694.2090849146616 68.8078228246984) rotate(0 69.44019015569211 9.527181646151831)"><path d="M0 0 C0 0, 0 0, 0 0 M0 0 C0 0, 0 0, 0 0 M-0.4177293188543866 6.968187867154471 C0.6583987696347042 4.213168569396683, 1.7043707291181571 3.881318630520563, 4.633744698347992 0.42968839517210067 M-0.21202970218377803 6.694384174098365 C1.9475613931531095 4.046917153358365, 3.694931835335829 1.9153101785400337, 5.034670030655808 0.6964042257365994 M-0.6063122979272498 10.479245347201406 C1.214400972055759 9.329083543858381, 6.774120874126526 6.495699335368333, 11.012285150540006 0.9151126141741637 M0.015078771961818838 12.047579962431966 C1.9892435641455326 10.329906735153726, 4.56882555440253 7.237925680005352, 10.535614468109738 -0.4553989772603153 M0.5961291612544795 19.911059795786315 C2.2665836951829696 15.66488646880089, 8.04957673348887 10.841649399208421, 17.033681667878707 -0.11424449021695349 M0.7824067444959422 17.71628044443267 C5.0862445539113805 12.709969146385937, 9.435557202576407 9.13991054089533, 15.260666362478812 0.6639485514652899 M4.2713290620405875 21.765119024236135 C9.778604823241691 15.162041593568151, 14.694767058018881 10.005130703084049, 21.799945077204967 -1.053956443986344 M2.4560888726074896 20.30593489917033 C6.834260976410777 15.85816987768148, 11.0659471646977 10.996819654140142, 20.790747082138324 -0.05037630589907138 M8.278750239251343 20.13211860381452 C14.789146058800252 12.32291395265502, 20.62581014600318 8.109368071407193, 26.232201459493847 0.5332274617639126 M7.445955289838997 22.287115520466244 C12.95648504532408 15.589782005809912, 16.562896655580396 12.023023463096669, 26.90095956870577 0.155917230435902 M14.193969947405728 20.461907382467 C18.14357961702214 15.6963071041626, 23.213304640338755 10.988979229406278, 30.311514185226358 -0.20293224591172887 M13.175727781959447 20.894339125015943 C18.21248316478629 14.79767149889541, 23.70468834556943 9.332808815451532, 32.498636723912156 0.38913265627466487 M20.123815441022735 20.173084208139134 C21.405199036977955 15.783779867120792, 24.458540616522434 13.779841638258693, 36.92596050892149 1.8749132809322795 M17.55350313473783 20.62774752951498 C24.534756416899356 13.46096205758519, 29.6876906632865 6.919890437240436, 37.85125033352648 0.540036788312765 M24.33060009058337 20.634159607885366 C30.337751189201978 11.567187714095127, 38.45304153958311 4.074554544500314, 42.11910380106025 -1.1459754306496137 M25.095989249905156 20.734269229767804 C28.805874176423476 14.732627714233848, 32.89083631106308 10.060298372851413, 43.33488329927974 -0.2538168776453489 M28.983651150606626 20.201232429651245 C34.188393009985 13.006528980847385, 42.72124667074731 6.1559995497405975, 46.84152131616163 -1.190749532711859 M29.180032913230413 21.745296042469963 C34.214092890590365 15.141194387350588, 38.497584810034134 10.004738828665136, 47.68575740694094 0.9295884750958727 M33.751722962583 19.935022780714004 C41.32460975600795 17.605610997101813, 43.167660325981245 9.048390243950923, 51.19927642470664 -1.2346484981999986 M34.135032997454104 22.69371604364869 C40.656594990127196 16.223361290108308, 44.98551739071929 9.01555846311679, 52.74870555824107 -0.7409436576591126 M38.83481986800302 20.865000768350864 C44.89852223564988 14.537643831778706, 46.875233427601295 9.443420382275582, 58.20544638121427 1.7346765208315098 M38.774763375316745 21.878042309331203 C45.87975457837979 13.897485026727551, 52.9106907550242 5.548184690910107, 57.728699538949144 0.6878535407852375 M43.99601912138564 21.25351524050737 C50.96183768860738 13.629847583470724, 55.0327238408298 7.148827373637017, 64.02859455616553 1.6794860514371166 M43.92919583258731 21.62654165621305 C51.81174076549916 13.341078154934479, 58.613383131558706 5.8497410549220366, 63.93932225079615 0.4160335662333736 M50.15388409321191 22.312826724237976 C59.65296279262633 13.865959549806297, 64.64979931827395 6.186463764152272, 69.74429820407941 0.5496289415623679 M50.53691327099683 21.514267580098686 C55.8286250636214 15.210720709907644, 59.02026269973468 10.41192267091896, 69.0542954795511 -0.5718867646191583 M55.133992038000784 21.242784067488238 C60.960819869988924 14.433221472230233, 66.2757230868226 6.98899087756252, 75.58362069543692 1.2448657182617353 M55.89663747631427 20.900736897683664 C59.7585391576907 15.885087032402552, 62.98606173731925 11.22428125008697, 73.85595212694498 -1.0446039559678866 M59.917406326233305 20.193147797312594 C65.7647295920002 16.95161423677526, 70.1409874743594 9.060957248006419, 80.68463928475705 0.6525452294807366 M60.415701350270666 21.392253104772426 C66.4701064401158 15.699465792141755, 72.1870369257711 9.1615337335486, 78.48676397874681 1.0136488088827065 M64.39220421242842 23.3012667616566 C74.53836939454973 14.047377641390014, 81.71814180745184 4.867339620439079, 85.34091734252081 -1.390071997726153 M65.86157667863498 21.379583018060522 C72.16614868470297 15.139747879334191, 79.22352210423765 7.795973985408722, 85.19781393668757 -1.1345749742629039 M73.60194906706718 21.654401487574706 C77.74969409553205 17.431884698947695, 82.55810906956734 9.816295550809086, 90.75303212324718 -1.0581371154134018 M72.11034636313823 20.50028013335241 C78.29915483538144 14.704577794472744, 83.29475338170968 7.235716251034523, 90.60032378653625 -0.4422584887091858 M77.49721814466857 22.32740082301246 C82.63806619142854 13.834462649071671, 85.62744541678826 9.337314058043866, 97.27704699741722 -1.5768895965265415 M77.39823218954943 22.17636126734363 C82.45032296295402 15.651383004383586, 87.44740155040587 8.445674365023763, 96.41412643002391 0.3844017613483288 M81.18407481571359 21.345025295024325 C87.08986508703305 16.595210359809517, 90.5955795923242 9.06045366065367, 100.17603921954984 -0.18398059312003312 M83.07006705959958 22.076629915838648 C86.07279736784585 17.242693399758203, 89.94846432732908 13.220651051271028, 99.71919365291947 -0.576327407394821 M88.6755963347212 20.71962375155583 C92.65887879852812 15.638263358519456, 97.86112987793837 13.226528266354046, 107.86857216012609 0.8328504218605772 M87.83082275905764 20.654352895532995 C94.59806506693936 14.011696242323348, 102.24165675244635 4.420507877649232, 105.70410835695398 0.0006075008658186221 M93.14034607217246 21.413456719661433 C99.75776675424949 12.821076407475584, 104.32694973939182 8.568001737923398, 109.68022307366498 -0.8265477036391715 M92.49408218965465 21.609583702231127 C100.14137437418691 12.592321392458496, 106.82756824799216 4.75697340985667, 111.91759232789643 -0.7752766971742133 M96.65390128258636 20.376373047286698 C105.96645667588588 12.929268604107548, 111.5135292911266 5.828886374598188, 117.43599630165698 2.242295137657969 M98.23356713715961 22.42683915262861 C101.72869158310405 16.660164319608192, 108.2075540811593 9.60172214178989, 116.36091943848731 1.2070330745123314 M104.44732533644387 19.50813326148605 C107.63390326409942 15.913756998037044, 115.92664774171678 6.519342915628782, 120.49214618559262 0.4125990530291972 M103.3316105033035 20.837422742529867 C110.86083119488109 12.309190190025088, 118.70665714141954 4.366109775462782, 121.01973856146714 -0.17582510804734852 M108.65869548826399 22.69608621020506 C115.04227155270391 15.849456220905978, 119.7170053991774 9.85332647278337, 128.76799997999086 0.29046289042008056 M109.4306840738553 21.357101288630467 C114.2876989696067 15.104951704795289, 117.68252671203255 10.663195616333994, 127.39589648260488 -0.5174594281576859 M114.58157510852774 20.77749242049817 C120.6666568225112 15.298999827275267, 126.52559967365636 8.79190327413144, 134.33837105533274 -1.568102823114927 M114.28187075054606 21.748428286734857 C120.60306375357996 15.108721142808156, 125.85730659584083 6.521761875760898, 132.59985110363158 0.3353086099857734 M120.41654145175414 20.57720074031092 C126.19530203053795 14.17030579482601, 131.25939042840136 7.73103592730927, 139.18508666613727 -1.619499239630315 M119.99639231914477 21.558420553538575 C125.28350800057987 13.50596312650531, 131.88362377835128 7.769182218416871, 137.60219921031623 0.8201208230785397 M123.51965788842415 21.86997169669778 C129.84736289352003 17.319921633094868, 133.6202960482731 11.561198262044481, 139.47728309591386 1.8939129085967465 M125.79408168138241 20.58088158484609 C131.32545582633097 13.981668536165646, 135.92000500762097 8.222105462140108, 142.01397161741826 2.385534447593443 M128.31815610428063 22.316703745000424 C132.3390682391629 19.250460510155342, 135.93609377350853 14.579624874490882, 140.70336656388443 6.3690356215166535 M130.20897415925472 21.39503539877421 C132.29934430640836 18.946529117073094, 134.23320735687102 15.20268582485679, 141.61707132425707 8.211523569159457 M135.57340251144157 21.87528026918827 C136.7348509875085 20.29948447372725, 138.85146324502864 17.551469933765937, 140.77241795852865 13.329044779223729 M135.72159915279732 21.375355152738674 C136.37447094629943 19.27819250266744, 138.27951482164804 17.776258912623348, 141.5378112789997 14.63001723719888" stroke="#c8c8c8" stroke-width="0.5" fill="none"></path><path d="M1.3192405998706818 1.062996357679367 C35.36198751161874 2.1969604333074306, 72.63913994094493 1.9728555520208098, 138.82318372405967 -0.9364667236804962 M0.9792163223028183 -0.24890612065792084 C39.43060107599706 -0.6386185934856237, 79.90223424277724 -0.5238577177837194, 139.64894285179577 -0.717611774802208 M138.55432357449888 -0.18066672978998777 C137.3450019920843 7.763009903611557, 140.752259436506 12.05906804402827, 139.75411539773137 20.193005190259903 M138.03629615892166 -0.8410955679481096 C139.36295471931896 4.127671915727441, 138.34046511521055 8.93224030776895, 139.81475758136028 18.79621311442727 M137.9018399206539 19.93116236909923 C91.55247014048845 17.489440969012172, 45.75977150290113 18.4052897010068, -1.5941743552684784 18.664060127583117 M137.88884296394787 18.555065211501688 C99.84891596675074 18.523493472610642, 60.65247957013955 19.16935176042192, 0.8251221030950546 18.523401793685526 M-1.3535458180944702 19.455907363355724 C0.7416950999340017 13.993181604463617, -1.9379419452331224 8.23781948305772, 0.34220140223292184 -1.729087241903238 M0.007376997062521484 18.832794931198606 C-0.2397495836661477 11.452275151023468, -0.7936430372892364 4.864926387992632, 0.005975508025085063 0.7228621650952418" stroke="#495057" stroke-width="1" fill="none"></path></g><g transform="translate(880.8287166145483 68.5258740140456) rotate(0 69.44019015569211 9.527181646151831)"><path d="M0 0 C0 0, 0 0, 0 0 M0 0 C0 0, 0 0, 0 0 M0.3089470260171344 5.962031160344474 C0.7888896473707867 3.7406176463906524, 3.690112906944353 2.2308389413489027, 5.056596427740997 0.7055179249343687 M0.03514333296102784 6.7839636490243596 C0.8523139192642883 5.129266356263347, 2.1787122528896337 3.2500913506536806, 5.323312258305497 0.1453751038608366 M-1.4284677258599892 10.614583605944691 C4.219607661805721 9.23418797416884, 8.188103151165485 3.665460217782514, 11.579697288525235 -1.5335747008130192 M0.13986688937057123 11.694795400321066 C3.743165678592221 8.867292507932016, 5.9736685890302805 5.447918488052731, 10.209185697090756 -0.6986048345372318 M1.3441058815875788 17.495326994825774 C6.423391581946467 13.587556052737778, 10.934955467391552 7.363801849169784, 15.177248216703017 -0.013366191934330196 M-0.8506734697660665 19.301257803012305 C4.918773173081108 12.568345466349474, 12.110405886455496 4.974663853848517, 15.95544125838526 0.14294885163428095 M3.5927673149664603 22.911026009042196 C9.650642208712412 14.831269946860992, 17.13535980261684 6.088329623398268, 20.2752129047158 -1.4006546685308692 M2.1335831899006568 20.634124957640104 C7.407107787033274 15.16530156185791, 12.252872775881093 9.688191357194441, 21.278793042803073 0.4161909422069314 M6.586674927113739 21.96472640954343 C11.920630410475765 14.699899629509568, 20.86353197838984 8.046172371126925, 26.489304843034954 -0.829345625451511 M8.741671843765465 21.82089010499803 C10.992477310403483 16.67794157976253, 16.360082761502326 13.46228855991845, 26.111994611706944 0.028477940150791525 M12.954140347548398 20.647292669275014 C19.71103171048847 14.043358088897891, 26.511100220365226 6.221026913412786, 31.79082177714149 -0.5461629106418009 M13.38657209009734 20.559937249281614 C18.189130434748677 15.231728985643587, 23.620109351598078 10.141175952894116, 32.38288667932788 -0.9812694712296839 M17.29222520578943 20.4808392611825 C23.73033707106919 12.21557614359528, 32.532250419899725 6.7452715500789076, 38.495575336554396 0.752257948843809 M17.746888527165275 21.534025394686413 C23.666769975183335 13.711161107709525, 30.234717209445485 8.167845362462204, 37.16069884393488 0.929082712261053 M23.790977247317837 20.499892337320333 C28.568260093937475 14.861518267507865, 34.91336972938922 6.594189810618234, 41.512363266754676 -1.1183068949402326 M23.891086869200276 20.891450224516873 C27.404280479574574 15.323968055506775, 32.267667507969264 11.898133352748092, 42.40452181975894 0.2672051739274508 M27.984958101652616 20.289066370634064 C34.722699967529735 14.84525779357336, 41.792422712518274 5.231078596328958, 46.09449719726133 -0.7919929690483762 M29.529021714471334 21.783720742968544 C33.09363097199128 15.812468427738033, 38.15192971964469 10.18954939804937, 48.214835205069065 0.043981917965059125 M32.345656485284266 23.700097093400924 C43.273528021811465 12.09489195808956, 47.94660869108939 3.5684908284937755, 52.08827487355536 -0.39052412142616433 M35.10434974821895 22.582592213568656 C39.255390504429826 16.474129874604586, 42.664994540045384 11.440120856442517, 52.58197971409625 -0.7641663723216645 M39.3133111147033 22.115970237898136 C44.36064706245038 12.517475684232975, 50.646587901509704 6.9993335820012135, 59.68450792515577 1.5144641208719456 M40.32635265568364 20.644194899844432 C45.103224567134234 15.365246625221829, 49.50487634859585 9.567681899698337, 58.6376849451095 0.32239430726282237 M44.328733619428704 21.715050277071242 C47.47295259460941 15.40267062894591, 51.75711741300989 13.01716061404539, 65.66699409754355 0.863747909900404 M44.701760035134384 22.073162805991416 C50.432051487156876 15.110527772922895, 56.932999212406735 7.605297184114416, 64.40354161233981 0.7488346400229702 M51.42572174494149 23.1881133629747 C56.11917730933306 15.453933138412683, 61.56859734334049 11.310652091113262, 69.16404502023771 -0.8518082813952432 M50.6271626008022 21.939666615314064 C53.493145546391695 16.06027469727625, 57.84704122728043 12.630964016820041, 68.04252931405618 0.46353863015432495 M54.98258712076064 20.776023968554064 C59.83249270111732 14.717759461325247, 64.0658848029865 12.64444439719494, 75.89695843871924 -1.6289283009605242 M54.64053995095607 21.81709033200793 C61.9715670149342 12.131514567459382, 69.68465494871892 4.1372761342475, 73.60748876448962 -0.6195730390386416 M59.970627492367186 21.232058245863772 C68.314016485086 13.943132047752957, 72.00620110052364 8.737777921081141, 79.93154598250715 0.08575232415007861 M61.16973279982702 21.244354639377452 C67.56941619425268 14.929377405645628, 73.12895578978973 7.124712071115303, 80.29264956190912 0.9166336366395882 M67.70565448928008 22.85958066784938 C72.07027812519367 16.88635352166481, 76.48924531668754 9.902336697400619, 83.92660539708243 0.3580097459910405 M65.783970745684 21.263593541618185 C70.89243043648816 17.347075013593606, 74.88734058264028 12.412336359876889, 84.18210242054568 -0.5451706595065104 M72.09646585698036 22.474367386565337 C80.77037496268215 13.91731465173463, 86.02801402723655 5.421645809500358, 88.88544831196407 0.8037084375078933 M70.94234450275806 21.882477722034583 C79.45076404452828 12.311775423815856, 86.30675427455007 5.082682300677497, 89.50132693866829 -0.11910192328140567 M77.39637322498702 22.442282874957193 C82.42674558983852 11.521575112217464, 91.44662551308593 6.085279258982659, 94.40437247263313 -0.44887544924489475 M77.24533366931819 21.61189118482219 C81.1595451817496 16.257918948834263, 84.39462933745041 12.912699345952115, 96.365663830508 -0.9537394713806293 M82.45167433878106 21.64160328507941 C88.05762201122923 14.704074576592042, 90.90605119408474 8.370245174563985, 100.42418950860852 -1.7213774413217848 M83.18327895959538 20.92825461328547 C86.99384564012075 15.973089432162176, 91.61525860878562 10.493327656645285, 100.03184269433373 -0.6944492996086424 M86.45318082788145 22.500693089877515 C90.87560099193387 18.03799165100041, 97.95607918476483 12.496625626948266, 107.4786971653713 1.176978613331677 M86.38790997185862 21.811202011619955 C94.59809692989212 14.60565877698101, 99.83444915336354 5.663284719959339, 106.64645424437654 -0.02106072466099107 M93.18469043776923 21.96032844140597 C97.7956084751365 13.267072030705746, 106.7699116919623 5.24658801196032, 110.44620707244046 1.98705718766103 M93.38081742033893 21.2059040631301 C99.64369405256107 12.730273296020313, 107.11414817744327 6.019236384283651, 110.49747807890542 0.8898102576578637 M96.7745147979634 22.511373812610337 C103.55103109302586 14.109637105305527, 110.6767035136668 8.890845841160303, 118.14195794630649 -0.28315598605647807 M98.82498090330532 20.560744772011468 C105.39603938076783 14.370182659772516, 110.6775646904468 6.126874038603038, 117.10669588316085 0.5817939108751702 M101.94395165394494 19.157105355545042 C109.32655240790753 16.644439556952367, 110.90901145411043 9.938982893460361, 122.3499385034599 1.9055748244563517 M103.27324113498875 21.289644821568487 C109.90416801043624 14.121583852679532, 117.09303389049833 4.70446465320469, 121.76151434238335 0.08289549851812694 M109.75881263523283 22.450887543155652 C116.44758202114167 13.375707099997882, 123.99602111031675 7.244501934147934, 126.85471037341966 -0.11213590785491334 M108.41982771365824 22.309738215996724 C115.08931321505978 12.308892494116664, 123.58135491820248 5.526453358951276, 126.0467880548419 0.6696240247823013 M113.87789548730811 21.458496527496614 C121.02653454099519 14.753574856045972, 127.1276620990536 10.00758589477404, 131.03382130166682 0.5107379690641807 M114.8488313535448 21.503695638600625 C120.92566011384096 14.065163942341158, 125.05061089618107 7.822130394345921, 132.93723273476752 0.08402517297214729 M118.30451183968978 22.795796781513467 C124.86203173653591 14.721903350323036, 131.36373735008888 8.4553332632314, 135.60933291772037 1.1713109281591443 M119.28573165291743 21.25740109357573 C124.05713102816986 14.993712920507122, 131.1423327696587 8.541096845363937, 138.04895298042922 0.07135794728317535 M125.63495943785881 21.59106445726068 C131.61507016903758 14.835927245480612, 136.3748848466406 7.219264105673242, 140.92811588008973 3.0432378621528073 M124.34586932600712 21.922275264226506 C129.1088089659676 15.126952460772511, 134.69279136377207 10.493015182973865, 141.41973741908643 2.1065467716882154 M130.70859951873032 20.610762646071972 C136.26450213793896 15.523114354858143, 140.20019922671202 9.958001626136728, 140.1547663610856 6.488646318547675 M129.78693117250413 21.358021960430207 C134.99116755306642 15.28637990132042, 138.90973820184243 10.799366274385982, 141.9972543087284 7.224366984300562 M136.30485268470036 20.906593643826824 C137.9466658124669 19.768919493814458, 138.4081378153974 16.701234389874937, 140.45553467765535 13.456193744224835 M135.80492756825078 20.721297505450828 C137.37314252927578 18.790583622136978, 139.53096719575666 16.114217143712676, 141.7565071356305 14.297712662649682" stroke="#c8c8c8" stroke-width="0.5" fill="none"></path><path d="M1.062996357679367 -0.10281845927238464 C55.155379168935674 0.793444818001382, 109.23650099386386 -0.9732797684854344, 137.94391358770332 -0.18521878123283386 M-0.24890612065792084 -0.9473502784967422 C37.28724949333162 -2.2136078186956656, 74.23455317861023 -0.5913768120733509, 138.1627685365816 0.1620185226202011 M138.69971358159384 -1.6870711343533156 C140.7715147431159 8.953423448297343, 139.04254791683275 15.340209362805453, 140.01902220934008 18.221066559396775 M138.0392847434357 0.5131428174194794 C138.12723910908286 4.901278106158631, 138.04879524634015 11.755627055671583, 138.62223013350743 19.44072018816302 M139.7571793881794 19.02259929164943 C104.34830773576175 19.846546516230145, 72.012159472016 16.78068862896208, -0.3903031647205353 18.730299067345232 M138.38108223058185 19.436704900708765 C89.61881011295833 18.277023618087313, 40.99131887912387 18.502434556350252, -0.5309614986181259 19.011863496747583 M0.40154407105207124 19.88987611555437 C0.7398917390258591 10.555752849529004, 0.6198579508736638 6.087592252820093, -1.729087241903238 0.9627116957135913 M-0.2215683611050453 18.942120360699587 C-0.856238466763077 11.396851398764571, -0.764566546389226 5.077587783704883, 0.7228621650952418 0.9295104459706154" stroke="#495057" stroke-width="1" fill="none"></path></g><g transform="translate(1109.1873518458942 46.10570330266165) rotate(0 96.39849925832505 30.07042018179439)"><path d="M2.144100831945775 5.838877397797634 C2.144100831945775 5.838877397797634, 2.144100831945775 5.838877397797634, 2.144100831945775 5.838877397797634 M2.144100831945775 5.838877397797634 C2.144100831945775 5.838877397797634, 2.144100831945775 5.838877397797634, 2.144100831945775 5.838877397797634 M0.2526462440643942 13.994702043882937 C4.978880115117084 9.845620242563635, 7.235260725530911 7.3399476397620775, 7.962175764299695 4.513095531137644 M1.5228200671528018 12.555316344402165 C3.1794170204562073 10.073619307950421, 6.186196365153032 7.905807249446379, 8.666276431984965 4.356425366820751 M1.589423183168659 17.354369852067745 C7.395121027870472 13.35259381030086, 8.546584364785748 8.475044394064213, 16.386480625646126 2.371922118943499 M2.0035287922279927 18.646224755169666 C6.330231414213841 14.83817175444971, 10.492861188926152 9.12032048303323, 16.668045055048477 1.768493799846934 M2.2367083100959793 25.634870048037676 C3.9225363080126243 20.48233052188729, 10.549620886052363 13.207092267976307, 22.70804975207563 2.97457843680313 M1.2419169960901275 24.063351671568064 C6.046767433099892 18.008635751645027, 12.140279422376478 13.441792781436037, 22.67320077892061 0.7797952707522189 M3.003706030466933 31.181870380581714 C12.398831935305493 19.40769264758198, 23.216873394691127 6.164222958758028, 27.54483928444877 2.401352078736865 M2.5751917435912084 30.368728602470256 C10.091500591901166 19.592179629868397, 19.368443150873954 10.251450885129614, 26.942676640181688 1.408350662411296 M0.40349359880050173 35.50771969764539 C8.18602301956309 28.59330716913112, 17.703980502898297 17.44217457944754, 33.19117647728452 0.883341892690245 M2.4583248205002164 36.265622364571776 C8.939187655684735 28.22746248658436, 14.886473822779795 22.364246902828164, 31.79081942460069 2.248051791519705 M-0.5514246434128012 43.82938810650595 C15.231210439785261 30.7097468233016, 25.643744825036926 17.707570608808634, 36.09687470106391 0.6015584057177321 M0.7988400995576654 44.458796033899866 C12.752409185349993 30.620815032267473, 23.92312982738633 16.7737290526134, 37.140587033908645 1.639577153881909 M0.026646616327024475 51.08730529466339 C16.471194738657445 33.4889688179019, 30.717684028199436 16.327160887529054, 42.61876121030592 2.7246004657648655 M1.8325774245135555 49.17334726670452 C11.386970807581658 39.412796714315206, 20.37708829556056 27.268879532686093, 42.77507625387453 2.2080685661934467 M5.180888806481999 53.1718126287266 C14.830034177652655 42.00599221978088, 24.043486580453028 28.49434168800056, 46.613090346501046 1.1256881801088667 M2.903987755079907 52.88116039834463 C14.165166880812093 40.527471420774106, 25.27490927425142 28.078785659487533, 48.42993595723885 2.0801641044815398 M5.581202094599593 55.73438769730947 C21.80354906290301 39.757947107268386, 38.71217962872019 19.054554262176225, 52.46736645113981 -0.35320834397301937 M5.437365790054191 56.6121309861841 C16.946477704346442 43.81211381895538, 30.221131254850757 28.887687397185708, 53.32519001674211 1.648126844773433 M8.333267909141831 59.602871867020895 C20.41476205983637 46.748501764669264, 31.40912401992388 31.14692017612241, 58.13216677874118 1.3627597414647319 M8.24591248914843 58.8693933655818 C23.178871810550103 42.83858788562325, 38.215020113308114 26.801020952801785, 57.6970602181533 2.333973603764651 M12.793722533618215 58.34740440558365 C22.69015998997063 48.23815877941025, 35.70271571468773 35.74230199752663, 64.7135546997862 2.298352963476596 M13.846908667122129 58.695254773010525 C32.8309627824015 37.26544543102139, 53.71536609711728 16.006037461454504, 64.89037946320344 1.8065078772596692 M18.850452251538222 57.506874580720506 C33.950652452991605 42.009353839629874, 46.45696695844019 26.58764853077439, 68.22460746879383 0.46592017000809705 M19.242010138734763 58.39764744494303 C36.90169491804411 37.61511018589525, 57.07157657818904 16.14308194821993, 69.61011953766152 2.5189964819540123 M23.266534317420856 58.343631240377015 C38.51398124862194 44.11151298443314, 49.56044138743071 28.717590500412935, 73.83388845624509 0.8277218881137074 M24.761188689755336 58.80483819807488 C44.358537097883534 35.82584957123245, 64.32103442133436 14.260367625567262, 74.66986334325853 2.171492913652152 M31.960532101747113 61.06993491160763 C38.797398319422165 47.33457818177976, 48.64157619569025 34.967673460384816, 79.61697491665896 0.33360696573896576 M30.843027221914845 59.99188052821053 C43.92874463648228 42.215304550876404, 58.09286190910517 25.309507539359778, 79.24333266576346 2.248513989049627 M35.75802285903599 57.88563444235788 C49.73744614093971 39.41052618703684, 67.61182244919618 24.033967293275573, 86.80493022051647 0.8833359299383261 M34.286247520982286 59.8182912520455 C49.1351121733727 42.8571996977707, 63.07069328190191 27.617732061331786, 85.61286040690734 0.4813632039508917 M39.984010930778 58.69519993990501 C52.98919293876054 42.29770710714647, 69.7729471991154 28.126055965415645, 91.53583162233662 2.3642576286573274 M40.34212345969817 59.14508344560703 C51.90795065115831 46.75192871722196, 62.60846835583946 35.219188566605894, 91.42091835245918 1.3858073750514848 M47.49475065846363 60.371851511526245 C58.193988800810864 45.956759766029485, 72.43655699921672 29.970238828925382, 94.44718346360986 0.3683421691732107 M46.24630391080299 58.598895184922355 C56.689415922873344 45.25219582191339, 69.63680740037476 31.24540827274646, 95.76253037515943 1.4791095783786474 M49.70956929661189 60.02168800516713 C67.15975912853773 38.80290154702156, 88.54585896253417 19.212443444075397, 99.70774008582674 3.456309658763196 M50.750635660065754 59.33611828668702 C69.25378964829122 37.13665242399159, 89.64829674266599 13.515758058640245, 100.71709534774863 2.0441578899595996 M56.20328021570377 60.700719947882114 C70.66423585226303 41.83894599958549, 86.99226455606747 26.719885770110395, 106.04932874350625 2.4217589453728294 M56.21557660921745 60.25993124670547 C72.66388026343854 41.71029950712713, 87.38377444417759 23.80557467302596, 106.88021005599576 1.8935941264898872 M62.45771067025827 60.45254618761674 C74.5934275545821 45.68674729702375, 85.40120291602238 31.34941110538692, 112.35926280712938 0.008200556056557673 M60.86172354402708 60.55797588167325 C75.15537219070538 45.10910063281398, 88.37082954821071 28.128001807007458, 111.45608240163183 2.5868467837739573 M68.11017403075641 61.270677251425475 C78.11549974811979 46.92612717557898, 88.56114960568338 33.40616893575363, 117.43186953121514 3.946733338759941 M67.51828436622566 60.16468068739483 C84.78275309157908 38.640551488487205, 104.56516131885115 16.244919236976074, 116.50905917042584 2.96780767850737 M72.70499755171717 58.13621198725386 C84.17146440464997 43.412704559392864, 101.28887719358303 26.026875289897383, 122.21696228624454 -0.08163217946257362 M71.87460586158217 60.29893748056574 C86.29600414530815 41.44509212274591, 103.0205325482647 24.67133644139436, 121.7120982641088 1.627155306494572 M77.94199460362155 59.980160922156344 C97.34344557015498 34.48294602726437, 117.13336177456677 13.325778751377712, 125.57136832673653 0.5917028493345597 M77.22864593182761 59.92642475699044 C91.54059347744165 42.936593473007306, 105.63279213940388 24.3520669045038, 126.59829646844967 1.4400314844311097 M83.42799244098856 58.72112290407847 C97.0437717627657 46.37026163837954, 109.85457505531897 30.98117898838566, 134.50740102317218 2.585248952205788 M82.738501362731 60.29728433336447 C93.59070867882043 47.09177941420282, 102.9232662634241 35.96980653264032, 133.3093616851795 2.0283647081214298 M88.2692454053087 58.982318040297486 C106.226762048522 39.186198874959544, 124.90118269339955 14.215645436081651, 139.94438763007042 3.5051049770966785 M87.51482102703282 60.16315428571508 C106.97381645531935 37.68427898299656, 128.0288244013781 13.434203628005967, 138.84714070006726 2.2985467942610995 M94.10325783807247 59.35571643809058 C108.28910116412436 43.01231279909783, 125.41394513555106 26.452894982237837, 142.30108248892182 3.6619910312844155 M92.1526287974736 60.541297690069456 C108.8984793115803 40.996852532463436, 123.71957819315423 24.760112838875173, 143.16603238585347 1.6584658188773034 M96.13060699379884 61.66616694540335 C113.40782693199485 42.04105322452452, 126.67089564478576 26.102950609928406, 150.5274899412168 3.33537722204629 M98.26314645982228 59.47873136312319 C109.13414568136616 48.33945611927183, 117.6699475740364 36.654970191390504, 148.70481061527857 2.7816348579973322 M104.70735624296884 60.68843008929021 C120.2613461346823 41.8314517506785, 138.78335326622354 21.11685338486142, 153.13668724147445 4.037612397327791 M104.56620691580991 59.2692588006807 C119.50621512986874 41.013144664117675, 138.01369889060277 19.428441593753547, 153.91844717411166 2.3713207283166753 M109.09658284010148 61.18485471769671 C120.42047816100364 48.33221246902749, 133.7834150090674 31.704896696609907, 159.79723776017573 2.2309570841834017 M109.14178195120549 60.991146819437546 C122.61544461543681 42.541024540617315, 137.32571160426443 27.184458514289453, 159.3705249640837 2.377576925639815 M115.71685015567775 58.86770135767732 C125.38513738409829 46.933791885619826, 137.1046362492043 33.26910310755263, 165.0847187518396 2.365260130558653 M114.17845446774001 58.969448915198186 C128.61639214222868 43.60804083251229, 143.18936959938597 26.4780046826005, 163.98476577096363 2.534920266662283 M119.89373544421662 61.43681885717757 C132.28029987143876 45.991316314036375, 143.53653648329734 30.139778814111857, 170.7301935869471 1.8402820635080133 M120.22494625118244 59.313681904658154 C129.9586051582109 47.21711963999124, 142.26473440798668 34.36536777876472, 169.79350249648252 2.8246542471885476 M124.10830207619912 61.54196774325193 C135.3044000432482 48.358834421605515, 145.60689906222882 33.43395997116811, 173.37173952001723 4.0433717309770145 M124.93859020326383 60.38014928362192 C141.53093092454452 39.30652891677994, 160.0871778787745 19.40442068715116, 174.18920692640933 2.0125456839141407 M129.74862730614427 61.820496863845946 C141.69345007479464 46.804992474544264, 149.41560762642783 33.61359320197889, 178.14686089254047 4.066499240242905 M129.33685810975317 59.309617868785026 C142.18434541407038 45.24184998539661, 153.65300603281824 33.344618073950386, 180.01690293348457 2.8658576528663104 M134.70221547554252 60.614376326236815 C150.9366978137548 41.15493357985073, 171.80810242046357 17.78113993172623, 185.72431204600736 1.9703846985828761 M135.8897738433909 61.244350736174674 C152.32317700735024 39.759596444831786, 169.85212973309845 20.07316870249624, 185.10598939044877 2.9174782300722484 M140.3878209258844 61.23432623770181 C155.8303791544511 41.692922142168094, 170.0256068282584 24.004877587174697, 189.36774314796537 6.3127556946108285 M140.0517362769176 60.09223596181813 C156.74126621009907 41.15332552935921, 173.93082889644296 21.463109020447313, 187.8338859960994 5.494177972895855 M146.7872709116889 61.22394544618644 C157.14968875517607 48.13890964318729, 168.2119246947256 32.666318456692494, 190.43264465586697 5.07299401471289 M145.79334219610223 61.29091536241092 C161.01027085001564 42.872047340875255, 176.77503495670823 24.017843943148556, 193.12297773913895 6.141256636473258 M150.03787880343705 58.07674447874517 C167.60331822503946 43.69997563189965, 183.54601843648675 22.817891393490576, 194.2451667372597 11.74632724750289 M151.69379950267583 59.02481743375749 C160.96442998223517 47.614244380786104, 171.20674831332852 37.14399163744608, 192.81943431836493 12.216734778168288 M158.1839718556478 62.27382218332355 C166.42342003339505 47.459909636021926, 178.5014666966818 34.2608326396094, 194.2551227626245 19.513765920035326 M157.19245498240733 60.762833992553404 C169.95866654810092 44.71407136881055, 183.59625271858508 28.521382622095107, 192.3462136355083 18.56129089378544 M161.42536343880218 58.24618908697603 C173.9467809250016 47.815718810083126, 182.43103753440974 33.70752008392749, 192.44357610244245 25.525070559364636 M161.33726653702777 59.7206435346031 C174.34251886435007 46.300039254775896, 185.1459857709026 32.79585704795488, 193.61064859230012 25.281228479129155 M167.8688808074192 61.412444037648164 C173.31570956784566 53.532358192329745, 177.21933686179995 46.312327187480655, 191.01072206921353 31.40817085299082 M167.03633095230617 59.398387876602136 C176.81106211529823 48.58602637513963, 186.72191639419367 38.55099614087558, 193.1923290324904 31.75789519044943 M173.12077830298932 59.89580714261717 C180.89534925856293 50.983022881314184, 189.2178732994802 39.948257490036994, 191.34406500442822 36.0050369081911 M171.15029710098298 60.797705094577736 C178.0699938725521 54.01181456576392, 184.67975216066327 45.87215065578599, 193.81127882881958 36.88355410377349 M179.31856026700308 59.788248509160276 C183.7676506555814 52.46258563041453, 187.96422789613578 47.93011147431339, 192.39418216260555 41.39051757291104 M178.02418885579874 61.18585826455712 C181.71708683556693 56.46238952682302, 184.855324733793 51.38784965166862, 193.20371976705673 42.58022203579689 M180.22541585786317 64.49412329807019 C182.2517757354105 60.06298678055189, 185.07717951291218 57.739612153429285, 191.68112802645132 47.53444955935205 M180.99619750155185 63.094845794281724 C183.8200857085452 58.40696927148863, 187.62206545542867 54.28074695701608, 191.633741077687 49.719045756659156" stroke="#12b886" stroke-width="0.5" fill="none"></path><path d="M14.51424019338857 0.26207736134529114 M13.763990867159475 0.9768509566783905 C55.14391184516887 -1.9392136370927633, 91.3773789657564 0.19684993865186562, 178.95647820622648 0.8703932464122772 M15.777048292777646 -0.7281570285558701 C52.83435441900859 0.06328095859271854, 92.71171364582547 -0.053311925471002164, 178.04904584378923 0.20282603800296783 M177.76178842575277 0 C186.20712963732453 1.9814253151416779, 194.17838572058176 5.953457689292467, 194.02835939917063 14.056370246431936 M179.57580902964796 0.58857062458992 C188.08286536874743 -0.17908316999673835, 191.673299604089 6.141528467841184, 191.52351103368497 16.920919887743104 M192.13394694122766 16.872612881682027 C194.04692433213785 23.869625514406945, 194.3473078999479 30.84756466080374, 193.97162108215784 45.31148990399154 M193.492153407068 14.856925460717786 C193.00307763265945 25.361805829559838, 192.97188151525833 36.094240519690956, 193.03186583611463 44.38600815243038 M192.79699851664995 45.10563027269157 C193.2985343793342 56.76673129804889, 189.70865837725373 60.41607080110593, 176.00305416972364 60.27956758150144 M194.44544790777658 45.40618934637817 C193.85302939954494 53.59585189082185, 185.5887921208379 59.752007351901966, 178.09189124048675 60.13381038763805 M177.9081984439584 59.498829168167546 C140.0315169294224 60.352603547418425, 98.16072530746452 57.850849740350554, 15.69184063675176 60.35391930946393 M178.43754271955217 59.476356354442075 C117.15673789002108 61.53466507508779, 54.27606428607592 61.507488694930316, 14.313329401633847 60.23808893271966 M15.035210090897191 60.140840363588765 C3.9170372843814256 61.9054955066113, 1.668408840894699 54.89226249464313, 0.5713610351085663 45.274155998294674 M14.47499744894277 62.116400581684545 C5.779374845333136 61.801900206592514, -1.5803183659911153 53.38125890948335, -1.9926191434264182 45.3869579360536 M-0.1631469428539276 45.8395517707518 C-1.0690750049695723 39.348054351186725, -2.0117334293470135 29.37263969529353, 1.0704012215137482 16.372573781035054 M0.656292662024498 45.008718857233845 C-0.18640108969390334 36.39047688490332, -0.7572090235012764 28.075961108861854, 0.014669641852378845 15.153491947076429 M0 15.035210090897191 C-1.6715255081653595 6.803932046897447, 4.073473250873125 1.0851936638355255, 14.202169346830953 0.2902431786060333 M-0.6166529953479767 16.57847164871465 C-0.9179652795195579 5.709729008383787, 2.798601157970465 0.1343971595168112, 13.630666108450997 0.6574233397841454" stroke="#495057" stroke-width="1" fill="none"></path></g><g transform="translate(1138.9995033660934 65.30246326760823) rotate(0 65.42919340493563 13.421373006140612)"><text x="0" y="18.842746012281214" font-family="Virgil, Segoe UI Emoji" font-size="21.00507178549753px" fill="#000000" text-anchor="start" style="white-space: pre;" direction="ltr">Get started</text></g><g transform="translate(69.85476699849278 175.32828964653754) rotate(0 606.0621327026715 144.48484111630245)"><path d="M0.6838111996650696 0.25041903257369996 C428.0385849457061 -2.4355675481883567, 856.0488396487783 -2.339296414765505, 1212.7540593473175 0.7833730578422546 M-0.34146738648414615 0.2277870237827301 C333.77418977203 -2.491688730006216, 666.9983369207786 -1.886201860194204, 1212.4457655100086 -0.06844767928123474 M1213.4814647821768 0.007115144478044976 C1210.8904310436844 84.84936657708393, 1209.543610348875 167.6608129642456, 1212.141616241221 287.63774454770197 M1211.7223989694571 -0.65784234676957 C1214.0314008934681 60.97589370081742, 1213.599021618101 121.90384075004562, 1211.9700943051487 288.6019079381759 M1212.7129388181427 288.8239914934501 C794.7098441981864 285.7103396228619, 378.44113678526145 286.3047797015972, -0.3125850558280945 288.17645235465613 M1212.3641498712757 289.2327372770175 C909.3381665660158 288.81440964717893, 605.8749701259903 289.2237417318347, -0.3479414999485016 288.6855382184848 M-1.4549843991549276 289.32796998508854 C-0.6824616211520489 194.8249233798204, -0.19288896341037087 104.4146156757364, -0.5272700088434772 0.011640664453098843 M-0.5255709114908521 288.31372450361044 C0.260619977434289 209.5695112747402, 0.9892742138549038 128.384920897681, 0.6917971876563742 -0.36403158259792573" stroke="#000000" stroke-width="1" fill="none"></path></g><g transform="translate(869.2850275892033 232.94062221477873) rotate(0 137.08003675401687 75.14025393261863)"><path d="M0.48604079792460175 -0.044405370719429925 C80.11154719319632 -1.9631453417577518, 161.13698703104055 -0.5969748064844032, 275.68053008912153 -0.3864834976783588 M0.44211410633752285 0.5966842800366522 C55.71833191297687 1.9428016754626216, 113.16898727089242 2.441019088560859, 274.02722272464086 -0.07361208608956148 M274.16953917265903 0.9170971214771271 C276.7259615992405 30.90368159869966, 275.2099560831883 63.57974971850032, 272.3881241870023 148.51483235030085 M273.28490996778976 0.9807488769292831 C272.69764786394563 53.58393069648371, 272.36290007265535 106.15169686662408, 273.6708033126689 150.7189074036351 M273.8773008993337 149.04284830285945 C192.04445517126933 151.59514061478404, 111.3856088341524 151.24003295683565, -1.539587781541256 149.50523376533823 M274.6706396673643 150.92110295300168 C181.01755172174535 151.5239858250487, 89.08172604844316 150.88165800836714, -0.5514979509705927 150.4441157235375 M0.4766497313976288 150.63969216017634 C-2.267724673944195 99.61721041113005, 0.8855202982848089 46.23147792966188, 0.015486210584640503 -0.4651288688182831 M-0.8726563304662704 150.28677992789656 C2.2147710698699186 107.94250123870309, 0.5995972531890104 64.57354908759555, -0.48429106175899506 0.7861578315496445" stroke="#000000" stroke-width="1" fill="none"></path></g><g><g transform="translate(923.4483803807052 335.4251873422026) rotate(0 85.23058456892113 -25.390599354344715)"><path d="M0.37562854886054997 13.474653494076838 C8.293594704218613 5.478349138595318, 33.12448763974544 -33.500714594103165, 48.017888409780895 -33.44313788692019 C62.91128917981635 -33.385561179737216, 85.08184025432443 11.98618127556037, 89.73603316907328 13.820113737174688 C94.39022608382213 15.654046198789008, 71.56181303334266 -9.378352548443079, 75.94304589827397 -22.439543117234276 C80.32427876320527 -35.50073368602547, 100.26843002708996 -70.69242078306618, 116.02343035866109 -64.54702967557249 C131.77843069023223 -58.40163856807879, 161.07366543153634 1.5269138606963342, 170.47304788770074 14.43280352772793 M-0.8863051923271269 12.411032623730634 C6.779842166932704 5.129621810479243, 31.83527816759024 -31.891144997687782, 46.774855928194334 -31.96405655178725 C61.71443368879843 -32.03696810588672, 84.35582882140292 10.228302721162175, 88.75116137129743 11.97356329913382 C93.14649392119193 13.718823877105466, 68.33611367812223 -8.85192839344062, 73.14685122756138 -21.492493083957374 C77.95758877700054 -34.133057774474125, 101.248816150831 -69.74384167905431, 117.61558666793232 -63.86982484396671 C133.98235718503364 -57.99580800887911, 162.6355951889172 0.6482323920959256, 171.3474743301693 13.751607926568223" stroke="#000000" stroke-width="1" fill="none"></path></g></g><g transform="translate(182.99461666682146 239.7418138808871) rotate(0 232.60936251687372 40.49125940108544)"><text x="0" y="56.98251880217089" font-family="Virgil, Segoe UI Emoji" font-size="65.0913015285557px" fill="#000000" text-anchor="start" style="white-space: pre;" direction="ltr">Edgemony Shop</text></g><g transform="translate(196.56852090725806 335.25761798884776) rotate(0 241.22452409157268 14.645774676988367)"><text x="0" y="20.291549353976713" font-family="Virgil, Segoe UI Emoji" font-size="23.123368837004747px" fill="#000000" text-anchor="start" style="white-space: pre;" direction="ltr">A fake e-commerce with a lot of potential</text></g><g stroke-opacity="0.8" fill-opacity="0.8" transform="translate(604.829799066516 623.4299939048028) rotate(0 51.3720703125 48.3154296875)"><path d="M10.592750330339392 22.803840092722304 C14.441580045325562 15.770069226601745, 21.523807877736324 7.587668512694746, 29.50401891480211 3.962762652724372 C37.484229951867896 0.3378567927539975, 49.14100350399748 -0.22401064189529651, 58.4740165527341 1.0544049329000558 C67.80702960147072 2.3328205076954083, 78.298472272272 6.161235499720856, 85.50209720722181 11.633256101496485 C92.70572214217162 17.105276703272114, 99.17125277274916 26.055553817843432, 101.69576616243299 33.88652854355383 C104.22027955211682 41.71750326926423, 102.78066656901312 50.554655366914545, 100.64917754532478 58.619104455758865 C98.51768852163643 66.68355354460319, 95.17022966759309 75.9812919244604, 88.90683202030289 82.27322307661977 C82.64343437301268 88.56515422877915, 72.30234386970768 94.64334127236528, 63.06879166158356 96.37069136871513 C53.83523945345944 98.09804146506498, 42.17166691434865 95.50483221995484, 33.50551877155816 92.63732365471887 C24.839370628767668 89.7698150894829, 16.403920864897714 85.394630497215, 11.071902804840605 79.16563997729929 C5.739884744783495 72.93664945738358, 2.633624426557369 63.61869466159142, 1.513410411215503 55.26338053522462 C0.3931963958736364 46.90806640885782, 2.2240340554647937 35.80749435603456, 4.350618712789405 29.0337552190985 C6.477203370114017 22.26001608216244, 11.724643636221904 17.709711655742787, 14.27291835516317 14.620945713608265 C16.821193074104436 11.532179771473745, 19.048964300461225 9.451768133550571, 19.640267026437 10.501159566291378" stroke="none" stroke-width="0" fill="#ffffff"></path><path d="M81.96301378647641 10.883991871673267 C89.3597242490599 14.96626501963775, 96.21891054158182 22.01456989060749, 99.61328006512622 29.919234333079576 C103.00764958867062 37.82389877555166, 104.22664521554888 50.04113418278093, 102.3292309277428 58.31197852650578 C100.43181663993671 66.58282287023064, 94.76821868752283 73.3589754940481, 88.22879433828969 79.5443003954287 C81.68936998905654 85.72962529680932, 71.43411909516026 93.13798524600368, 63.092684832343956 95.42392793478942 C54.751250569527656 97.70987062357516, 46.86230607020851 95.81072736689762, 38.1801887613919 93.25995652814316 C29.498071452575296 90.7091856893887, 17.07806350589192 86.3654564218728, 10.999980979444302 80.11930290226263 C4.921898452996687 73.87314938265246, 2.5540428229562573 64.4002828914173, 1.7116936027062124 55.783035410482114 C0.8693443824561674 47.16578792954692, 2.780628796540603 36.154358512209555, 5.945885657944032 28.415818016651464 C9.111142519347462 20.677277521093377, 13.74977685768005 14.14308671337384, 20.703234771126787 9.35179243713359 C27.656692684573525 4.5604981608933395, 38.145241639103034 0.3464761399605495, 47.66663313862445 -0.3319476407900339 C57.18802463814586 -1.0103714215406172, 70.95121742043781 2.7153984408676024, 77.83158376825529 5.281249752630089 C84.71195011607276 7.847101064392575, 86.47603018887784 12.79555306345, 88.94883122552923 15.063160229784884 C91.42163226218062 17.330767396119768, 93.1008012236533 18.525002702172973, 92.66838998816361 18.886892750639387" stroke="#2b8a3e" stroke-width="4.5" fill="none" stroke-dasharray="3 6"></path></g><g stroke-opacity="0.8" fill-opacity="0.8" transform="translate(536.773158441516 736.8499157798028) rotate(0 124.5 22.5)"><text x="0" y="32" font-family="Virgil, Segoe UI Emoji" font-size="36px" fill="#000000" text-anchor="start" style="white-space: pre;" direction="ltr">loading data...</text></g><g stroke-opacity="0.8" fill-opacity="0.8" transform="translate(11.91927079270772 931.5907081905189) rotate(0 671.7138671875 57.2417534722224)"><path d="M-1.0179396271705627 -0.9637431502342224 L1342.58212941885 -2.1968383193016052 L1339.8452233672142 111.09465011623209 L0.4920453429222107 114.0042551424772" stroke="none" stroke-width="0" fill="#c92a2a"></path><path d="M-0.4719146490097046 1.0079776525497437 C274.31920378884826 2.358316197487294, 547.7353466407687 2.873954167457997, 1343.4636543512345 -0.506827187538147 M0.005718028545379639 -0.7850440859794617 C313.9687349035259 -8.873781527428656, 629.2292005089752 -8.801308764367134, 1342.9260621905328 -0.21801642179489136 M1345.799013197422 0.00003713369369506836 C1342.9623751300194 21.574675918705584, 1341.4871534961082 51.89827710606122, 1343.4338951706886 115.87127563026255 M1344.8761982619762 -1.1997117698192596 C1344.9275739118134 26.608659283419794, 1342.8997580930268 51.61920929173697, 1342.4656023681164 115.40940266516512 M1344.7543136835097 114.59330802228754 C812.9530562316388 118.71418363983379, 280.0346356938302 120.9167845004295, 1.3180565118789673 115.98939185407465 M1343.8197400927543 113.79150866535014 C993.0082575771172 117.58814378623255, 642.9528175419488 117.09799447898158, 0.6689660906791688 114.9456701185972 M-1.0063876509666443 111.14520713355844 C2.900400663569524 79.9132019523081, 5.709724928095891 34.473127923401506, 0.8571320176124573 -1.3803778290748596 M1.799375981092453 116.16149025824373 C-0.2896799637716234 82.41994274836449, -0.3650421692769945 46.89033981856336, -1.4413590729236603 0.1561909019947052" stroke="#c92a2a" stroke-width="1" fill="none"></path></g><g stroke-opacity="0.8" fill-opacity="0.8" transform="translate(72.45312495937469 963.4032081905189) rotate(0 145.5 22.5)"><text x="0" y="32" font-family="Virgil, Segoe UI Emoji" font-size="36px" fill="#ffffff" text-anchor="start" style="white-space: pre;" direction="ltr">Error message...</text></g><g transform="translate(1080.3526257601025 963.1808659180597) rotate(0 65.33617628260572 20.86643949468089)"><path d="M10.76121478500042 0.6484628859907389 L126.75563611628829 0.17948369598610547 L129.50586378447218 6.660652540584506 L131.0319494592349 34.337765785726745 L126.64132722260771 42.8036033620146 L121.54722663950079 40.72974288538887 L7.485811237206162 41.327920507362194 L1.2730931296072736 36.970750662359436 L-1.3493592981249094 11.510539959838724 L1.9322824426233112 2.326486839377814 L10.791837386509513 -1.167939668521285" stroke="none" stroke-width="0" fill="#ffffff"></path><path d="M8.817480556389427 -1.3464863952249289 M11.073799978664255 1.448346232995391 C43.15207059284028 -0.33358735231879044, 74.94255472325166 -1.10860526947501, 118.66291289593929 -1.7118515614420176 M9.596006785241997 0.8931065471842885 C38.201794405762 0.27681383182267894, 66.90958989218777 0.6874813406632398, 120.80195115417146 -0.19608843605965376 M120.23913281787091 0 C128.39594018754894 1.281592482700944, 130.42308502247658 3.0841845670411105, 131.90255849411813 9.703614007404184 M118.92889383625143 1.4541182462126017 C126.45297450951647 2.185348176490515, 132.4141799388836 4.426894450250428, 130.37549493298036 9.818454326318687 M129.24286574846235 11.67508845748577 C128.73963071814748 17.89043197839669, 128.98655625096532 24.072059297525385, 129.89593482738462 32.83903660914521 M130.38438001344082 9.710173233134782 C130.58273969073556 15.844654321486647, 131.5369255640056 20.86478318358119, 131.50612342426655 32.25279669659804 M130.67235256521133 31.29965924202125 C130.51503430655328 36.34547539077801, 125.8189800411218 42.57124328688576, 122.03527257036322 43.1948715455909 M131.35535835078088 32.67193446970205 C128.71324017331105 36.740869655591524, 125.89553685418677 41.24516674569666, 121.50127550488241 39.62252372196733 M118.35100626017802 39.97581259609058 C85.83394047521256 43.741080855156035, 49.85208625335744 42.59859315040216, 9.128822516372537 41.1741429388602 M120.65702833145761 41.96721533295556 C80.07256704985451 42.43961751104926, 40.96181773571966 41.6063465738449, 9.966909651367104 42.47823626157685 M10.433219747340416 41.732878989361666 C2.466681561029863 40.935036838807605, -0.6384493950754404 39.66438938699765, -1.7182258013635874 30.822001620294856 M12.355098657032585 40.749728740014575 C3.8432694370554503 40.608400469933144, 0.297388665843755 36.903428017479456, -1.8925391684286295 32.541460023640056 M-0.15965539775788784 32.57395407101731 C-0.4320789324214469 28.659097153773953, 0.3123212708065499 21.196119737873367, 1.6499001923948526 8.765406839272117 M-0.1285443129017949 30.337131159479128 C-0.33356113132309423 24.1957823155711, 0.8415529340856125 16.820330268843254, 0.7614524243399501 10.503195061070954 M0 10.433219747340416 C-1.318388843908906 3.5298555889794345, 3.1534009189972396 -0.16771370731294155, 9.989957920929527 -0.6916226800531149 M0.2916342969983816 11.912370156219339 C-0.9793579082004724 3.0921531707675873, 2.419971414904457 0.45669422997161746, 10.51301479097653 1.5865513588301838" stroke="#000" stroke-width="1" fill="none"></path></g><g transform="translate(1114.0229655274843 972.4746193847725) rotate(0 23.5 10.5)"><text x="0" y="15" font-family="Virgil, Segoe UI Emoji" font-size="17.188833701185466px" fill="#000" text-anchor="start" style="white-space: pre;" direction="ltr">Retry</text></g><g transform="translate(1273.5913628065991 961.6069842321854) rotate(0 22.033420138888687 22.296006944444343)"><path d="M19.554741335356923 -1.4231401777724777 C24.407235634747302 -2.175449737856406, 31.08919985607671 1.6832971859369912, 35.3038729027723 4.340837525857175 C39.518545949467885 6.998377865777359, 44.01546623043461 10.132181532177317, 44.842779615530446 14.522101861748627 C45.67009300062628 18.912022191319938, 42.255191591816626 26.18052596906673, 40.26775321334729 30.680359503285032 C38.280314834877956 35.18019303750334, 36.73512692325716 39.12762277899411, 32.91814934471445 41.521103067058455 C29.101171766171735 43.9145833551228, 22.296577029212692 46.00040242169634, 17.365887742091004 45.04124123167111 C12.435198454969317 44.082080041645874, 6.12733126278855 39.94907968273031, 3.334013621984326 35.766135926907054 C0.5406959811801024 31.5831921710838, 0.08505453391498674 24.818566483510537, 0.6059818972656643 19.943578696731603 C1.1269092606163418 15.068590909952668, 1.404597085970373 9.853375191512079, 6.459577802088392 6.51620920623345 C11.51455851820641 3.179043220954821, 25.725555880110896 -0.23232445214475028, 30.935866193973776 -0.07941721494016818 C36.14617650783666 0.07349002226441392, 38.26370512776446 7.056345002053867, 37.72143968526568 7.433652629460942 M30.84345317129727 -1.5520195242150479 C35.28036471175204 -0.5474647747757084, 37.53707838203772 6.068217365638093, 39.802689362911934 9.94223399860415 C42.06830034378615 13.816250631570208, 44.496948728927975 17.376993009467405, 44.437119056542535 21.692080273581297 C44.377289384157095 26.00716753769519, 42.52133060526844 32.47716132433344, 39.44371132859929 35.83275758328751 C36.366092051930146 39.18835384224158, 30.64133814210243 41.505153638835665, 25.971403396527652 41.82565782730575 C21.301468650952874 42.14616201577583, 15.972842488218497 39.89294714150592, 11.42410285515062 37.75578271410802 C6.875363222082743 35.618618286710124, 0.22899879788469502 32.68954287062059, -1.3210344018796079 29.002671262918337 C-2.8710676016439107 25.315799655216082, -0.43007899671417826 19.64486332066417, 2.123903656564803 15.634553067894485 C4.6778863098437835 11.6242428151248, 9.365932113740573 7.148413043707673, 14.002861517794278 4.9408097463002285 C18.639790921847982 2.7332064488927843, 28.090258630524506 2.5198836399789903, 29.94548008088703 2.38893328344982 C31.800701531249555 2.2579829269206493, 25.433045849295567 3.5993152445367698, 25.134190219969433 4.155107607125206" stroke="none" stroke-width="0" fill="#ffffff"></path><path d="M42.19327847381824 10.362654614289688 C45.222311993109656 13.802672008567843, 45.50379565651856 17.85036795464108, 44.41276138626297 22.55208449540973 C43.32172711600738 27.25380103617838, 39.376800994961904 34.64502658788993, 35.647072852284694 38.57295385890159 C31.917344709607484 42.50088112991325, 26.233141859663327 45.52114230064444, 22.0343925301997 46.119648121479685 C17.835643200736072 46.71815394231493, 13.841889024926932 44.993128143943814, 10.454576875502939 42.163988783913034 C7.067264726078946 39.334849423882254, 3.196603902691173 34.358804440838924, 1.7105196336557427 29.14481196129502 C0.2244353646203121 23.93081948175112, -0.6653992236877238 15.63374809576656, 1.538071261290355 10.880033906649624 C3.741541746268434 6.126319717532687, 10.411898621930927 2.0109224641399965, 14.931342543524217 0.622526826593397 C19.450786465117506 -0.7658688109532024, 23.957955108427633 0.9090037989369215, 28.654734790850085 2.5496600813700283 C33.35151447327254 4.190316363803135, 40.98036702435066 8.355683309696552, 43.11202063805894 10.466464521192037 C45.24367425176721 12.577245732687523, 41.85959305201529 14.868710885181082, 41.44465647309974 15.21434735034294 M32.96630736126834 5.9162562278482795 C37.00337516191246 8.101481164311982, 39.03205294888103 12.011108301143715, 40.49936006614827 16.44223317708574 C41.96666718341551 20.873358053027765, 43.20450961675778 28.587180510821394, 41.77015006487176 32.50300548350043 C40.33579051298573 36.418830456179464, 35.51526307307608 38.479048076258465, 31.893202754832114 39.93718301315995 C28.271142436588153 41.39531795006144, 24.59976022997129 42.165014158427404, 20.03778815540799 41.25181510490937 C15.475816080844691 40.338616051391334, 8.2313822623459 37.512220429952976, 4.521370307452308 34.45798869205176 C0.8113583525587167 31.403756954150534, -2.5888346536773192 27.337034541122218, -2.2222835739535576 22.92642467750204 C-1.8557324942297957 18.515814813881864, 3.3770449260043844 11.630905024098002, 6.720676785794879 7.994329510330701 C10.064308645585374 4.3577539965634, 13.034386910805889 1.9455147300647688, 17.83950758478941 1.106971594898237 C22.64462825877293 0.26842845973170526, 33.292802576387444 2.1779766653984183, 35.55140082969599 2.96307069933151 C37.80999908300454 3.748164733264602, 32.45331336273229 4.995549101719184, 31.391097104640686 5.817535798496788" stroke="#000000" stroke-width="1" fill="none"></path></g><g><g transform="translate(1289.4242621121557 978.4422936747737) rotate(0 5.703357806429267 6.525103834644028)"><path d="M-0.8564332399517298 -0.8889257099479437 C1.3870901392151913 1.4749199523280063, 10.117166901255647 11.597539990519484, 12.263148852810264 13.939133379235864 M0.8948005797341465 1.2587843469902875 C3.1084942410265404 3.2923184879745047, 9.726769639837245 9.95133406282713, 11.455307318158448 12.140414201430977" stroke="#000000" stroke-width="1" fill="none"></path></g></g><g><g transform="translate(1300.3057426815485 978.2428119423753) rotate(0 -5.27372969741009 6.618854446057185)"><path d="M-0.8889257099479437 0.2670551028102637 C-2.6430221217373857 2.464187655597927, -8.992170379807476 10.268726518005142, -10.768519065156488 12.32636207677425 M0.8452495629899204 -0.6383449135534465 C-0.9915474071043082 1.840137708876284, -9.185571964674864 11.42082338431851, -11.392708957809864 13.876053805667919" stroke="#000000" stroke-width="1" fill="none"></path></g></g><g transform="translate(1187.3470051677077 1065.5048466435187) rotate(0 84 10)"><text x="168" y="14" font-family="Virgil, Segoe UI Emoji" font-size="16px" fill="#adb5bd" text-anchor="end" style="white-space: pre;" direction="ltr">Made with Excalidraw</text></g></svg>