<svg version="1.1" xmlns="http://www.w3.org/2000/svg" viewBox="0 0 289.85550387593 546.7625956812226" width="869.5665116277901" height="1640.2877870436678">
  <!-- svg-source:excalidraw -->

  <defs>
    <style>
      @font-face {
        font-family: "Virgil";
        src: url("https://excalidraw.com/Virgil.woff2");
      }
      @font-face {
        font-family: "Cascadia";
        src: url("https://excalidraw.com/Cascadia.woff2");
      }
    </style>
  </defs>
  <rect x="0" y="0" width="289.85550387593" height="546.7625956812226" fill="#ffffff"></rect><g transform="translate(11.46817799205246 10) rotate(0 133.25737847222217 262.5795717592591)"><path d="M1.2035972283782832 -1.5433406393855906 C99.01653827716835 1.986232320878909, 199.62817536555735 -0.5934825866882788, 265.8382922037197 -0.3734342143057831 M-0.13841460372674208 0.7484595689325418 C85.79956118972312 -1.0833122648895448, 171.1571574009918 -1.275661736214026, 266.6221417661723 0.7166195008682172 M267.05122269656925 -0.2616791844367981 C267.12318102788026 199.3264861148446, 265.9320460028558 399.55985405084476, 266.793051996496 525.1396010986082 M266.7112696852949 0.26651359200477603 C264.79399316782496 201.60189715515807, 264.6314704703762 402.65735518120204, 266.78170940544874 524.821388655018 M265.46392277983716 524.1542006360258 C172.4601949372812 525.5380433836959, 74.95129783039957 526.0321572609579, 1.053603976600202 524.1392421743822 M267.3013565409019 524.8478641482568 C201.11775359854022 526.4624823772076, 134.54102991223888 525.7531241612576, 0.7335699422130386 524.9171910528588 M0.529651939868927 525.5879329314939 C1.8809230115790683 401.33076208585237, 1.8289237287421543 277.45863762692966, -0.2361115336418152 -0.5398404240608216 M0.3698842465877533 525.4416105559579 C-0.4198503802470104 330.4285086903626, -0.3845581362894908 136.321809412658, -0.0037312090396881105 -0.10919155478477478" stroke="#000000" stroke-width="1" fill="none"></path></g><g stroke-opacity="0.1" fill-opacity="0.1" transform="translate(28.635179839192006 123.03402657380866) rotate(0 113.98969425544306 62.48331102672046)"><path d="M-1.6689635327383088 -0.6090114518414825 C51.73766912263242 -0.9767394893706379, 99.07820121411693 -2.2151780004559285, 227.5755579697545 0.348198322495341 M0.8093817362152391 0.4408465929584939 C75.12919070416632 0.7449957586207285, 150.4864141451863 0.4573676545293587, 228.7543385013652 0.688384961684432 M227.3251905497939 1.2102201282978058 C225.44752333550514 36.46204277047638, 226.2505409517771 77.15505803960808, 227.9305324611098 126.6362433124154 M228.64567249089782 0.19399915635585785 C227.26588509164475 26.57923613816194, 226.4330637224736 54.25046860336646, 227.1350013521344 125.55408196037702 M226.89264655608778 126.6498577175176 C176.10665413848622 123.30224353792624, 124.72625745977243 124.810642821084, -1.1029179864220373 124.0608503679684 M227.64277201534188 125.41310913918976 C171.83619018015145 126.52310299222484, 114.4511753165972 127.69915469079781, -0.26164660706603654 124.42498977361055 M1.0719735324382782 126.20100638156823 C1.0592399870977556 96.83327524755877, 1.9157854354009782 65.90087736550245, -1.3496010601520538 1.4072254002094269 M0.7061675935983658 124.38253264015607 C0.5852545796174 85.87298808590057, 1.5650247631806324 47.7617437025435, -0.27297888696193695 -0.9638525396585464" stroke="#000000" stroke-width="1" fill="none"></path></g><g><g stroke-opacity="0.1" fill-opacity="0.1" transform="translate(73.58786460633064 219.16324903845089) rotate(0 71.26372621996688 -31.81701218217904)"><path d="M-1.1734836280345917 -0.15923239985910997 C5.7952136338318585 -6.74416964633665, 28.97536536432758 -38.22332594899561, 41.52701266441655 -38.32548830212523 C54.078659964505526 -38.42765065525485, 70.74260096148525 -2.3046183825659754, 74.13640017249924 -0.772206518636842 C77.53019938351322 0.7602053452922916, 57.94541490677809 -18.475614376068094, 61.88980793050045 -29.131017118550428 C65.83420095422282 -39.78641986103276, 84.38452552932466 -69.82764722884286, 97.80275831483343 -64.70462297353086 C111.22099110034219 -59.58159871821886, 134.828059410147 -9.152936287475855, 142.399204643553 1.6071284133215722 M0.4112987379077824 -1.429645995529944 C7.34582197143723 -8.469105097421398, 28.475171422520205 -40.54509093276325, 41.17233603757967 -40.26094234520998 C53.86950065263913 -39.976793757656715, 73.12506951356244 -1.7851410645715142, 76.59428642826457 0.2752455297896521 C80.0635033429667 2.3356321241508184, 58.66503181737912 -17.16772275351917, 61.987637525792444 -27.898622779042984 C65.31024323420576 -38.629522804566804, 82.9110375883818 -68.9540444820526, 96.52992067874447 -64.11015462335324 C110.14880376910715 -59.26626476465388, 135.75624972351045 -9.828319920487807, 143.70093606796846 1.1647163731531531" stroke="#000000" stroke-width="1" fill="none"></path></g></g><g stroke-opacity="0.1" fill-opacity="0.1" transform="translate(60.942623482868385 293.6808888053747) rotate(0 82.10523197081238 45.00588215156449)"><path d="M1.8837105929851532 0.5940339863300323 C60.40091313601018 -0.27128348993640006, 123.09948164583209 0.9940124924244398, 164.83959212951947 0.6467578709125519 M-0.5109802335500717 0.47314630448818207 C45.62804337758268 -0.7122507981013204, 93.67369845844199 -0.04163798605908409, 164.26965363376428 -0.854370728135109 M162.74627700500776 -1.7676174342632294 C163.25486705787273 33.73529552568709, 163.86718032844158 67.74873705009054, 162.4982558792143 88.01638369290113 M164.7437403952389 -0.21230758726596832 C164.5106529917456 32.09302507144736, 163.965810748551 63.43874774480911, 163.48763163440515 90.17346251038789 M164.25967708282758 89.57930330960035 C126.55645285984211 92.9665003890784, 86.25920397865352 90.569870101908, -1.0330670177936554 90.83374838558912 M164.76677210681726 89.56320631531953 C98.23583125043088 91.80057335357016, 32.63984217627106 90.23623133162802, -0.6603566259145737 89.93707478074312 M0.9659030139446259 91.11615042416334 C1.3399973175427156 56.458592981313465, -1.8320522048571868 25.49320472791672, 0.17729350924491882 -1.8650152385234833 M-0.5800686925649643 89.51590549973726 C-0.2359324189365688 54.67542358376658, -0.9086127968967739 18.39388636994434, -0.12594185769557953 0.6605871766805649" stroke="#000000" stroke-width="1" fill="none"></path></g><g><g stroke-opacity="0.1" fill-opacity="0.1" transform="translate(93.55746184906502 381.5741834851051) rotate(0 51.802111254465444 -41.54743961918439)"><path d="M1.1302263557910919 -17.65714360577657 C6.036805326867881 -22.347466575809648, 19.50198571512633 -46.50186667442857, 28.265990198426145 -46.58371067554777 C37.02999468172596 -46.66555467666697, 50.898520577661046 -19.415780926438224, 53.714253255589995 -18.1482076124918 C56.529985933518944 -16.880634298545374, 42.452158147391344 -31.34389026157276, 45.16038626599982 -38.97827079186923 C47.86861438460829 -46.612651322165696, 60.26705867062595 -67.37041789963595, 69.96362196724084 -63.95449079427061 C79.66018526385574 -60.53856368890528, 97.7857689656487 -26.012587435293447, 103.33976604568916 -18.482708159677212 M0.2644564632419497 -18.515626845421707 C5.652958055151659 -23.009119589569867, 21.78569111394853 -45.61856012785411, 30.541529287951263 -45.316320208554096 C39.297367461953996 -45.01408028925408, 50.288830273346335 -17.976460502173925, 52.799485507258346 -16.70218732962164 C55.31014074117036 -15.427914157069354, 43.008357809266485 -29.350011886513762, 45.60546069142333 -37.67068117324038 C48.20256357358018 -45.991350459967, 59.080101143310706 -70.20721893378285, 68.38210280019943 -66.62620304998134 C77.68410445708817 -63.04518716617982, 95.4430496596808 -24.46620581237736, 101.41747063275571 -16.184585870431267" stroke="#000000" stroke-width="1" fill="none"></path></g></g><g stroke-opacity="0.1" fill-opacity="0.1" transform="translate(62.007045455342904 393.27489860178866) rotate(0 45.237468181615895 6.59594510252964)"><path d="M0 0 C0 0, 0 0, 0 0 M0 0 C0 0, 0 0, 0 0 M0.3124833457498003 7.0637209758657145 C1.2587287435557535 3.7359936147437467, 3.602384299225604 2.1035074659606243, 4.529728084387726 0.24371591916654645 M-0.6300563759775708 6.528813473929755 C0.9968712922049243 5.415003689085633, 1.7969181499280888 4.076769747819585, 5.118212341847366 0.5673077534732633 M0.4454811343084679 13.600012797534049 C4.9364643124488925 8.872461546476124, 7.698408787307528 5.11720958713822, 10.178969635021819 -0.05813696430178861 M0.7615274080168115 11.869690972983419 C4.051022329226422 6.789883783920274, 8.147687802627868 2.3403501753944775, 10.400166894447935 0.5547727937891842 M0.6328987392640864 17.294967973479974 C6.0223761459121175 12.409431992330177, 9.697216592011056 7.315609469792605, 15.33268783195265 -0.7876984768616984 M2.3148098948455607 14.828359046826112 C6.226537807465749 11.227033627857374, 8.593788975635833 7.909751145903829, 16.53145947261103 1.118167743731754 M10.105504845733904 16.2235898362389 C10.645430633798235 10.576183601620475, 14.840433270060709 5.824462314762679, 23.21615209271934 0.6748894503503564 M7.804539700503611 14.335064424752275 C12.405820187206993 11.3737513545729, 15.261084517826411 5.6151652370637954, 20.44588715424564 -0.7839556136936421 M12.515771405635087 14.340057265548728 C17.401329882989327 10.778625372529405, 19.29922075149621 8.691497606822582, 25.8839564944174 -1.5994817433866917 M14.078899564085214 16.099393811612153 C16.011323458197094 12.559047609342963, 19.482888559059177 7.91773708356348, 25.666917550053807 -0.2863651184353291 M19.249249635458145 14.20704349368668 C24.030056112093398 11.90947832268915, 25.789145156588177 4.436203138998225, 32.34646128252784 0.7284015939816122 M18.06201492083088 15.200133720932964 C22.726487483135045 11.041242483384167, 26.261196390531804 6.146846329469684, 32.54036012426654 0.41939116281114863 M23.910240751693586 15.668471752929985 C29.120240899479185 11.602176209618525, 29.530032925092762 8.865322123148902, 38.208540586569654 1.2978414354008159 M22.818636205981115 14.825445666241944 C28.135692857275643 9.517633116678619, 33.42236060980164 5.835606654122049, 37.42841322515284 -0.23002151575866137 M27.3536188838604 15.113644016224185 C32.711190747400096 12.850376068918273, 36.45395797222935 9.243442620799618, 41.91805465202384 -1.989448567074632 M28.08596176780491 16.03699490173463 C32.429090135222516 10.44345062337484, 37.061581121134466 6.286729868248683, 42.458136316943694 0.29259877915968957 M33.27724427743959 17.194273935623738 C37.476772085556675 11.645861536247569, 43.521083502648075 5.530943955415058, 46.517377608409404 0.0683335595008181 M35.366051070533274 15.986983360715481 C37.910741061901504 11.349714768848171, 42.1204072487861 6.960958430543291, 46.772977747908115 0.14266730176175102 M37.97349106195015 13.862163484074191 C43.70062338002685 11.7858456320595, 49.22455514810084 6.33381321187237, 51.89186970120734 -1.0645985328183762 M39.17735246243519 15.455826297380046 C43.12627710491419 9.73928156521453, 47.67393637696287 5.640688365366225, 52.281246982277096 0.5661359853519805 M46.57771948287309 15.331526313629997 C47.499065917602834 10.065400896884052, 52.21383974278681 8.43248840375282, 56.521405059936654 -0.6239428710866723 M44.803175407741676 14.314475645032775 C48.38403803187063 11.162274673018, 53.94214821696009 4.791126622302723, 58.90764236831964 -0.5628299158740793 M50.81980366972739 17.116664397236697 C53.37223631295709 11.277429524688031, 61.015801542771804 6.43596232189849, 65.72884393007834 -1.5829858032496205 M49.54321825472171 15.062096657869212 C53.6855237003373 11.90606864973886, 56.075027358603236 8.417456489294471, 64.34172337026675 0.7204715313880214 M57.27260386799409 14.994291386948749 C61.840551388767466 9.04984113176129, 64.37579328328367 4.913538311275115, 69.4315604411514 0.3850746436383261 M56.46204046760633 14.288391269193813 C58.65561728915416 11.241290998806456, 64.35290118698904 7.398634612330303, 69.28943833638742 0.008955581333829343 M61.10349420719215 16.041209255711706 C63.49486093587625 12.443078533396877, 67.99283793525365 4.099162631089561, 74.38991483863684 -0.13054787836836113 M59.64059039466449 16.21127473320213 C63.302081901038356 11.76225037255115, 65.73586079136126 8.723536119018942, 75.22159673091265 -0.013925832732184062 M66.32283493280259 13.596631655580008 C69.73101335021506 10.69100101151987, 73.18187667057525 5.9184469449550905, 77.95878125205365 0.7594486036758354 M65.92467750012723 16.139198983198607 C70.93775114235704 10.751637724905542, 74.22642921963902 5.093418061849947, 79.62539690211145 -0.036507456614501166 M71.5355001743444 14.299860559499209 C75.40440385795787 7.643443439612028, 82.23231131426593 4.719164284873191, 84.33601992688284 -0.7932222581746089 M72.17650013226353 16.008829273378794 C75.64774647423486 10.650076718301252, 79.50410727623348 6.75524338912429, 85.7528983142148 -0.6565873570086467 M78.18935017729859 17.05260961952376 C82.46106227837551 9.35761189327128, 84.69282205470682 6.215772084561075, 90.31400499264339 -1.3367584909741619 M77.02311775530438 15.847367537047145 C81.00459462270497 10.56203211565164, 83.04611246783944 7.285449028732415, 89.87254931549171 -0.8437502797190884 M80.56178055955266 15.978945845003343 C84.23943623694181 12.854440404767557, 87.68284002390939 8.244033778629264, 94.62526736499808 3.688865824615265 M82.07581725893711 15.344461831833339 C85.41456994272652 10.371225178316212, 89.88652352515982 6.508069836798406, 92.49139563905142 2.5667826531582123 M88.12004308243864 15.428444532618078 C89.85571201747335 13.423644711207501, 91.42132411148485 10.207793902341809, 94.138830010086 8.671347169026832 M87.67288050418371 15.143629588499817 C89.15760213451735 13.681973041735136, 90.0401578505707 12.422884113844576, 93.25222095870942 7.965828170076112" stroke="#868e96" stroke-width="0.5" fill="none"></path><path d="M-1.3854458630084991 -0.8572532832622528 C23.440730460319152 0.13931676354455425, 48.45706181294368 0.3780319353585191, 90.12412318302356 1.8969781696796417 M-0.7547360509634018 0.1360839456319809 C32.72468512908044 0.3786179397835516, 63.69228074760085 -1.2824495460257745, 91.14551855338775 -0.3270989805459976 M90.03883270918456 0.4589047214094051 C90.34613421446915 5.857094630961617, 89.24899635831736 8.195501132310014, 91.12302998853036 14.07084471603007 M90.27735818135623 0.4402009444423177 C89.98833247304141 4.60097394817836, 90.06850938580652 8.533632486965619, 90.03575367460826 12.771887190396072 M91.15031775547229 14.527075047407424 C53.116749106531515 11.934810355891718, 17.310444861887618 13.818239883174433, 1.9936444461345673 12.402949566755568 M90.13230682624541 14.121510336909568 C58.29197219940005 12.15133576094488, 26.061882323531243 12.711368128651179, 0.6620649248361588 13.727876971278464 M1.202077000917641 12.802545526565451 C-0.953899882851345 9.348328165833395, 0.053231392857965104 2.4182160164059043, 1.2198680923916825 0.9315685361120594 M0.26364090920238303 13.185737492561364 C-0.10353335021796539 9.36909564068903, -0.006548532909971316 7.253524439305059, -0.5252974088336912 -0.4990586665807707" stroke="#000000" stroke-width="1" fill="none"></path></g><g stroke-opacity="0.1" fill-opacity="0.1" transform="translate(61.89714574521577 415.01622892608066) rotate(0 81.34431834160523 2.8752642469962666)"><path d="M0 0 C0 0, 0 0, 0 0 M0 0 C0 0, 0 0, 0 0 M0.9772970438701563 5.505644962558932 C0.9412304573607475 4.682772556901761, 2.389221331240946 2.4254171666676845, 4.885172883751339 -0.2803739998641199 M0.5092529796761922 5.75062225572247 C1.7014426118497386 4.310150912737392, 2.697138517929186 3.3495887744987343, 5.168315738769716 0.5083805922267252 M6.161194784594189 6.572841891626048 C7.1369991347143085 4.6865049626093, 8.595767308343541 2.847022454867374, 10.618268777382506 0.550763928432739 M5.2960338723188745 5.990445449927973 C6.472877571128094 4.359432404680896, 7.961180542836756 2.487766267581103, 10.924723656427991 -0.16576966689082367 M11.680999387822943 5.620100805073244 C12.800142243919154 4.094476188499282, 13.843657425138684 2.2966308139570675, 15.227446394696315 0.10288372253300454 M10.817686263494092 5.732276327072842 C12.780496388728873 3.256812669354425, 14.844982972245182 1.775484323004022, 15.894499571904023 0.12680071582319047 M16.491062613929056 5.721442612527811 C17.50942589447831 3.994186937928599, 18.882797348305576 2.5449896537976673, 21.55773133327987 -0.15358945222799747 M15.735652449334406 6.117387464164698 C17.529075818342175 4.33659237977767, 18.20871383207286 2.817692749066667, 20.974193307662272 -0.11762403937284915 M21.28894367513511 5.79740454797818 C23.371402159826854 3.08044139730619, 25.963900394574353 1.3142622517688363, 25.585485286500663 -0.10315909217924457 M21.904711466257307 5.4244498076029 C22.983293452369573 4.296171937727763, 23.672362207096402 2.9662069462583207, 26.04507610523364 0.4052519673493446 M26.026448021388923 6.409057005304574 C28.299786928212775 4.000192127025331, 28.505429142928662 3.587440723454265, 32.22302396730224 -0.1142416610137339 M26.423684112287436 6.192400767463922 C28.716113967654533 3.592903751046595, 30.712082207807924 1.4565068141737751, 32.099419794834056 -0.2112508727923746 M32.396051780806644 6.111384316273746 C33.35079229555854 3.928949095878945, 34.76413364706895 3.8653378944388734, 37.241711434164394 0.48782568099913215 M32.10099265046583 5.51210363481265 C33.11288571546886 4.600549445278504, 34.69236204123864 3.224469913456678, 36.70695940125857 -0.027554715694813048 M37.0329760069738 6.220060069956338 C38.58516963078782 5.3179024477852455, 39.59867625172645 3.2354211782455815, 41.77977167944961 -0.24681769792447028 M37.402316361177974 5.848297859825646 C38.99091685712787 3.8461257710843157, 41.15308729491064 1.286568639965267, 42.69259061794334 0.03616233285059983 M43.010084264567844 5.7521168318467275 C44.954363826805206 3.9934332269807986, 46.67099093699347 1.0879601692763807, 47.44585698782492 0.2964573256846712 M42.52716803460454 6.102780273266329 C44.60604771521439 3.7359812793481795, 46.78331127066252 1.1627545762202423, 47.47559048472929 0.36208639668190945 M47.17627157068366 5.738826806483103 C49.9554594412301 4.434864126792847, 51.37974957980142 1.9901534140362098, 52.793599469721975 -0.06694256296020673 M47.813736696006 5.617891241249873 C48.89761128066835 4.124945049873278, 50.63133337266087 2.33515318813236, 53.44589327699012 -0.39257192244392547 M52.90887299234022 5.881406029310995 C53.40657535963977 5.141981214266642, 55.361359039853106 2.940687913455121, 57.812834192159784 0.3516986715864383 M52.50205272490133 5.860276486721808 C54.49248865250493 4.900791115518788, 55.19328633678005 3.5210936967080286, 57.83727937424482 0.3450830984186374 M59.12195971251853 5.349732214884867 C60.85423580116369 4.307655931895474, 62.98834222905537 2.1728342839981343, 63.23013233811934 -0.890241256120943 M58.300132616771535 6.133993411736597 C60.07632447596951 3.996388661692088, 61.723331416308774 2.209398640261443, 64.1515152719744 -0.014641138675951071 M63.41786679823759 6.820021398650255 C64.52912953480659 4.368901921533512, 66.36328482347635 3.2224580703800862, 68.86032897461965 0.0709536893631949 M63.135506751135615 5.818187739239778 C64.7621879024326 5.279374696328244, 66.06474295344137 3.848172712304976, 68.70988134969785 0.21365108921785492 M69.3356654324784 5.237151295161634 C71.74103275331706 3.16188917220333, 72.24889009669639 1.5246350986107566, 74.45499528464171 -1.0323387774066757 M69.40369162347457 5.729416871285825 C70.26440633897302 4.081057124625817, 71.6849435259963 3.041680690770122, 74.50164410289618 -0.4472328158454729 M73.50269068225995 6.252337939864522 C75.58167634105133 4.328151703424294, 76.91086700499704 1.5820256182638606, 79.65396633520452 0.23859737901496203 M74.51971761330739 6.3593265308202565 C75.76905972996408 4.311421610610995, 76.91025516228974 2.8086824376211394, 79.33558391108838 0.400602869079583 M79.28301373056327 5.385459047313394 C80.61651219089401 4.16976403581756, 83.44543957099461 1.676722635032538, 84.83381330928907 -0.6088601268174159 M79.9666012161151 6.036974119897546 C80.58264105728577 4.815447758783807, 81.78606679209835 3.4142592633428475, 84.88846726975547 -0.007534453952502074 M85.52896964440733 6.462730652953781 C86.64800774893762 3.125245238211291, 89.58082892395365 1.663110446636555, 89.45937127391437 -0.16099525945827764 M85.04687281141668 6.3665053614632265 C86.30513701675511 3.7602159003796114, 88.36203298107073 2.0475015527565703, 89.6565745584164 -0.16124906199619568 M90.62962960677314 5.579030471340154 C92.17653707536707 4.172513252102179, 93.02602630269075 2.880238127729366, 96.13221141206145 0.06456969564684445 M90.33104889469313 5.589477657571767 C91.88113294725984 3.7918725662049786, 93.95713023953313 1.3142670475490914, 95.60417227255226 -0.1127335529970308 M95.66232868467968 6.335574537918049 C97.74485619879073 3.8396991900681625, 98.75162258384827 2.6343763469742005, 100.94216879074925 -0.7434492260565115 M95.40915984546345 6.422536731168705 C96.44649804335704 4.839886844937765, 97.66754363222361 3.309412059057872, 100.31504079168195 -0.039092204009468 M100.44113806110799 5.402240567241921 C103.04991083797051 2.9654937577685976, 105.24041460648925 2.0913889345590784, 105.5158145929588 -1.1276743100138886 M100.73922215920867 5.419739984308495 C102.46570191782406 4.1413086588192645, 103.76640695243921 2.939165911874095, 106.04094661128653 -0.4800176129790529 M106.66839280307705 6.155244594757309 C107.03384964558967 3.4025885467979897, 109.06507814342334 2.859452022070358, 110.56798388570913 0.27561047922024917 M106.19876621544773 6.410233139936676 C107.17717657900033 4.580460525613389, 108.41281052543457 3.1890801871384804, 111.05317011088498 -0.10011405696024694 M112.2955830893655 5.816810482615525 C112.12673075660723 5.109027281845577, 113.95725318720858 2.729724804066317, 116.11678137797716 0.6187141886495042 M111.3769594534476 5.83528108956843 C112.98100036950542 4.478938363784686, 114.09224313184258 2.825714542213863, 116.41492007020715 0.07152682231291985 M116.71278699959943 6.006115823471577 C118.08061560052592 4.611617276546199, 118.18611906545092 3.1270723994619347, 121.40244155879398 -0.31944114362798354 M116.30787942136952 6.312407087767154 C117.86586289904143 4.067940028461426, 119.80033648954414 2.2012779130071625, 122.3131500160255 -0.3115021208485188 M122.32024185421672 6.018659513606395 C123.11791126474644 4.619600508422156, 124.87839463216014 2.7121831491404857, 126.76506990357055 -0.14725599422681168 M122.17513425337877 5.729659465118017 C123.88610833380544 4.119495794381588, 125.0747333647332 2.209976608172329, 127.24222237257972 0.37957554698360096 M127.36113627424679 5.7725632240608435 C128.2416038716512 4.71845123200817, 130.7386681965348 2.815805550567471, 131.91116681000383 0.4557709053987896 M126.9286869632288 6.211871074660132 C129.08981387474626 4.114326453635479, 131.57240275510054 1.2358333107267876, 132.83716800710351 0.2595561043257157 M132.7489472499273 5.155426757487891 C135.05775258557003 4.205010649646518, 136.56975333569056 1.0243843452629104, 137.74767849752337 0.6507935982874902 M133.12231112850526 5.603209593597292 C134.07331333444387 4.255450871541346, 135.01113720461922 2.9650480941060695, 137.80495253139762 0.32568274333396235 M137.17906562701916 6.738961796525103 C139.83133704102318 3.2489205745780385, 141.27412045871708 1.344396428261681, 143.95978463933872 0.5856216263005508 M137.55337634102557 6.291437600615604 C139.13988379705603 4.4850320222981725, 140.2664053317405 3.592578987681122, 142.86741158411908 0.24587311856243738 M143.11412115149727 4.96344033926002 C145.18438673049897 3.6522641273851018, 146.87856076196385 2.4973756389591086, 148.6845290348355 0.461691091192438 M143.38040414132706 5.309642412506261 C144.7664080219401 4.324255757140415, 145.94458307238207 2.8134783807858526, 147.92127460916083 0.5073093488640326 M148.13220005791652 5.189686540864363 C149.81426402911887 4.597888006912797, 151.66258530666093 3.1515644427266976, 153.2139200467986 -0.5455139809226893 M148.37413505475988 6.033919165633574 C149.74382335914007 4.563769318556966, 150.7369317762814 3.6161000130849175, 154.14606824707212 -0.019738578138341734 M153.91288497566686 6.370705705098516 C155.72950652120932 4.853681989325539, 156.78067792087003 3.127187906442482, 159.45272264033014 0.8338328200301984 M153.45647574185833 6.240580534152395 C155.82741231357775 3.7330035752538304, 157.77810876042298 1.8993657284103596, 158.71136181502993 0.20543475327108923 M159.18663035190585 5.293018596512009 C160.3899427728864 4.757161107830968, 162.17250149836082 2.6957912233501276, 164.39553463416982 0.2509418948311442 M159.446493134712 5.829407432568002 C160.39583521166062 4.740694992485915, 160.91323571242518 3.505540266311972, 163.6746461648016 0.6436370215136633" stroke="#c8c8c8" stroke-width="0.5" fill="none"></path><path d="M-0.8572532832622528 -0.4732363522052765 C64.5375491179855 1.7561096811510537, 128.9057707086864 0.7761683130480264, 164.58561485288996 1.0332286059856415 M0.1360839456319809 0.9081396013498306 C41.300220005804356 1.2870594840086833, 80.13267576812517 1.8984519820250407, 162.36153770266432 0.6051100641489029 M162.88867963653027 -0.014047405317063166 C163.1178732422946 0.811861050693722, 162.06408835832553 2.890845255364227, 163.07178518442527 5.862088261636322 M162.88052639990363 -0.24278362081810384 C162.8453381216053 1.823987303414042, 162.72292038232325 3.872195539918768, 162.50555152514423 6.034105902833329 M164.02382152555842 4.458053479067826 C112.42027929096479 5.266845865923271, 65.09679687082428 8.293557329851494, -0.7889406383037567 6.796976933352494 M163.61825681506056 5.443913037054085 C104.19682209106304 4.532752545481165, 46.89976175671394 5.855174096231897, 0.5359867662191391 6.367720658056283 M-0.1697207627459506 5.362482526396463 C0.37286046878183954 3.7986238744245187, -0.5679951828299052 2.276523592055406, 0.4060836868521751 -0.3358822814136415 M-0.0026820529874712618 5.6720398506061755 C-0.24861857288669367 4.322728488238539, 0.21845077089239076 2.7383672570463884, -0.21754661672715786 -0.15265315633116058" stroke="#495057" stroke-width="1" fill="none"></path></g><g stroke-opacity="0.1" fill-opacity="0.1" transform="translate(62.45218170178896 436.8294608254655) rotate(0 59.36132803216947 3.703682456774004)"><path d="M0 0 C0 0, 0 0, 0 0 M0 0 C0 0, 0 0, 0 0 M-0.4185190803976605 5.645608411778801 C1.8559548508636716 3.9991880781287876, 2.4966816083068766 2.4889498157152805, 4.255036693396515 -0.1844186175766176 M-0.13854503106790278 6.672943608512275 C1.1880429461159994 4.775803974799292, 3.055826076071143 2.9866223335922237, 5.15647051292891 0.1274840306339079 M3.0270200969928607 10.526986592888393 C4.546351539800551 8.204429279902138, 6.144324899837352 4.579784922568251, 11.581135326576364 -0.31803993479462833 M2.08062587923349 9.131701130300321 C4.310738008079458 6.709647590703204, 6.159862275586205 5.301385598096682, 10.416768234175574 0.018042786706960356 M7.764147529587345 9.964541819502209 C10.000849025196606 6.894904772769822, 11.759859052170853 3.9218042041386516, 15.23528441293486 1.451862115312832 M7.956448424443798 9.321037435342168 C9.901514793313387 6.792483499860832, 13.548669075806739 3.8771477001488637, 15.276284972860893 0.5898903048527411 M12.329640211331391 9.20113672556384 C15.091456771029987 5.910101481520095, 18.31772801210602 5.099914052746214, 21.12270502587583 -0.9084741527051208 M12.97305059524133 10.263778442312317 C15.505703721452353 5.838816206223781, 18.45964766122726 2.175656435646001, 21.181148821765447 0.5319972349494223 M18.757320641514987 9.122438576170575 C19.339172366698143 8.583715681199461, 21.547327480092783 4.385555727007772, 25.57129199751875 -0.627411538175052 M18.11796965801451 9.81111402446903 C20.081987156587108 7.007638831237994, 21.71153562006817 4.6062951236404635, 26.442853813853475 -0.26697524469227174 M24.133157542466794 10.684838860192409 C25.219763151080965 5.8940358158728845, 29.55733892164295 3.4635659994258523, 31.872789129472174 1.0999014438375116 M23.781091155975734 9.688296550222745 C25.60192210929855 7.107617729410881, 28.174636446300028 5.049093728213251, 31.715149160331883 -0.7390489271596784 M29.98479551125513 9.460486700026442 C29.67153734087768 8.441050297787744, 32.99146125566708 6.249810149115907, 37.273632589915145 -0.44606507447543553 M28.957457200178965 8.812872742502142 C31.78995096415524 7.133244131642091, 33.815017759879225 4.006801274259536, 36.39012333843981 -0.3211430403310339 M34.512181465399074 10.047233621774105 C37.4146653261695 7.266299291789329, 38.39021338312249 3.0632715126177557, 42.34349701236539 0.9387274798332697 M33.9080678739367 9.180060141531614 C36.789842630002816 6.673345621343433, 38.75743892231313 4.470474894799094, 42.80333956237488 0.49845898787965837 M38.87313463880777 10.177123691069804 C42.10241538859449 6.949065621423768, 43.60494804781357 3.9196069969153213, 47.61886869012403 1.3443390064116763 M39.399129800937175 9.689594839441499 C41.66118954358355 7.2048550592488905, 43.62520733278221 3.978593997402728, 47.717312296619895 0.1156681679364489 M44.41632135512823 10.482461635308924 C46.88758764818348 8.382592611537827, 47.49616299206341 4.967424605041272, 53.321938049555484 -0.6353554197178473 M44.21980106162424 9.05137390373892 C47.380711563704324 6.192461039810911, 50.05673606735701 3.2575154818455476, 52.79279034039444 -0.724424332432567 M49.74890052417291 8.37078704930067 C53.3189346787275 6.455126998594767, 54.705408292591684 2.450084262924223, 58.38356279814543 -0.40776179551370506 M49.71720621028913 9.654561565287112 C52.704480990685475 6.330089759424669, 55.058914905447175 3.908773507189371, 58.373639438393724 0.5817396301101887 M54.47018658665426 10.30966352579687 C59.35892620564782 7.1452879027595975, 62.47719026504347 1.745810101216169, 62.67022161604245 0.059293370184160255 M55.74461103153832 9.452042524344662 C58.60297692647889 5.7843769795423094, 62.02519141103687 2.936163486306557, 64.09307180689056 -0.43914420059635545 M61.83865566735055 8.639914274719033 C62.8710732740199 6.645596796935955, 65.87013002862223 4.0089640867419725, 68.64427741397931 -0.9539299802515973 M60.33590517823484 9.37105417003897 C63.17236260964982 7.725390187683624, 64.67989254422238 5.11967670195355, 68.8583235137613 0.4653525961901679 M64.97338653497717 10.772979918237944 C67.74078839759864 5.484190876969016, 71.22296778744749 3.437100521700593, 73.12545708682629 -0.7706855254607032 M65.77331809617898 9.069370690848846 C67.51361499776527 6.972608967281226, 70.23077756189895 5.381750050723066, 74.07625427436325 -0.039645929111702616 M71.66896256834069 8.6829428673249 C73.84054930438896 5.764348080526817, 74.77950073997451 4.883763437810719, 79.5775750376257 -0.045728047801978366 M71.82944545477429 9.352353903697086 C73.72810587440607 6.006898285857321, 76.44035044607683 3.548450347878893, 79.82058327272264 0.2047883161764077 M75.90053057509695 8.241551437632136 C79.98284031326129 6.789043945315634, 81.99120644539747 2.4078897473778427, 84.499753836907 -1.3936514816524488 M76.9592425680462 9.02816309075146 C79.91539074649111 5.839191031123277, 82.59129705968238 2.686670706822821, 85.47690805531249 0.21762516952138045 M82.66638372714333 8.898310327118265 C82.67286792702515 8.405553927129477, 85.49997097711093 4.497189417723071, 89.66001816908458 0.4652815018351333 M82.5220457899075 8.761742016261447 C83.49191872661157 7.02436495969859, 85.80353422785585 4.214869034206438, 89.65963746527771 0.08832804006889039 M86.9012280820136 9.809518708979452 C90.33221282774753 5.4324768040928415, 93.9387941445731 3.8868681478610685, 96.28022124128461 0.24703612660893004 M86.91820475963998 8.990724411552513 C90.29770595773533 6.078088670420448, 92.57495617435441 2.649512705479164, 95.99210346223832 -0.08627621719709844 M93.15748164375847 9.984454154099135 C94.86979556330688 6.035806444865759, 98.52561193295624 3.9066522918298503, 99.46816930835598 -0.9724638313402485 M93.28792493363446 9.012499757732062 C95.58156601831199 6.017364281419702, 97.95705371682746 2.321034413099529, 100.52470484142655 0.2542530178676302 M97.30008843072713 9.8960223572799 C99.46208855560775 7.394997751612832, 104.16764318988992 1.7030791726306171, 105.02896867495906 -1.2669820756765584 M97.32852498346031 9.75685934075201 C99.60132415811657 7.562880099380912, 101.9996106837507 4.26926680883561, 106.08141080764068 -0.2327954017671332 M102.92556089844997 8.816866245711427 C104.82521317041594 5.597828525427607, 110.3124379170617 1.0955576946067176, 111.71114738047488 -0.8793336828505015 M103.33991728436645 9.7139708197063 C105.27832200100087 6.667166851342849, 107.93602404071878 3.313058155265508, 111.10059500918157 -0.5528483820413567 M108.67406714383438 8.521093654408379 C111.76138685903359 7.182865714471876, 111.98429284418836 3.624787695997268, 116.69226823616626 0.1448458349846291 M108.70573104146793 9.369096323623582 C110.60629153398331 7.19536886805275, 111.99888394851273 5.8668912851137, 115.75423275101784 -0.16605776487365487 M113.37242685488769 10.182060348375698 C115.05258146612225 6.68043544664398, 116.60349199672376 4.821315755411671, 120.19324072647187 1.507377797269814 M113.79357734329412 9.337286214663646 C116.04992280557668 6.627726359251467, 118.81931234732347 3.883726862030103, 120.20415688279364 1.5411596051394865" stroke="#c8c8c8" stroke-width="0.5" fill="none"></path><path d="M-0.4732363522052765 0.40804269909858704 C39.77218963967601 1.1556348044564015, 77.93530972335417 2.4058551032234914, 119.75588467032479 -1.0219604671001434 M0.9081396013498306 0.8066967576742172 C41.29330510902772 -1.015933202866548, 83.13881302393217 -0.48866145527743665, 119.32776612848805 -0.7320934683084488 M118.70456133489286 0.618374696631891 C118.06402095590236 0.8285144898388115, 119.06207884762213 3.6286210694148675, 118.86635831874398 7.802382242719973 M118.40992187367985 0.2175764951375706 C118.43275354582005 2.1248333781366666, 118.45386265250428 3.894055526018116, 119.08793750772547 7.416478405933453 M117.43018104941414 6.345919468725341 C84.63993811703926 9.021932450110116, 54.61699865146127 7.411007729345956, 1.046448439359665 8.519981243932861 M118.4160406074004 6.772643023455756 C87.77090219028098 8.436345103003474, 58.80192649288811 9.04702139160821, 0.6171921640634537 7.890316420519965 M-0.49984937701285187 7.92855651629587 C-0.001833817990990541 4.085383467231787, 0.6174691935820149 2.6679709706134664, -0.43265634263438346 -0.4296780480753176 M-0.1011027114710571 7.050384539342627 C-0.07625221289519492 5.7971166634590725, -0.32456656422522373 3.417321459258373, -0.19663542843600657 0.008634185488270829" stroke="#495057" stroke-width="1" fill="none"></path></g><g stroke-opacity="0.1" fill-opacity="0.1" transform="translate(50.126844978300596 277.1918872838578) rotate(0 92.93548487128646 112.4691163786265)"><path d="M0.40804269909858704 0.6291281878948212 C43.532340489523165 0.08899131830095652, 87.66814340690087 1.4730331044948042, 184.84900927547284 0.9462926089763641 M0.8066967576742172 0.05918969213962555 C40.878568025412044 -1.0173856934892838, 83.13877852654831 -1.0828578194963638, 185.13887627426453 -0.8838087171316147 M187.30418424122186 -1.4697713068518812 C184.82981597863537 60.888796419715355, 187.68655017269623 120.4237742568139, 186.78650617456307 224.57374013881332 M186.3752494116714 -0.6204842788330208 C187.29840915263827 60.17199998602913, 186.61300757727312 122.33373607756191, 185.89209219388252 224.75261899524122 M184.80952429775067 223.90516573945902 C124.65497318616971 225.73070928142647, 61.006067826541894 224.78351327465157, 1.1126163303852081 224.04111678163432 M185.23624785248109 224.2778761313381 C136.40347772762567 225.03038855889616, 87.6213515236687 224.98551579812346, 0.4829515069723129 225.49042581777 M1.2079720688789013 225.0904227384238 C-1.0310616487802227 138.54740215718118, 1.7822387461737164 47.97868663615729, -0.9958699985735026 -0.8512972897098814 M-0.8273777223266737 224.83012339085244 C0.5850639688886037 147.7823176926921, -0.6314716697411544 71.53791939375398, 0.02001155592752181 -0.5884136214726272" stroke="#000000" stroke-width="1" fill="none"></path></g><g stroke-opacity="0.1" fill-opacity="0.1" transform="translate(61.89714574521577 426.17311241027346) rotate(0 81.34431834160523 2.8752642469962666)"><path d="M0 0 C0 0, 0 0, 0 0 M0 0 C0 0, 0 0, 0 0 M0.8595393211347513 5.222610801825709 C1.7648539020875573 3.5597551817374504, 3.2845051060837895 1.1604819663241495, 4.974588794591374 -0.284941840559501 M0.24466065249866764 5.814397069434113 C2.021325361106461 4.0348374096134965, 3.582960573590104 1.8920454574979906, 4.845729093583769 0.42843082135890065 M5.535363156748425 6.654334148744273 C7.199055027932516 3.5614133737386506, 10.0958642027807 0.9990877929722478, 10.257307602417601 0.5938871975138547 M5.4587080251699795 5.634477725604701 C6.730824286807828 4.667777670654596, 8.17675662291955 2.723353444925946, 10.472107358229291 -0.4071000163361667 M11.095400516711074 5.576993364005549 C12.732576752470651 3.1164201354060546, 14.41769434244885 2.082846354758465, 15.84634171380051 0.19883220111252575 M10.745325972907144 5.828689404486878 C12.43215293751806 4.618218155644001, 13.019425061436626 3.2225542439861634, 15.472271794363339 0.669751049478071 M16.16605343481376 5.2033575381030674 C18.70178313633164 4.115007386924107, 19.723821330099984 1.1277729795469271, 21.779575028920437 -0.33655718656485056 M15.783474459851526 5.73365713608166 C16.875870216172927 4.245967913257721, 18.365277758502437 3.507172109916348, 20.914561781192088 -0.19103828164045783 M21.220476800178023 6.232883494544763 C22.648506720344027 3.6122046602627726, 23.51907591715602 2.4293172298338614, 25.823911283400268 0.9581372486439287 M21.60113960874531 5.507315845984954 C23.179932007291715 3.3743522182772097, 25.202824465541436 1.288778380202921, 26.419099529322597 0.4899561652925552 M25.987319884754097 5.654773505586862 C27.95927171413463 4.880605314369927, 28.936874060577797 3.941503075489622, 31.54710612729827 -0.1442964925185557 M26.668030933595574 5.857812132496118 C28.15121044962454 4.662833628903391, 29.07175924406922 2.580488026329828, 31.501962493217384 -0.07265721100724887 M31.74609629653559 6.110203068443355 C34.15832197700367 4.229578622271931, 35.37424992712001 1.7864520585225248, 36.73112562839066 -0.3996048229652924 M32.57831249751315 5.718440456428346 C33.61836836317507 4.100215309620653, 34.27774875022176 2.6261712275386198, 36.79617323596155 0.013460231302352688 M37.88353750656944 6.074207051195657 C38.42458903187068 3.513016174993198, 39.97447440229995 3.285198207025204, 42.34427589755111 -0.6637057203472606 M37.49518994640212 5.749130214848076 C39.00043645253135 4.103575802615197, 40.94514752555966 2.314823558358678, 42.46712199430518 -0.35976930443653987 M42.365903179934975 6.486980518408312 C43.968580585832214 3.780762783783388, 46.50626993877299 2.2121941904067572, 47.4038754576354 1.0060135476466463 M42.16243854670858 6.645670047112001 C43.91538295685006 3.975844528435856, 46.275637762266385 1.7204275233859543, 47.15717943250227 -0.05781565381323833 M48.139081300259775 6.327283174929454 C48.50651895264579 4.210683542240512, 50.213918422572725 3.019077123932795, 53.55545933967895 -0.3291598700509659 M47.74776399827117 5.849798883137537 C49.05038571363903 4.529963289036011, 50.63672882010759 2.216746184215465, 53.34285278445548 0.13981293807166884 M53.14525068456282 6.46898730620461 C53.85610783515706 4.112570794004839, 56.2541816202288 2.2139641518004747, 57.92870636070074 0.017146312005444808 M53.065024805608886 5.8855843208702145 C54.31899346755907 4.661975057888067, 55.23520337927381 3.9976490833470515, 58.34425055468382 0.35093406916372405 M59.23832626582511 6.479626876788248 C61.309234676123 2.9953207971417406, 61.80818667021197 1.4530804824609431, 64.36503145368178 -0.575033941629671 M58.60856558920272 5.702005637364496 C59.98097861706032 4.752757382720192, 61.219049327185424 2.7776870813559276, 63.761967363668276 0.11827701651737776 M63.335486861065654 6.258074172125902 C65.24533618585275 4.5735936433622975, 66.40568745409523 2.007858833968678, 68.16911343564108 0.8056716544892324 M63.90474485357168 6.51063043056592 C64.8553262054465 4.886696657880346, 65.77833069157582 3.9201857897022574, 68.82861171592786 0.24715937807817595 M68.66564740326544 5.1968631567720465 C70.8844376138286 3.849750092889666, 71.79022192615567 1.5374571084022899, 73.75736723955961 -1.0357029350833726 M68.96040721919677 5.547937977528958 C71.38809014801234 3.7517519194849602, 72.74939804157187 1.6090518845432118, 74.25727823194357 -0.2321895690994097 M74.32098670944349 5.419866116172201 C74.7167920169776 5.110773111159442, 76.5627027613185 3.4214727382579735, 79.40947168245641 -0.162785424901969 M74.01441119059697 5.9129958761991315 C76.27037210174667 3.7081482097625997, 78.52197151387684 1.4570269449479036, 79.59307541623441 0.1730477729301384 M80.10541971258078 6.144617014880838 C80.77921851384588 4.180063390260342, 81.96865145285135 2.272177734018888, 85.31684169731246 0.4544581495879183 M80.1861013882533 5.529783403630914 C81.8388862701974 3.575935599207785, 83.62575423796311 1.957453665358148, 84.66159788928137 -0.019399318778704377 M84.08612522969632 6.9199881383434905 C86.9344359992551 3.1869477787242015, 88.64117785307782 1.6322845952817955, 89.53415610114673 0.177400073831822 M84.42683631668477 6.184868157769837 C86.605934263193 3.5685717928604173, 88.3482891378127 1.7272776223134299, 90.12045415560344 -0.2292132462804058 M90.64201819377112 5.188513451114629 C92.88697412166077 4.208411774851554, 94.22962031594719 2.1223303003499687, 96.0278298269403 -0.13892568761578994 M90.56846059637236 5.689729415670369 C91.63662997402757 4.028259006316134, 93.55037130473656 2.5593386392632422, 95.70773883568168 -0.0511647325204988 M95.21527742182414 5.924065238639789 C97.7512640809434 4.33103444418591, 98.07853233834584 1.363050749836171, 101.02754169171209 0.2918531506906208 M95.47483273183505 6.1184347752780495 C96.76508607259953 3.9417277087775124, 98.4185886644562 2.609897048281653, 100.793560434035 0.1825638204465564 M100.35981784683645 6.394177465473428 C102.6983238410072 3.540336443898433, 102.63862470598315 2.4080569290968588, 105.87470662844312 -0.25022944669449176 M100.89029734355391 5.969963513647332 C102.27601765400532 4.070766377223352, 103.28572422856199 3.0611885897514357, 106.62851357114447 -0.4352983103247865 M105.292818285827 5.797722417061081 C108.64460246040677 3.087684384900732, 110.26650566753871 0.9711787964736618, 111.37400345415242 0.4461988056744117 M105.99121293604787 6.005883228723755 C107.72534844821332 3.775378245018903, 109.437410924515 1.6087883512812402, 111.29520675152905 0.05056647311101159 M112.2606089702983 5.981108990186745 C112.77250466750328 3.48736007286957, 115.47386008056851 1.4635182509922418, 115.67193072158696 0.43267957778200383 M111.99043562106682 5.443368237340742 C112.77073359255158 4.679345131937763, 113.30564776751976 3.0999047414530208, 116.12245727870467 0.2001182063065456 M116.50312282170484 5.30658467360738 C117.88899999425763 3.640213988115876, 119.57618841596435 2.3244055086626205, 122.65791638846775 -0.4939379612167896 M116.50878942932316 6.039401018106967 C117.51854741810935 5.19144999778838, 118.53300115995698 3.5680315411970667, 122.20820560808559 0.316982211712974 M122.98103132310119 5.387112035765019 C124.06049332505638 3.9309738723416303, 124.56024042170597 2.699081711016722, 127.56349870427265 0.2093826966024651 M122.54977251129952 5.393007557256785 C123.57163975219592 4.570180915371479, 124.73011179125926 2.7597273216323677, 127.22363834618344 0.010037372413994439 M127.63056602945767 6.616277008278677 C129.00470042928058 3.517653110933704, 131.05496674767065 2.8701685569691326, 131.96365549465807 -0.26293214998298386 M127.66037471166096 6.31117564342768 C128.07928635211437 5.048357230206301, 129.75425348785816 3.7965302258058164, 132.61536950370464 0.2239985362524431 M133.5564890762947 5.8069273372026675 C133.62534575365385 4.335932983894693, 135.82118016169625 2.2553104324558997, 137.60795364984898 -0.20732849121770647 M132.8360350607119 5.471141139868139 C134.417752646331 3.9978215731094755, 136.18679476927994 2.016506782620041, 137.42625679159192 0.10362658246674789 M137.2595229090855 5.6924244210749695 C138.43811108405745 5.480161391991146, 140.70821331153124 2.7511641341621695, 142.57559577272343 0.40484123937580707 M137.77878128306125 6.013394604685885 C139.19647372988302 4.388617403368733, 140.3737664365547 3.553303783617306, 143.2995109383862 -0.2861970532706011 M143.36081035487882 5.897976769499698 C145.0405888805961 4.8262717046123536, 145.96094737717516 2.971624402833474, 147.8916236833159 0.7274678893215198 M143.88418420680395 5.277183047674813 C145.04769667111324 4.0348700625106, 146.09590340500446 2.726619053937361, 148.50902355243008 0.03654989896483571 M148.57436846058835 6.70065191199626 C149.84359476584933 3.8236730505033703, 150.77985694366657 2.2798504408315097, 154.3781122226638 -0.6249927931404018 M148.49682164352404 5.838245401881591 C150.1831600128878 4.711275746639687, 151.30676315678733 2.697305949097421, 153.54344241213025 0.22858294314385436 M153.76389966129764 6.7005957893651775 C155.437140894298 4.795051457808435, 157.76554487401782 2.706767674087364, 158.94448668509182 0.5760375100097518 M153.33402263640866 6.506727372817402 C155.26852111460872 4.478508751456113, 156.43216199557247 2.941142652913571, 158.84427255540544 -0.06021658006097236 M159.68827932930472 5.990806617480445 C160.70256711290963 4.926435565061822, 161.63893533530452 2.116541163542815, 163.2723687197535 0.3090871049780481 M159.1526311122525 5.615721289706159 C160.76090547165202 3.77520744526613, 162.6726573861872 1.7828804682178776, 163.687465727654 0.6567554688770398" stroke="#c8c8c8" stroke-width="0.5" fill="none"></path><path d="M0.6291281878948212 0.6467578709125519 C41.482509427447795 1.565058617555209, 84.69987382129764 -1.3538800192245761, 163.63492929218668 -1.5094721019268036 M0.05918969213962555 -0.854370728135109 C51.69110435405299 -1.6395029377738424, 102.64615439194291 -2.0444974255362935, 161.8048279660787 -0.33058466017246246 M162.19633162068357 -0.5737246527737263 C162.9697449716019 2.3083500027327624, 162.7987917103221 4.157065147204014, 162.56654860020393 5.578274336778762 M162.4808032942581 0.04649250741357308 C162.44863411423293 1.925852823518371, 162.9236573678872 4.224951002438101, 162.6264647015647 5.847623492502621 M161.65556966541666 6.572512576453232 C105.01472003829682 4.098162294030344, 44.399962940473856 5.999719262719309, -0.8971159756183624 5.065269420020127 M162.02828005729575 5.675838971607232 C99.42024741468516 5.253894870491558, 35.444920460551145 5.200859611244732, 0.5521930605173111 6.661752725116753 M0.05097656883564439 5.214287330449823 C0.570562071630123 4.601174395393106, -0.2970776846540049 2.3060827685822334, -0.2851450177899759 0.2298494813076959 M-0.03621161206324103 5.940464763106222 C-0.21328672088701117 3.8131874350427646, -0.13695542765382993 2.317642550505401, -0.19709120960534982 -0.11543839810458933" stroke="#495057" stroke-width="1" fill="none"></path></g><g stroke-opacity="0.1" fill-opacity="0.1" transform="translate(62.474841239471516 463.336231396308) rotate(0 48.58691957447513 12.11261238190582)"><path d="M5.583069838747552 0.40804269909858704 M7.953284360632471 1.0332286059856415 C33.2284345267692 1.095495606349156, 60.93501169485906 0.42137088863675376, 92.9338121606973 1.6133935153484344 M5.729207210406831 0.6051100641489029 C31.34605553529385 -1.454214154559611, 57.76940715607931 -0.22253662236356608, 91.0931049331096 0.8348106294870377 M91.11753295799764 0 C96.1376341228851 1.33256796002388, 97.56183746166218 3.0853216375460795, 95.46163108654011 4.060925580725244 M90.6929177834657 -0.5990898311138153 C96.50622820458496 -1.6625143066048622, 97.54574502564657 0.487342728232401, 98.70881579972495 4.114215725824407 M96.91192752970532 6.465337841660892 C98.10193049536471 8.136045464302207, 96.65045781080319 11.155652607006724, 97.67165787769743 19.376330693026837 M96.90217869709346 5.848799252347455 C97.80022168654443 9.026587589309202, 96.85280825931885 11.968328213509245, 97.12860488726814 18.569885363168282 M97.17383914895046 18.168918572858487 C98.13974216289509 23.310842154528327, 96.97751888088071 23.634945929706777, 92.18950649043592 25.459609091938223 M95.82423808879841 19.576143973067914 C99.30067356683004 23.830641498769946, 93.81166476807677 22.8910667709119, 91.32142049362929 22.08045723950931 M90.57157518407377 22.297519684494223 C69.56511702446466 25.53846458671644, 46.92367961680866 22.704061548691538, 4.9944687859864745 24.271849632919515 M91.54403695901902 23.99985806709596 C70.75405363403841 23.664011387983326, 51.71002672995625 24.58227339283562, 5.449360542163423 24.351812050402845 M6.056306190952829 24.225224763811315 C3.0743342961421183 25.43065267866918, -0.7891218960285187 22.50341284086866, 0.989822119474411 17.872447722152387 M4.458354987368158 25.522676528156484 C1.1802702586403064 24.465498428703036, 1.65007798820734 24.121024790014452, 1.4882342115044591 18.522542104617273 M-0.7275590045391502 17.47655056080719 C-0.062340429703132305 13.664667332123619, -0.7105688910627188 11.355457022882911, -1.1161758741260255 6.4530834463234585 M0.29645209152874863 18.367560773739964 C0.23039469642833255 14.419507132338225, -0.43553208746164496 9.912481639477498, 0.1182250598262361 6.646475947441967 M0 6.056306190952829 C0.3843638598918915 3.646649571811216, 1.4548684682002238 -0.02955266833305359, 7.480456389650873 1.1542413532733917 M1.4631468951702118 5.62008295224624 C-0.4921065077185631 1.945534647559183, -0.26364010169599705 0.44326987117528915, 4.984557244345716 1.8065983280539513" stroke="#495057" stroke-width="1" fill="none"></path></g><g stroke-opacity="0.1" fill-opacity="0.1" transform="translate(82.61745083623327 470.63389975246355) rotate(0 22.192980572121314 5.548245143030272)"><text x="0" y="8.096490286060657" font-family="Virgil, Segoe UI Emoji" font-size="8.683261202826976px" fill="#000000" text-anchor="start" style="white-space: pre;" direction="ltr">Read more</text></g><g><g stroke-opacity="0.1" fill-opacity="0.1" transform="translate(139.83523510651548 473.8350158599187) rotate(270 4.504227207823078 2.8035953612161393)"><path d="M-0.21048790812492368 1.1381869018077848 C0.7176991328133291 1.879232096422677, 4.11341997286627 5.0977975191863285, 5.94659915836641 4.834325890236885 C7.77977834386655 4.570854261287441, 10.049001668895572 0.10427679133610523, 10.788587204875917 -0.44264287188887497 M-1.7801327892299743 0.6901310799177738 C-0.9887517651541139 1.547936309987893, 3.3071700608669397 6.098295399531539, 5.324020705624682 6.049833594321624 C7.340871350382425 6.00137178911171, 9.422183812548385 1.4795330562070914, 10.320971079316482 0.39936024865828557" stroke="#000000" stroke-width="1" fill="none"></path></g></g><g stroke-opacity="0.1" fill-opacity="0.1" transform="translate(40.04475172458706 83.58776147498429) rotate(0 100.46142578125 17.48772967303239)"><text x="0" y="23.975459346064824" font-family="Virgil, Segoe UI Emoji" font-size="28.1122173534249px" fill="#000000" text-anchor="start" style="white-space: pre;" direction="ltr">Edgemony Shop</text></g><g transform="translate(25.413056625957324 27.80479263197776) rotate(0 119.52343733831685 26.81384162728)"><path d="M1.0104014929015581 -1.2224360114762725 C49.81482986266149 0.1008135239951139, 103.16205918646861 0.6120281602748674, 240.4408258869979 -1.4295065351877796 M0.1619680854914409 0.44522753527404574 C47.68733384609963 -1.5798435312412227, 96.28636523654495 -2.0347272363188584, 239.5373394715159 -0.6034859487581951 M241.01940578668223 0.049213141202926636 C238.25734051542025 17.630836392780957, 240.02498635129672 32.61843498615586, 237.98542923181162 52.59461623676601 M239.57009889631377 0.5563081651926041 C239.13288935322234 17.949730540105367, 240.51106747288176 36.27810469724469, 238.41215278654204 52.96732662864509 M240.07745063450363 54.43410666834014 C170.04028363112457 56.21894016705416, 98.6967909592544 53.57062561827989, 1.1748793562213102 53.775703951153744 M238.5592238754516 53.14338931559051 C189.21012758507422 55.37074549649838, 140.19356839095613 54.809130925525615, -0.8047114919314132 53.522535572696704 M-1.0618374049663544 53.67430812366786 C-0.9438553836560675 33.193826368063895, -0.023682692310852627 15.218929329256795, -0.45073339343070984 -1.351634293794632 M-0.6069456487894058 53.75427054115119 C0.5121694531471068 39.37267438184716, 0.5450411763221557 26.016850317269686, -0.39456094801425934 0.1484784036874771" stroke="#000000" stroke-width="1" fill="none"></path></g><g transform="translate(41.426088514341245 42.0760340853376) rotate(0 21.184041167945907 11.61200617078066)"><path d="M-1.4641869366168976 -1.7676174342632294 C14.890383524973783 0.4393640999274851, 31.05424964086134 1.4132477287726999, 40.65587427348154 -1.9953806102275848 M0.5332764536142349 -0.21230758726596832 C14.492346781311557 0.5851874302148574, 28.739396234985442 0.5052661846399062, 41.645250028672386 0.16169820725917816 M42.41729547709482 -0.4324609935283661 C42.89558264294431 6.75604696339853, 40.927726235778785 9.780278797278552, 41.335015318098236 24.04599642402202 M42.924390501084495 -0.4485579878091812 C41.93384096330191 10.211844995404476, 41.96985504334952 17.92972783701657, 41.70772570997732 23.14932281917602 M43.33398534983652 24.32839846259624 C28.675063972655728 22.895225991698158, 9.98754762477181 24.892730226012123, 0.17729350924491882 21.358997103038135 M41.78801364332693 22.72815353817016 C26.139537572577773 22.967216835426473, 8.83861094030518 22.012692318367147, -0.12594185769557953 23.884599518242183 M0.04662486910820007 21.853069063487354 C-0.6272597145817698 17.65558551161526, 1.028724210283953 12.537966461696293, -1.351634293794632 -0.738995760679245 M0.12658728659152985 23.718923401298824 C-0.2756804733559358 16.859330645709033, 0.4752689094260466 9.044522436017678, 0.1484784036874771 -0.7989756017923355" stroke="#000000" stroke-width="1" fill="none"></path></g><g><g transform="translate(50.011963763465246 113.04106358450736) rotate(0 13.695787414858614 -58.233042845100954)"><path d="M-0.8785121619701386 -54.00632574012029 C0.37202542965944385 -55.2642239238166, 4.647153597462291 -60.09441831043223, 7.110706773122297 -59.76701230476153 C9.574259948782304 -59.439606299090826, 13.333399365706846 -52.06102043709922, 13.902806891989904 -52.04188970609605 C14.472214418272962 -52.022758975092884, 9.72841635152246 -57.610353383081176, 10.527151930820644 -59.65222791874251 C11.325887510118827 -61.69410245440385, 15.993807365082084 -65.5237312923288, 18.695220367779 -64.29313692006407 C21.396633370475918 -63.06254254779934, 25.47682303252265 -54.10617661713822, 26.735629947002142 -52.26866168515412 M0.8611302236560734 -51.948729177252304 C1.9532805301127165 -53.63926994390159, 3.910961521041878 -61.35213920011418, 5.954392973586441 -61.67042970004965 C7.997824426131004 -61.988720199985124, 12.408333528288185 -54.274058473261256, 13.12171893892345 -53.858472176865114 C13.835104349558716 -53.44288588046897, 9.499372773994834 -57.572884219180935, 10.23470543739803 -59.17691192167281 C10.970038100801228 -60.78093962416469, 14.52781799362774 -64.51668076492939, 17.533714919342636 -63.48263839181637 C20.539611845057532 -62.44859601870335, 26.732831129241813 -55.02933988653323, 28.270086991687403 -52.972657682994665" stroke="#000000" stroke-width="1" fill="none"></path></g></g><g><g transform="translate(245.17427860784846 61.69576747133942) rotate(0 -8.784972351793158 0.11840188819633113)"><path d="M-1.0605704605579376 -0.3967015922069549 C-2.695198857433615 -0.2551685035228729, -6.272788644187402 -0.2512624517374814, -9.081638304275383 -0.02931362986564645 C-11.890487964363365 0.19263519200618848, -16.075163214697252 0.5047966675428446, -17.913668421085823 0.9349913390240545 M0.5834913183096795 -1.6505738734547049 C-1.2361686985320286 -1.2303681650105864, -6.6877051910443885 0.9321042147639068, -9.810526414411997 1.4927219656761737 C-12.933347637779606 2.0533397165884404, -16.372804526199335 1.9110491504395153, -18.153436021895978 1.7131326320188964" stroke="#000000" stroke-width="1" fill="none"></path></g></g><g><g transform="translate(219.95782640196649 37.56617188310156) rotate(0 14.437193709202575 11.239322071819515)"><path d="M-0.3967015922069549 0.41744257807731633 C0.43493566314379384 1.4838226974010469, -0.25470914291398294 4.537964849027897, 4.111311370134354 5.3377102553844455 C8.477331883182691 6.137455661740994, 22.569364682248853 2.4233335814056165, 25.799421486083066 5.215915016216604 C29.02947828991728 8.008496451027591, 25.021827634058734 19.6125263458381, 23.491652193139636 22.093198864250372 C21.961476752220538 24.573871382662645, 19.173302414721363 20.612126322470676, 16.618368840568472 20.09995012669024 C14.06343526641558 19.5877739309098, 9.816761603893351 20.888428701256515, 8.162050748222281 19.020141689567755 C6.507339892551211 17.151854677878994, 6.951412462603745 10.554236025086295, 6.6901037065420494 8.89022805655768 M1.5958913425449284 -0.4090040137711912 C2.3438121806426597 0.4321988851483911, -1.2785381335876291 2.6887560414458616, 3.147876250827685 3.741066203182563 C7.574290635242999 4.793376364919265, 24.671013889805472 3.2022315470212313, 28.154377649036814 5.904856956649018 C31.637741408268155 8.607482366276805, 26.195525865422404 17.469852501506224, 24.048058806215742 19.956818660949285 C21.90059174700908 22.443784820392345, 17.704162670761836 21.187545651940695, 15.269575293796843 20.826653913307382 C12.834987916831851 20.46576217467407, 11.303214451398341 19.483830614547355, 9.440534544425791 17.791468229149395 C7.577854637453242 16.099105843751435, 4.677168924903942 12.264427717861413, 4.093495851961543 10.672479600919615" stroke="#000000" stroke-width="1" fill="none"></path></g></g><g><g transform="translate(242.58190728431964 66.51148438310156) rotate(0 0.343212355397327 2.1481870876127687)"><path d="M0.41744257807731633 -0.02931362986564645 C1.1276646091657616 -0.10952473446423037, 3.0780996529495956 -1.6294711020640533, 3.2007617259727343 -0.8779682197984584 C3.323423798995873 -0.1264653375328636, 1.7477821108171008 3.646214888960912, 1.1534150162161496 4.479703663727923 C0.5590479216151986 5.313192438494934, 0.12263663995475632 4.897107561780073, -0.3654408416329715 4.122964428803607 C-0.8535183232206993 3.3488212958271415, -1.9058730647846613 0.4004013097754069, -1.7750498733102178 -0.16515513413087324 C-1.6442266818357743 -0.7307115780371534, 0.29253409341228387 0.5846079282903096, 0.4194983072136893 0.7296257653659268 C0.5464625210150947 0.874643602441544, -0.7987817445222692 0.7942165410986489, -1.0132645905017852 0.7049518883228301 M-0.8225387977715581 -1.0903072308842092 C-0.0898830241003149 -1.0213301212403347, 2.071695188192525 -0.4693893905873846, 2.7786469589223635 0.12011149176356417 C3.4855987296522017 0.709612374114513, 3.8320768010926654 1.5752091807488795, 3.4191718266074713 2.4466980632214836 C3.0062668521222773 3.318186945694088, 1.3560955369139567 5.7415226793474785, 0.3012171120111997 5.349044786599189 C-0.7536613128915572 4.956566893850899, -3.1337329685728554 0.9649855498599208, -2.910098722809071 0.09183070673174365 C-2.6864644770452863 -0.7813241363964335, 1.3083872129886338 0.17054299827413485, 1.6430225865939065 0.11011572783012546 C1.9776579601991793 0.04968845738611608, -0.8470185553014684 -0.2448765816164814, -0.9022864811774344 -0.27073291593231263" stroke="#000000" stroke-width="1" fill="none"></path></g></g><g><g transform="translate(231.5341131666719 66.04732997133942) rotate(0 -0.013934016935763793 1.908936348239422)"><path d="M-0.02931362986564645 1.0017727553844453 C0.010726491025858709 1.5859084803683194, 0.1758291430333126 3.704353801993299, -0.15646086685792393 3.9222569279805612 C-0.48875087674916046 4.140160053967823, -2.241882537509582 2.529193012503553, -2.0230536892130657 2.3091915113080175 C-1.8042248409165493 2.089190010112482, 0.782524228446664 2.5706128420780257, 1.1565122229211737 2.602247920807349 C1.5305002173956834 2.633882999536672, 0.2801500842853935 3.1015874022354786, 0.22087427763399314 2.4990019836839563 C0.1615984709825928 1.896416565132434, 0.7201777812312988 -0.4521977984438914, 0.8008573830127717 -1.0132645905017852 M-1.5038420148845764 0.4820995066221805 C-1.0670027167636666 1.1293192721882348, 2.178715197334947 4.847080996188912, 2.01614812985561 4.831137286980156 C1.8535810623762732 4.8151935777714, -2.3974915210616654 1.1279479698870516, -2.4792444197605983 0.38643725136964346 C-2.560997318459531 -0.35507346714776467, 0.7330720873051448 -0.003692200183231964, 1.5256307376620133 0.38207297587570777 C2.3181893880188817 0.7678381519346476, 2.70145509111169 2.5855719143913545, 2.276107482380612 2.7010283077232815 C1.850759873649534 2.8164847010552085, -0.9334359424993696 1.3597439984605384, -1.0264549147244542 1.0748113358672708" stroke="#000000" stroke-width="1" fill="none"></path></g></g><g transform="translate(238.05065728431873 32.09551036243829) rotate(0 9.615119485293917 9.469016422097866)"><path d="M5.910099670184861 0.055369717508250815 C7.725713589661475 -0.7525124558538655, 10.019107319983043 -0.47877405660861916, 12.054491719892427 0.19735088512468657 C14.089876119801811 0.8734758268579923, 17.051668134555666 2.4310381562142753, 18.122406069641166 4.112119367908085 C19.193144004726665 5.793200579601895, 18.813037641933295 8.141892412984435, 18.478919330405432 10.283838155287544 C18.14480101887757 12.425783897590653, 17.617451446691522 15.502234541336858, 16.117696200473993 16.96379382172674 C14.617940954256463 18.42535310211662, 11.450212919398316 19.069720066453392, 9.480387853100252 19.05319383762683 C7.510562786802188 19.036667608800265, 5.750929864352537 18.01150253036873, 4.298745802685611 16.86463644876736 C2.846561741018684 15.717770367165992, 1.372480793986591 14.100864247092892, 0.7672834830986925 12.171997348018614 C0.16208617221079413 10.243130448944337, -0.3550017698520096 7.1804137929511045, 0.6675619373582204 5.291435054321693 C1.6901256445684505 3.402456315692281, 5.307477172227346 1.6628376734884087, 6.902665726360073 0.838124916242144 C8.4978542804928 0.01341215899587922, 10.134400118054032 0.27920806626865186, 10.238693262154584 0.34315851084410376 M11.580361318015777 1.5990008473156454 C13.097766049380484 2.0686357225181804, 15.875549340043433 2.5844687915114024, 17.087052902576595 3.9564208876185774 C18.29855646510976 5.328372983725752, 19.246679474156917 7.697708142744059, 18.84938269321475 9.830713423958693 C18.452085912272583 11.963718705173328, 16.488149683258392 15.154746025904249, 14.703272216923587 16.754452574906388 C12.918394750588783 18.354159123908527, 9.95319768369115 19.27211146680535, 8.140117895205929 19.428952717971526 C6.327038106720708 19.585793969137704, 5.266846006695661 18.974075357995297, 3.824793486012262 17.69550008190345 C2.382740965328863 16.416924805811604, -0.1792207040968547 13.801313773310568, -0.512197228894463 11.757501061420452 C-0.8451737536920712 9.713688349530337, 0.5666807717207216 7.447559554762991, 1.8269343372266125 5.43262381056276 C3.087187902732503 3.417688066362528, 5.28961691993414 0.42407026535857606, 7.049324164140883 -0.33211340378093723 C8.809031408347625 -1.0882970729204504, 11.162584104286472 0.5321452511283793, 12.38517780246707 0.8955217957256796 C13.607771500647667 1.2588983403229799, 14.195946906362733 1.7011310195377989, 14.384886353224468 1.8481458638028645" stroke="none" stroke-width="0" fill="#868e96"></path><path d="M5.2091325488314535 1.687212080471939 C6.751782578252719 0.4979816988196024, 9.208035235927213 -0.284176817853655, 11.30631758393806 -0.11213479948408889 C13.404599931948908 0.05990721888547723, 16.38075402840793 1.2040162838278372, 17.798826636896546 2.7194641906893358 C19.21689924538516 4.2349120975508345, 19.950024939292966 6.9225604205084394, 19.814753234869755 8.980552641684902 C19.679481530446544 11.038544862861364, 18.554134061752354 13.261129021643665, 16.987196410357292 15.067417517748112 C15.420258758962232 16.87370601385256, 12.47307034387999 19.44060350564183, 10.413127326499394 19.818283618311586 C8.353184309118799 20.195963730981344, 6.223238564206947 18.444216019912744, 4.6275383060737205 17.333498193766665 C3.031838047940494 16.222780367620587, 1.607217375001452 15.129483505203972, 0.8389257777000356 13.153976661435117 C0.07063418039861913 11.178469817666262, -0.6725063563610828 7.452230824887664, 0.017788722265221324 5.480457131153539 C0.7080838008915255 3.508683437419414, 3.806721639566269 2.156946697183932, 4.980696249457861 1.3233344990303681 C6.154670859349452 0.48972230087680446, 6.819711931403006 0.3119533555001327, 7.061636381614772 0.47878394223215714 M7.0167603454617495 -0.7149286176085692 C8.818160758438038 -1.5125362535279576, 10.936800307206958 -0.28718827615568077, 13.012135360904068 0.9312918917971142 C15.087470414601178 2.1497720597499095, 18.349374409080486 4.586905137928591, 19.468770667644414 6.5959523901082004 C20.58816692620834 8.60499964228781, 20.36346084526661 10.95311898142971, 19.728512912287634 12.985575404874767 C19.09356497930866 15.018031828319824, 17.61788833201748 17.97958632417782, 15.659083069770565 18.79069093077854 C13.700277807523651 19.601795537379257, 9.981966965605134 18.31036536022865, 7.975681338806151 17.852203044479076 C5.969395712007168 17.3940407287295, 5.1817939907412285 17.129261805106108, 3.621369308976666 16.041717036281074 C2.0609446272121037 14.954172267456041, -1.2850628838692348 13.521464093243639, -1.3868667517812234 11.326934431528871 C-1.488670619693212 9.132404769814103, 1.6783048942041274 4.846800469173595, 3.010546101504734 2.8745390659924652 C4.342787308805341 0.9022776628113354, 5.755170761197247 -0.09551071451279941, 6.606580492022417 -0.5066339875579082 C7.457990222847586 -0.9177572606030171, 8.006591435814592 0.37093349171244555, 8.11900448645575 0.40779942772181244" stroke="#000000" stroke-width="1" fill="none"></path></g><g transform="translate(240.7942234607899 35.64567555957183) rotate(0 5.622472426470495 5.622472426470267)"><text x="0" y="9.24494485294099" font-family="Cascadia, Segoe UI Emoji" font-size="9.469427244581887px" fill="#ffffff" text-anchor="start" style="white-space: pre;" direction="ltr">12</text></g><g transform="translate(166.79888287663925 49.27253468390518) rotate(0 20.271369485294144 5.835697276069368)"><text x="0" y="9.671394552139054" font-family="Cascadia, Segoe UI Emoji" font-size="9.828542780748675px" fill="#000000" text-anchor="start" style="white-space: pre;" direction="ltr">125.30</text></g><g transform="translate(10.655417070374824 10.860251931222592) rotate(0 134.6000434027776 262.951171875)"><path d="M1.2552026100456715 1.885189514607191 L269.1831464092761 -1.7298687882721424 L270.7038081209689 524.0339600853622 L-0.7478757314383984 525.1929114870727" stroke="none" stroke-width="0" fill="#f3f3f3"></path><path d="M-0.26247242974581747 0.4195004459039132 C87.74986089502384 -0.30329297457055154, 176.50782801317337 -0.5147087506176684, 268.1857413076233 0.6598220090587592 M-0.05207581621691448 0.2069455745727784 C89.13296913109963 -0.5807302307527901, 178.70763141860505 0.04878827800857913, 269.01726808715216 0.6904536415567485 M268.44944306794105 -0.7238583728671074 C267.54882325355715 112.76746865307432, 268.8897551936359 225.0577046755978, 269.45060802880226 526.0123111084104 M268.81559575903714 0.23269352540373803 C269.2511667560579 120.71895024990445, 268.69030733814253 240.8606230815829, 269.41844230997856 526.140897770971 M270.172647325679 526.3115495093928 C184.56463514484594 524.8593812729714, 100.8008555070551 523.9381804318157, 1.1366034528890812 526.3289247275516 M268.89906415840767 526.6097324791766 C195.6212971906783 524.1494093444638, 120.03377454119048 524.6781461441475, -0.28817608274267725 525.2982569782353 M0.7711159631609917 526.0410014942288 C-1.11717143289643 357.21970666855117, -1.863077261372382 187.57632474570562, 0.6898926183581353 -0.5934192344546318 M0.038837019354104996 526.2041049920023 C-1.4266600841177572 377.0186319545399, -1.3739101880682576 229.13266682113024, -0.23155098780989647 -0.3977325715124607" stroke="#000000" stroke-width="2" fill="none"></path></g><g><g transform="translate(49.887800890275685 21.96488010097164) rotate(0 -9.303718450691349 13.291248535138038)"><path d="M-0.20071014091372485 0.32078795358538637 C-3.1991251771782183 4.784349971466879, -14.683832585381639 22.69615874913146, -17.435217744937148 27.138899386397718 M-1.765221694232896 -0.5564023161213845 C-4.974154952650577 3.4920581452801773, -15.848108758170454 20.331022060304853, -18.40672676046936 25.14721063106616" stroke="#000000" stroke-width="1" fill="none"></path></g></g><g><g transform="translate(24.13408293575867 23.826672762283124) rotate(0 14.721408921675447 12.236739090732954)"><path d="M0.32078795358538637 -0.04469247981905933 C5.3299925643126755 4.253298903421263, 25.424371713360443 21.558110453266405, 30.4127549434725 25.587238158528212 M-0.9699371001217515 -1.113759977063164 C3.8717769171125536 2.855792906309243, 24.512039367358806 19.46343660810379, 29.59559547329245 23.822453097356934" stroke="#000000" stroke-width="1" fill="none"></path></g></g><g transform="translate(33.874036449662526 83.20898438125369) rotate(0 113.52060355392132 62.226179534313815)"><path d="M-1.7298687882721424 1.5037213154137135 L225.17282344320483 -0.7478757314383984 L226.33177484491534 123.44759530522947 L-0.9516229815781116 124.65941531160001" stroke="none" stroke-width="0" fill="#ffffff"></path><path d="M0.35522114411865097 0.9710318028573701 C64.43977735958809 -1.0328994730089112, 129.3487268470152 0.633041446381368, 225.4996216938973 0.19545030884787876 M-0.3696633725120163 -0.5120383289945251 C66.92172823781277 0.9283958301637201, 133.96327835677002 0.3862184555142173, 226.60077501920395 -0.4014773726750134 M228.54848753580518 1.9335381798446178 C227.73661286070444 26.284587782934185, 226.1900519771824 49.902464015662424, 226.75780390867658 124.29653212376957 M227.37199517445333 -0.5292366351932287 C226.98357114991128 25.918892036661337, 228.36157361468256 50.84887228627469, 226.4731046195484 123.57714661718433 M227.91904902709595 122.99138502176748 C144.73196074724206 124.32242779644795, 63.13921994596125 122.67724863960343, -0.44809311253307893 123.56313859836283 M226.32817362322768 123.9561090836279 C167.5023038324444 126.05957686648019, 107.57910026079453 126.55322883653716, 0.5954305813657543 124.68626050213508 M0.3512461967766285 123.45752367326145 C-1.915073252093933 76.84548280257675, -1.699251628291748 25.439477545905717, 1.2773975916206837 1.2591451220214367 M-0.7687861416488886 124.37651553512637 C0.01792191076196592 85.32943420906136, -1.9332038898476227 47.99186559356764, 0.9425947573035955 -0.008470198139548302" stroke="#000000" stroke-width="1" fill="none"></path></g><g><g transform="translate(78.60059894966253 179.7125076655684) rotate(0 70.64650034361557 -31.612717349521517)"><path d="M0.2493066541850566 0.6815041668713093 C6.915539393272077 -5.905422853600548, 27.8324488172686 -39.4308193282705, 40.31818438810751 -39.566254602650204 C52.80391995894642 -39.70168987702991, 71.74409190053478 -1.827874767346896, 75.16372007921855 -0.13110747940692136 C78.58334825790232 1.5656598085330533, 57.20578799562803 -18.611472268621746, 60.83595346021011 -29.385650875010356 C64.4661189247922 -40.159829481398965, 83.52975514405962 -69.62049705089596, 96.94471286671106 -64.77617911773858 C110.3596705893625 -59.931861184581194, 133.9324699657757 -11.22294483133681, 141.32569979611873 -0.3197432760660376 M-1.078946081707254 -0.006310090860351947 C5.408864839063783 -6.452829042138847, 26.792505819416256 -38.05926865859108, 39.4161494230897 -38.436050977379104 C52.03979302676314 -38.81283329616713, 71.14646799573102 -3.9713835500223853, 74.66291554033342 -2.267004003588511 C78.17936308493582 -0.5626244571546362, 57.0533394670607 -17.88439474216227, 60.51483469070412 -28.209773698775855 C63.97632991434754 -38.53515265538944, 81.78903486915488 -69.25888697773745, 95.43188688219394 -64.21927774327 C109.074738895233 -59.17966850880255, 134.68231140057296 -8.597045732215939, 142.3719467689385 2.0278817080288354" stroke="#383838" stroke-width="1" fill="none"></path></g></g><g transform="translate(95.35326696353695 14.204194948381883) rotate(0 44 22.5)"><text x="0" y="32" font-family="Virgil, Segoe UI Emoji" font-size="36px" fill="#000000" text-anchor="start" style="white-space: pre;" direction="ltr">Cart</text></g><g><g transform="translate(11.32548918575958 61.78709425393754) rotate(0 132.54059966934574 -0.045444203009992634)"><path d="M0.08763904497027397 -0.7756602399051189 C44.44720269001464 -0.8236516825854778, 222.2845966506471 0.2414164908230305, 266.4066885244512 0.39355551078915596 M-1.325489185759798 1.4315141888055951 C42.89838779798152 0.9526949869189412, 220.97820959258834 -1.5382630632724614, 265.7235368193259 -1.522402594825253" stroke="#000000" stroke-width="1" fill="none"></path></g></g><g transform="translate(36.1390870207274 363.7800987474011) rotate(0 113.52060355392132 62.226179534313815)"><path d="M-0.7094322629272938 -1.004763763397932 L226.08958412626453 0.20705624297261238 L225.85311163881488 125.89597362973814 L0.7184793762862682 126.17033178308134" stroke="none" stroke-width="0" fill="#ffffff"></path><path d="M0.7189146942824762 0.560752135853354 C79.46490410969803 1.4500672863292372, 161.89949974838154 1.7055756070345942, 226.0479182353006 -0.7393267450240326 M0.7522896505742177 -0.7413690676294437 C54.07343116066831 0.05076985152519242, 108.22556822438213 -0.3212874821744641, 226.43474339103255 0.6442883121736547 M227.31612550386853 -1.4141054339706898 C227.8912408753484 49.21155016727652, 226.252188841924 99.8982218512874, 228.7870309270329 125.11393520184879 M227.6375921602703 0.10286573506891727 C225.5003633109956 29.87402049361116, 226.6882221905618 61.75922897834969, 226.33623959975012 124.96577593446796 M227.50599204810356 124.04557589226827 C177.88071942338905 124.96897318979734, 128.96045438177777 127.39967649935159, 1.6923822152697932 123.02629209939747 M226.38301921644018 124.63202633132366 C172.70347423125708 123.97338583240929, 117.9989156421096 123.88765782824774, 0.37185197260197245 124.60249955680752 M-1.4835480861365795 124.1026931697977 C2.3348504382789255 94.56627706197379, 1.2516379434287666 63.670711021288554, -0.4154365472495556 -1.5375722832977772 M-0.9943314287811518 125.07996037365024 C-0.2481584098727485 88.05207181632998, -2.055687561312415 52.42058561801852, -0.934191832318902 -0.3739378657191992" stroke="#000000" stroke-width="1" fill="none"></path></g><g><g transform="translate(80.8656495207274 460.2836220317158) rotate(0 71.15949388557146 -31.980905608548255)"><path d="M0.5045595400035381 0.39355551078915596 C7.014720806922591 -5.9194045297022315, 26.80278043843864 -38.553133829079215, 39.14860664648459 -38.65342048285345 C51.49443285453054 -38.75370713662768, 70.90082336301343 -1.6434494610267052, 74.57951678827922 -0.20816441185626222 C78.25821021354501 1.2271206373141808, 57.599749377540256 -19.301605983297648, 61.22076719807937 -30.04171018783079 C64.84178501861848 -40.781814392363934, 82.88521402353044 -69.86492611469296, 96.3056237115139 -64.64878963905511 C109.72603339949737 -59.43265316341726, 134.29713142093013 -9.449843072379899, 141.74322532598018 1.2551086659963404 M-0.6896854308340699 -0.4454317913856358 C6.1701164948808165 -6.474151098193916, 28.882261541700572 -37.33079827232437, 41.29254336711474 -37.04397894468906 C53.702825192528906 -36.757159617053745, 70.47048347601094 -0.03013495788409526, 73.77200552165094 1.2754841744262446 C77.07352756729094 2.5811033067365843, 57.04413057447685 -18.32684865704303, 61.101675640954745 -29.21026415082702 C65.15922070743264 -40.09367964461101, 84.46610966034788 -69.02164130002787, 98.1172759205183 -64.0250087882777 C111.76844218068871 -59.02837627652754, 135.84842011968345 -10.163065549806653, 143.00867320197722 0.7695309196739619" stroke="#383838" stroke-width="1" fill="none"></path></g></g><g><g transform="translate(11.26298918575958 494.20506300393754) rotate(0 130.11459163386507 0.17582681091471386)"><path d="M0.39355551078915596 -1.0819386966526507 C44.03752385795939 -1.179305911809206, 217.60916333798707 -0.14377937391400347, 261.0881498431163 -0.07964375093579301 M-0.8589665753860027 0.9644395422656089 C42.706853468454284 1.0203222873527558, 216.6243032375669 1.5343132430035622, 260.2121206664322 1.4159685310442" stroke="#000000" stroke-width="1" fill="none"></path></g></g><g transform="translate(94.85977738020301 505.17771925393754) rotate(0 82 12)"><text x="0" y="19" font-family="Cascadia, Segoe UI Emoji" font-size="20px" fill="#000000" text-anchor="start" style="white-space: pre;" direction="ltr">Total: 123.45</text></g><g transform="translate(37.551378875375576 313.6451049209172) rotate(0 44.14086378260595 14.097284471909006)"><path d="M1.8762086209674311 1.6309632715834594 C1.8762086209674311 1.6309632715834594, 1.8762086209674311 1.6309632715834594, 1.8762086209674311 1.6309632715834594 M1.8762086209674311 1.6309632715834594 C1.8762086209674311 1.6309632715834594, 1.8762086209674311 1.6309632715834594, 1.8762086209674311 1.6309632715834594 M2.487663706501114 8.359535355270042 C3.0751211806965513 5.003638007635749, 6.0673078268527565 4.1763137758092315, 8.278207821879972 -0.08645100186261556 M1.2622680428597213 8.285455721579625 C2.534729738930431 6.371236681015409, 4.718096017406782 4.940362306474271, 8.056385963332344 0.3506150455897746 M3.1349547417388495 12.925235603203305 C3.2891186047578866 10.662804076461526, 6.601441863183558 6.196395842005888, 13.540647848761614 2.0954410411018243 M1.7447631019653018 14.584592094284721 C4.640491263551732 9.19423558948777, 9.730111541834761 4.844243698057902, 13.005007840200301 1.416587777954649 M1.3324606305240376 18.532033459290577 C7.530925566731089 15.011278284339646, 12.477892319751867 4.260843723349241, 19.40457551258195 3.087055751626245 M0.8137053454546912 19.695667876869155 C6.462924957201446 13.799567115166521, 11.24837994038787 8.761136615886757, 17.5553251680224 1.9236735175744215 M4.017722859142369 24.62511140089681 C11.168792568525419 18.069921823885263, 15.102968310342398 10.04002577868858, 22.243175238016914 -0.10634131891102783 M2.0194547037612853 26.222983000615738 C8.968259019656454 18.37622025214905, 14.404302392939169 13.32516373994986, 24.492142201978634 1.777976077297616 M5.722046185412179 30.29604215320375 C11.204176255131928 21.11803148046339, 16.109830879977572 14.779498833822323, 27.046248923963322 1.2029074395537673 M5.4906202164820535 29.13309592712846 C11.696485518444202 19.957641059857927, 18.4776712506849 13.289662550564078, 29.39009342899026 0.9210095948070585 M11.018009275655464 27.86972572612167 C18.6554202145565 19.38844665793729, 23.025305790612524 12.59607646599149, 33.0303335737147 1.7122920462625864 M9.241003694470242 28.033316334286337 C16.988200488636913 20.211201943071444, 23.361961977283748 12.986330164057403, 33.61201712188205 0.1588456323134544 M14.466663017203711 28.59374045978361 C19.571482700248584 22.13259915787957, 27.967410740263098 14.141840122024334, 37.557261324602514 1.1811095913484735 M16.274832294588588 28.732929105191168 C22.25433374752443 20.58771155191375, 30.704779744962824 10.94104124592089, 39.48049981251672 1.8261596979185981 M22.398589547388404 26.758633444322626 C27.857174107244234 21.24183985007936, 34.47976750762369 13.305332952337084, 46.507631679920294 -0.732212405946612 M21.680317548699826 29.050984747944753 C24.99585604473371 23.970106067554614, 31.06359676299236 17.66679129134193, 45.96384852371905 0.31105460383319894 M24.00707934051255 30.308791779203435 C32.46858377748977 21.842818928714745, 37.01018041397445 12.488579491340618, 50.157339276999515 2.442560644510369 M25.03533245063821 29.11467065498056 C34.502319073767275 19.177842039175374, 41.305834757712105 10.40626787622475, 49.86511853735177 0.6552371081590458 M30.50495412087915 27.981571313890772 C39.74218095707475 16.050298109377692, 51.664320377008515 6.067049987251167, 57.551046119133694 -1.1752062380386228 M30.876734369237997 28.185939843732076 C37.814868838813766 21.01200900708549, 44.181347912015625 14.13726936259184, 55.50808562623964 1.0788412731068497 M38.28138977581971 28.446425388517675 C43.80071317890773 19.465596602463137, 52.35616726283105 9.287132623698035, 60.37870934365433 1.0956590365394518 M37.16968796136194 29.488139697301087 C45.011820910264134 18.43443334177668, 54.78607205629168 8.68259022655614, 59.92627382224541 1.5806051067783997 M42.61932955862772 27.896937772326105 C48.5224016710585 18.11453519891627, 57.17927506618692 9.734181097975252, 66.69299442486441 2.090168567709327 M42.33757837483477 29.485544902898305 C49.98002729190401 19.324450548937275, 57.83904142615936 10.59910917853853, 65.89286861920333 1.2174035016071798 M45.57201185663468 28.963499305449098 C52.9152976589561 22.539103180624117, 60.57308284504411 13.219773272362733, 72.06609808706696 1.9363032049357187 M46.45103901651925 28.483534093625515 C55.40256308834151 19.052013064468927, 66.29595474258859 7.369484431341565, 70.39003988594766 0.9308769750266563 M54.336442423134095 27.55063125712862 C60.13889618377689 18.057008150490482, 71.43775341691169 10.979228755990572, 74.74657121759344 3.1941412883516875 M52.91392378424013 29.153413206693436 C60.456905308052754 20.521060332191094, 65.68331584960224 12.623511962812932, 77.07826477934111 2.3740604101386396 M57.12992214545746 27.749661967497715 C63.78588009323386 20.183428242469716, 71.67568372573875 13.801902226958143, 81.3767320697374 2.44789158719918 M57.65233483486016 29.132592125203857 C67.51919762088363 17.555432918871496, 74.81236794646775 7.904074399374046, 81.32624094720849 1.1909159941538263 M60.907460247907785 29.430759786021113 C70.71961229549557 19.627320611858174, 77.52586966513734 14.546326828737303, 86.21313500183979 1.9732795218340229 M62.14453578721359 28.30411761659026 C68.6766880434062 23.1310484632658, 73.33595043178168 18.509639192034793, 86.74385526742199 2.3712194403967928 M66.51859720478807 27.38206181216352 C73.18200719953246 24.434903471049374, 78.47705131924656 19.266913254395355, 89.50004270921312 4.574870521943694 M67.89027463513467 29.623302073286105 C74.67044069085655 20.339241427771412, 82.57041995717603 12.281079067896787, 88.86815607982538 4.775383346523768 M71.8642276534298 30.448802636058 C78.02367293040663 23.744103624512206, 81.5844125154453 16.41035108910544, 90.65807205019837 10.98932750788402 M72.88010666048615 29.944352253393202 C79.46176307799296 21.879575887972578, 84.98063484151079 15.255489282898708, 89.66449901229089 10.225214675859327 M77.93948709474819 29.056550974754593 C80.81566071077204 27.036888361890227, 82.42771755756165 23.322951178829047, 88.65858077941314 16.7263337223808 M78.69795762397291 29.187467181386403 C82.3572874600045 25.08636489366711, 86.58412120300363 19.274782720384, 89.0747204803288 17.705836622418715 M82.95986017869221 30.405138457216676 C85.17916188370842 28.975214773546607, 85.98053187898353 26.357850789842608, 88.52558408466493 25.20311779939911 M83.05225647590491 30.066801210981215 C84.5924393491451 27.697302004100063, 86.74455345417022 25.909235122753696, 88.17542179229994 24.719103049220205" stroke="#fa5252" stroke-width="0.5" fill="none"></path><path d="M6.042154490162895 -0.1699771098792553 M6.463441766013668 -0.2118845172226429 C25.846781644225842 -0.3348896781335451, 43.8876723342056 -1.7796331921945192, 81.50660766529317 -0.8033172078430653 M7.896589406912492 -0.7421106901019812 C25.44804608075728 1.0534942147971735, 44.70145854989015 -0.1560502650497808, 81.31526343578871 0.8193803820759058 M81.23308532925721 0 C86.04025932962305 1.0899238176643848, 87.99433004273249 1.383739813900645, 88.90257393730951 7.923869765510128 M80.73451820629116 1.6664073057472706 C84.26746904982484 0.13032767828553915, 86.5290860864721 3.792727168946619, 87.3008416506849 6.504662108940349 M88.58619714786069 6.2710758688906685 C87.02021986020986 11.713602976083912, 87.31833287735734 16.46347052090187, 88.15160212539783 21.610782131421526 M88.57558636303274 7.219036216736187 C87.64323520355494 9.678073634404498, 88.31166311723514 14.11483754901067, 88.96623026180278 21.56024859117885 M88.28172756521178 21.14592670786371 C86.45263409031702 25.673894886775027, 85.47789653951533 27.470251471390192, 80.98949006813045 29.60771909414715 M88.75301598919702 22.709440899521013 C86.25643862815721 26.922740970468233, 87.12720249427713 29.117993778390055, 81.6856626424792 29.154055482548838 M80.44106103348012 28.389787488271658 C56.30723736208289 30.02098168610493, 33.98086684620322 30.51524879216114, 7.204314745177792 26.662261658002798 M80.95657347197111 28.69070588669664 C50.60420014121976 28.794466651758377, 21.5389876838815 28.73174986966533, 7.263265916292832 28.294242552136247 M7.048642235954569 28.194568943818275 C1.6410663199788882 29.103776723732416, 0.36874423548579216 25.498012666506778, -1.3105057664215565 21.72207577291121 M8.583704053570793 27.163567096580927 C4.353863899334426 26.75572979490197, 1.1954426610842348 24.057714728927326, 0.5863068068400024 18.96179968162616 M0.37149270719657657 21.724547525385756 C1.0703266640795426 17.779288707064055, 1.0591688873200353 14.748309320491671, 1.2668535192169998 8.13428611228163 M0.22621236571015313 20.886479961845737 C0.34839018639107855 17.144398880417345, -0.2500628406242251 13.274228010736971, 0.5332708715103347 6.925435205233343 M0 7.048642235954569 C1.5451116375625134 2.4334041920668437, 2.2001787495977236 1.82529791072011, 7.9502024046679 -0.789096038788557 M0.9554483704268932 7.4969311125178795 C-0.5581702208146453 1.1148184682420448, 2.9487040027222586 1.6877914851531384, 6.303856911656723 2.067610818706453" stroke="#000" stroke-width="1" fill="none"></path></g><g transform="translate(56.09463808237297 321.10668426839766) rotate(0 27 8)"><text x="0" y="11" font-family="Virgil, Segoe UI Emoji" font-size="12.077359477920394px" fill="#000" text-anchor="start" style="white-space: pre;" direction="ltr">Remove X</text></g><g transform="translate(42.25474265798175 221.76192064282623) rotate(0 56.5 28.5)"><text x="0" y="15" font-family="Cascadia, Segoe UI Emoji" font-size="16px" fill="#000000" text-anchor="start" style="white-space: pre;" direction="ltr">Shirt Orange</text><text x="0" y="34" font-family="Cascadia, Segoe UI Emoji" font-size="16px" fill="#000000" text-anchor="start" style="white-space: pre;" direction="ltr"></text><text x="0" y="53" font-family="Cascadia, Segoe UI Emoji" font-size="16px" fill="#000000" text-anchor="start" style="white-space: pre;" direction="ltr">Qty.</text></g><g transform="translate(85.85850360828363 255.06524380980954) rotate(0 13.975599359528587 13.047104183447573)"><path d="M7.263365520095994 -0.4659990482032299 L23.187590809222765 -1.7343960218131542 L25.289941753358974 0.6916516986504619 L26.074589375021933 4.713906159556081 L26.5324070487051 21.07793670313409 L28.253848875970974 26.284799623512363 L22.053949685451098 26.369126762921294 L5.10944665775316 25.810805167729338 L1.4750610780731264 22.540865111373996 L1.16346762701869 21.31648009436181 L1.0692981389541285 2.6110247812082075 L2.1062632269074224 1.4994995278496401 L7.716322196579148 0.20573147013783455" stroke="none" stroke-width="0" fill="#ffffff"></path><path d="M5.387347115135362 -1.7504249028861523 M7.288753442190251 -1.2735086911826725 C11.80876073351438 1.1845598249806741, 17.718536292859422 -0.24951763813182998, 21.03705072695011 -0.775119859037479 M5.902011728489394 -0.43257350823888324 C10.303615238590943 -0.421218023030515, 13.7486897055753 0.009090835390482666, 21.94667434175114 0.20388829568351263 M21.42764662733347 0 C26.646610530973298 0.3512461967766285, 26.956363323691367 0.47514765396918524, 29.8789886269598 6.870196452295949 M23.152378173228808 -1.4835480861365795 C27.224698245474023 0.22331286128610373, 29.68632586057025 1.696765334570961, 27.549082935403167 7.992559322087636 M27.195931253623332 5.2262375173054405 C28.7601412954551 10.664453258400938, 27.93025217846692 11.21723910960165, 28.93215915231101 18.351806458812487 M27.640800614457 6.591089201071273 C27.517388401722577 10.42067745702956, 28.1392704177314 13.9364175681026, 28.036298262320376 20.182312176780446 M27.95119871905732 19.570656275171547 C28.703008893492697 22.548621173076455, 26.86492172157846 24.544936265522917, 20.340077848788805 28.06169923740097 M27.037593368056296 18.92675810473016 C27.66819595749217 25.093387491688254, 27.679887431808634 24.554734786140106, 19.57777344459713 26.065804501163147 M22.874405036196404 24.963187629941594 C17.43965559543415 26.073823415960664, 11.515288478444187 27.658441400267108, 7.24213950339964 25.237535191155455 M21.440887436905545 25.855671642873364 C17.02381885139804 26.342665511391292, 11.870908071793046 26.55836527845958, 6.811948553053194 25.3650874827159 M6.523552091723849 26.094208366895398 C3.3957787273844646 25.601484741742095, -0.26210977509617805 23.618737335376565, 1.6775138191878796 18.840222293305903 M7.18906284675615 26.96386453109451 C0.7755561381971408 24.836882080423017, 0.0028256917372346813 22.31865685103846, -0.9513926362618803 21.296711277942865 M0.1727439905082213 18.38682803775072 C-0.846844488916795 15.282598521957848, -0.613978724507123 10.033914006371933, 0.33708211645970687 5.46605812226395 M-0.40982062670060276 19.13854775377472 C0.1869587104247709 15.889694516154465, 0.06524079642260268 13.74685316533153, -0.5989451707242514 5.9193761631387405 M0 6.523552091723849 C-0.30277194455266 3.0699818624576496, 3.1413268564661907 0.8610152788460255, 6.57178510532396 0.2557994909584522 M-1.9314748235046864 8.30234669700878 C0.16317860726267108 3.7690685402994917, 0.9543529600297975 -0.15593960229307413, 6.747102556868066 -0.5954970235005022" stroke="#000" stroke-width="1" fill="none"></path></g><g transform="translate(96.59407050758773 260.426462580368) rotate(0 4 8)"><text x="0" y="11" font-family="Virgil, Segoe UI Emoji" font-size="12.077359477920394px" fill="#000" text-anchor="start" style="white-space: pre;" direction="ltr">+</text></g><g transform="translate(145.09708533905132 256.8786452521181) rotate(0 13.975599359528587 13.047104183447573)"><path d="M8.283496273613146 -1.7343960218131542 L20.397277684566088 -0.9392363242805004 L24.44370135209097 -0.17875790923680612 L26.5324070487051 8.030832519686392 L29.884736898901938 21.392135554719477 L26.946613754243984 24.73823873999033 L20.01354119336278 25.810805167729338 L6.367725146866014 24.17175313430496 L2.7943556499496522 26.209144163154697 L0.6615761332213879 18.51218300478509 L-1.1555128189545019 4.761275573711565 L4.862268156449964 0.6134534758705751 L5.387347115135362 -1.7504249028861523" stroke="none" stroke-width="0" fill="#ffffff"></path><path d="M7.763064874267747 0.521526176482439 M6.413841588374954 1.0794908011292332 C10.34923612474905 -0.2272357928650037, 12.974032435677442 -0.6477689899192118, 20.855853223571852 1.3436869719647786 M6.404180281669674 -0.2736956584422191 C11.896271798298608 0.24312790162655518, 18.935483819273212 0.29040299733128927, 22.145945703137787 0.12916050800506307 M21.42764662733347 0 C24.781845959783418 -1.6993697099387646, 29.675930264952658 0.6909692777713703, 28.821127894881247 6.874798288500478 M21.07798072850377 1.2773975916206837 C27.5118084966623 -0.4777520293369888, 26.182990593264876 2.0000772368555833, 29.399215609381972 6.746864953009953 M28.770036680287387 7.75336529185501 C27.864620816755806 10.557534016682308, 28.85663240576761 15.62964395570981, 27.463318089839873 19.107854442895974 M27.563668584950136 6.994426831212697 C28.123470980038896 10.342584696462891, 27.974218641400313 13.652544753320786, 27.59645814004889 20.21240773435826 M27.95119871905732 19.570656275171547 C29.03943908548641 22.37041890161497, 24.863076004148347 25.45031019645401, 22.179456801768847 24.723138536984404 M26.342613342764853 19.545957261491328 C29.854404795716583 22.380217422232157, 26.847464716383143 28.27783848224797, 21.14464386576832 27.267904855596203 M22.604755975377294 25.96954023217956 C16.33142903983655 27.441056142790625, 11.118113642021404 25.124433117460075, 6.953384451336438 25.051626750436796 M21.924879571693513 26.47182542475489 C18.493400285337103 26.63981784701877, 15.356784634569026 25.317380137911492, 7.148597705373042 25.822046938951715 M6.523552091723849 26.094208366895398 C1.9124075888117718 25.793254699284514, 0.665510755032301 24.789347167186563, 1.2212613634765148 19.077932650018244 M5.696254147148301 27.595125760609587 C2.1773430556451845 24.49317421494641, 1.0804512703791258 23.582963473782065, -1.398961225710809 18.313329988699167 M-0.8659458765471322 19.809632398286716 C-0.6503545111882822 13.911436683208526, 0.31980771740888475 8.160072154069358, -0.8009924780306348 5.6041823038603455 M0.09502173163842054 19.002833293158137 C0.05526794297637283 16.537859844504883, -0.5169810453841308 12.095938596918447, 0.015732528838057425 6.606988156939044 M0 6.523552091723849 C0.9668094925582409 3.0355326427539753, 0.24304254040326345 1.7787946052849293, 6.220780147171189 0.8954644985496998 M0.19439170882105827 6.005728593027761 C-1.2201644038781523 2.0185777616148757, 0.4139750749265718 1.8631685798987743, 6.686730698986521 1.5945511763915419" stroke="#000" stroke-width="1" fill="none"></path></g><g transform="translate(155.83265223835633 262.23986402267656) rotate(0 2.5 8)"><text x="0" y="11" font-family="Virgil, Segoe UI Emoji" font-size="12.077359477920394px" fill="#000" text-anchor="start" style="white-space: pre;" direction="ltr">-</text></g><g transform="translate(119.64720392935078 258.15050905095086) rotate(0 9.5 9.5)"><text x="0" y="15" font-family="Cascadia, Segoe UI Emoji" font-size="16px" fill="#000000" text-anchor="start" style="white-space: pre;" direction="ltr">12</text></g><g transform="translate(42.305256813966025 288.08260039709967) rotate(0 61 9.5)"><text x="0" y="15" font-family="Cascadia, Segoe UI Emoji" font-size="16px" fill="#000000" text-anchor="start" style="white-space: pre;" direction="ltr">Price: 52.30</text></g></svg>